<?xml version="1.0" encoding="utf-8"?>
<!-- Generator: Adobe Illustrator 19.0.0, SVG Export Plug-In . SVG Version: 6.00 Build 0)  -->
<svg version="1.1" xmlns="http://www.w3.org/2000/svg" xmlns:xlink="http://www.w3.org/1999/xlink" x="0px" y="0px"
	 viewBox="0 0 750 500" style="enable-background:new 0 0 750 500;" xml:space="preserve">
<style type="text/css">
	.st0{fill:none;}
	.st1{fill:#FFFFFF;}
	.st2{fill:url(#SVGID_1_);}
	.st3{clip-path:url(#SVGID_3_);}
	.st4{opacity:0.33;fill:url(#SVGID_4_);}
	.st5{fill:url(#SVGID_5_);}
	.st6{fill:none;stroke:#7DB3E6;stroke-width:3;stroke-miterlimit:10;}
	.st7{fill:url(#SVGID_6_);}
	.st8{fill:url(#SVGID_7_);}
	.st9{fill:url(#SVGID_8_);}
	.st10{fill:none;stroke:url(#SVGID_9_);stroke-width:2;stroke-miterlimit:10;}
	.st11{fill:none;stroke:url(#SVGID_10_);stroke-width:2;stroke-miterlimit:10;}
	.st12{opacity:0.33;fill:url(#SVGID_11_);}
	.st13{fill:url(#SVGID_12_);}
	.st14{fill:url(#SVGID_13_);}
	.st15{fill:url(#SVGID_14_);}
	.st16{opacity:0.24;fill:url(#SVGID_15_);}
	.st17{fill:url(#SVGID_16_);}
	.st18{fill:none;stroke:#FFFFFF;stroke-miterlimit:10;}
</style>
<pattern  x="225" y="100" width="5" height="5" patternUnits="userSpaceOnUse" id="Nueva_muestra_de_motivo_1" viewBox="0 -5 5 5" style="overflow:visible;">
	<g>
		<polygon class="st0" points="0,-5 5,-5 5,0 0,0 		"/>
		<path class="st1" d="M3.3-2.5C3.3-2,3-1.7,2.5-1.7S1.7-2,1.7-2.5S2-3.3,2.5-3.3S3.3-3,3.3-2.5z"/>
	</g>
</pattern>
<g id="BACKGROUND">
	<linearGradient id="SVGID_1_" gradientUnits="userSpaceOnUse" x1="231.1504" y1="494.3038" x2="514.2209" y2="13.5573">
		<stop  offset="0" style="stop-color:#9ECEDB"/>
		<stop  offset="1" style="stop-color:#7DB3E6"/>
	</linearGradient>
	<rect class="st2" width="750" height="500"/>
	<g>
		<defs>
			<rect id="SVGID_2_" width="750" height="500"/>
		</defs>
		<clipPath id="SVGID_3_">
			<use xlink:href="#SVGID_2_"  style="overflow:visible;"/>
		</clipPath>
		<g class="st3">
			<linearGradient id="SVGID_4_" gradientUnits="userSpaceOnUse" x1="669.2856" y1="74.1617" x2="123.1839" y2="388.4517">
				<stop  offset="0" style="stop-color:#9ECEDB"/>
				<stop  offset="1" style="stop-color:#93B3E6"/>
			</linearGradient>
			<polygon class="st4" points="0,500 225.9,187.8 750,0 609.6,250 			"/>
			<linearGradient id="SVGID_5_" gradientUnits="userSpaceOnUse" x1="304.6663" y1="30.618" x2="91.1771" y2="284.4331">
				<stop  offset="0" style="stop-color:#9ECEDB"/>
				<stop  offset="1" style="stop-color:#7DB3E6"/>
			</linearGradient>
			<circle class="st5" cx="208.1" cy="145.4" r="175.9"/>
			<circle class="st6" cx="368" cy="227" r="60.9"/>
			<linearGradient id="SVGID_6_" gradientUnits="userSpaceOnUse" x1="739.1984" y1="258.9727" x2="626.2043" y2="393.3101">
				<stop  offset="0" style="stop-color:#9ECEDB"/>
				<stop  offset="1" style="stop-color:#93B3E6"/>
			</linearGradient>
			<circle class="st7" cx="682.7" cy="326.1" r="87.8"/>
			<linearGradient id="SVGID_7_" gradientUnits="userSpaceOnUse" x1="48.1099" y1="160.2166" x2="-32.9252" y2="256.5584">
				<stop  offset="0" style="stop-color:#9ECEDB"/>
				<stop  offset="1" style="stop-color:#93B3E6"/>
			</linearGradient>
			<circle class="st8" cx="7.6" cy="208.4" r="62.9"/>
			<linearGradient id="SVGID_8_" gradientUnits="userSpaceOnUse" x1="630.2236" y1="368.2257" x2="597.7422" y2="406.8424">
				<stop  offset="0" style="stop-color:#9ECEDB"/>
				<stop  offset="1" style="stop-color:#7DB3E6"/>
			</linearGradient>
			<circle class="st9" cx="614" cy="387.5" r="25.2"/>
			<linearGradient id="SVGID_9_" gradientUnits="userSpaceOnUse" x1="57.8295" y1="111.8614" x2="105.6902" y2="111.8614">
				<stop  offset="0" style="stop-color:#9ECEDB"/>
				<stop  offset="1" style="stop-color:#93B3E6"/>
			</linearGradient>
			<circle class="st10" cx="81.8" cy="111.9" r="22.9"/>
			<linearGradient id="SVGID_10_" gradientUnits="userSpaceOnUse" x1="232.1535" y1="425.7542" x2="410.6999" y2="425.7542">
				<stop  offset="0" style="stop-color:#9ECEDB"/>
				<stop  offset="1" style="stop-color:#93B3E6"/>
			</linearGradient>
			
				<rect x="259.3" y="363.6" transform="matrix(0.7071 0.7071 -0.7071 0.7071 395.1971 -102.5825)" class="st11" width="124.3" height="124.3"/>
			<linearGradient id="SVGID_11_" gradientUnits="userSpaceOnUse" x1="181.4994" y1="425.7542" x2="287.7814" y2="425.7542">
				<stop  offset="0" style="stop-color:#9ECEDB"/>
				<stop  offset="1" style="stop-color:#93B3E6"/>
			</linearGradient>
			<polygon class="st12" points="234.6,478.9 181.5,425.8 234.6,372.6 287.8,425.8 			"/>
			<linearGradient id="SVGID_12_" gradientUnits="userSpaceOnUse" x1="309.1136" y1="424.9403" x2="560.8144" y2="424.9403">
				<stop  offset="0" style="stop-color:#9ECEDB"/>
				<stop  offset="1" style="stop-color:#7DB3E6"/>
			</linearGradient>
			<polygon class="st13" points="435,550.8 309.1,424.9 435,299.1 560.8,424.9 			"/>
			
				<pattern  id="SVGID_13_" xlink:href="#Nueva_muestra_de_motivo_1" patternTransform="matrix(0.7071 0.7071 -0.7071 0.7071 -7829.1343 3599.1719)">
			</pattern>
			<circle class="st14" cx="546" cy="500" r="62.9"/>
			
				<pattern  id="SVGID_14_" xlink:href="#Nueva_muestra_de_motivo_1" patternTransform="matrix(0.7071 0.7071 -0.7071 0.7071 -7829.1343 3599.1719)">
			</pattern>
			<polygon class="st15" points="87.4,436.6 32.2,381.4 87.4,326.1 142.7,381.4 			"/>
			<linearGradient id="SVGID_15_" gradientUnits="userSpaceOnUse" x1="0" y1="54.5666" x2="472.247" y2="54.5666">
				<stop  offset="0" style="stop-color:#9ECEDB"/>
				<stop  offset="1" style="stop-color:#93B3E6"/>
			</linearGradient>
			<polygon class="st16" points="0,0 220.7,109.1 472.2,0 			"/>
			<linearGradient id="SVGID_16_" gradientUnits="userSpaceOnUse" x1="700.3584" y1="166.161" x2="723.8404" y2="166.161">
				<stop  offset="0" style="stop-color:#9ECEDB"/>
				<stop  offset="1" style="stop-color:#7DB3E6"/>
			</linearGradient>
			<circle class="st17" cx="712.1" cy="166.2" r="11.7"/>
			<line class="st18" x1="58.8" y1="304.9" x2="123.1" y2="278.1"/>
			<line class="st18" x1="691.7" y1="474.6" x2="756" y2="447.9"/>
			<line class="st18" x1="481.8" y1="375.7" x2="517.3" y2="360.9"/>
			<line class="st18" x1="77.9" y1="500" x2="113.4" y2="485.2"/>
			<line class="st18" x1="528.3" y1="326.1" x2="578.7" y2="305.2"/>
			<circle class="st18" cx="264.5" cy="255.2" r="5.2"/>
			<circle class="st18" cx="373.4" cy="419.3" r="5.4"/>
			<circle class="st18" cx="32.8" cy="44.5" r="10"/>
			<circle class="st18" cx="664.9" cy="441.9" r="4.8"/>
			<circle class="st18" cx="18.5" cy="418.1" r="4.2"/>
		</g>
	</g>
</g>
<g id="DESIGNED_BY_FREEPIK">
</g>
</svg>
