<?xml version="1.0" encoding="utf-8"?>
<!-- Generator: Adobe Illustrator 19.0.0, SVG Export Plug-In . SVG Version: 6.00 Build 0)  -->
<svg version="1.1" id="Layer_1" xmlns="http://www.w3.org/2000/svg" xmlns:xlink="http://www.w3.org/1999/xlink" x="0px" y="0px"
	 viewBox="0 0 1280 800" style="enable-background:new 0 0 1280 800;" xml:space="preserve">
<style type="text/css">
	.st0{fill:url(#XMLID_2_);}
	.st1{clip-path:url(#XMLID_3_);fill:url(#XMLID_5_);}
	.st2{clip-path:url(#XMLID_3_);fill:none;stroke:url(#XMLID_6_);stroke-miterlimit:10;}
	.st3{clip-path:url(#XMLID_3_);fill:none;stroke:url(#XMLID_7_);stroke-miterlimit:10;}
	.st4{clip-path:url(#XMLID_3_);fill:none;stroke:url(#XMLID_8_);stroke-miterlimit:10;}
	.st5{clip-path:url(#XMLID_3_);fill:none;stroke:url(#XMLID_9_);stroke-miterlimit:10;}
	.st6{fill:url(#XMLID_10_);}
	.st7{fill:none;stroke:url(#XMLID_11_);stroke-miterlimit:10;}
	.st8{fill:none;stroke:url(#XMLID_12_);stroke-miterlimit:10;}
</style>
<radialGradient id="XMLID_2_" cx="19.1281" cy="809.3442" r="1051.87" gradientTransform="matrix(1.5989 0 0 1 0 0)" gradientUnits="userSpaceOnUse">
	<stop  offset="0" style="stop-color:#0453E6"/>
	<stop  offset="0.4364" style="stop-color:#0476EF"/>
	<stop  offset="1" style="stop-color:#04A8FD"/>
</radialGradient>
<rect id="XMLID_4_" x="0" y="0" class="st0" width="1285.2" height="803.8"/>
<g id="XMLID_236_">
	<defs>
		<rect id="XMLID_242_" x="0" y="0" width="803.8" height="803.8"/>
	</defs>
	<clipPath id="XMLID_3_">
		<use xlink:href="#XMLID_242_"  style="overflow:visible;"/>
	</clipPath>
	<radialGradient id="XMLID_5_" cx="383.656" cy="616.3502" r="631.6867" gradientUnits="userSpaceOnUse">
		<stop  offset="0" style="stop-color:#0453E6"/>
		<stop  offset="0.4364" style="stop-color:#0476EF"/>
		<stop  offset="1" style="stop-color:#04A8FD"/>
	</radialGradient>
	<path id="XMLID_244_" class="st1" d="M560.2,1351.7c0,0,112.4-29.9,72.3-133.1c-40.1-103.3,9.5-98-119.5-207.8
		c-171.3-145.9,34.8-287.5-149.5-393.1C249.7,552.5,82.7,797.4,94,562c6.6-137.5-96.2-237.4-175.3-152.4c-79.1,85-122,830-122,830
		L560.2,1351.7z"/>
	<radialGradient id="XMLID_6_" cx="194.4756" cy="745.097" r="221.2245" gradientUnits="userSpaceOnUse">
		<stop  offset="0" style="stop-color:#0453E6"/>
		<stop  offset="0.4364" style="stop-color:#0476EF"/>
		<stop  offset="1" style="stop-color:#04A8FD"/>
	</radialGradient>
	<path id="XMLID_237_" class="st2" d="M478.9,823.1c0,0-67.3-219.9-119.3-193.4c-52,26.6-102.3-13.2-136.8-13.2
		c-34.5,0-161.6,55.1-194.4,70.4C-4.4,702.1-90,754.1-90,806.1C-90,858.1,436.1,919.2,478.9,823.1z"/>
	<radialGradient id="XMLID_7_" cx="751.3123" cy="712.9798" r="121.4331" gradientUnits="userSpaceOnUse">
		<stop  offset="0" style="stop-color:#0453E6"/>
		<stop  offset="0.4364" style="stop-color:#0476EF"/>
		<stop  offset="1" style="stop-color:#04A8FD"/>
	</radialGradient>
	<path id="XMLID_240_" class="st3" d="M829.8,593c0,0-46.9-34.3-70.9,10.3c-24,44.6-129.1,1.1-114.3,74.3
		c14.9,73.1,29.7,77.8,17.1,108c-12.6,30.2,77.7,57.7,96,59.9C776.1,847.8,920.1,735.8,829.8,593z"/>
	<radialGradient id="XMLID_8_" cx="779.6378" cy="727.8914" r="121.4329" gradientUnits="userSpaceOnUse">
		<stop  offset="0" style="stop-color:#0453E6"/>
		<stop  offset="0.4364" style="stop-color:#0476EF"/>
		<stop  offset="1" style="stop-color:#04A8FD"/>
	</radialGradient>
	<path id="XMLID_245_" class="st4" d="M858.2,607.9c0,0-46.9-34.3-70.9,10.3c-24,44.6-129.1,1.1-114.3,74.3
		c14.9,73.1,29.7,77.8,17.1,108c-12.6,30.2,77.7,57.7,96,59.9C804.5,862.7,948.4,750.7,858.2,607.9z"/>
	<radialGradient id="XMLID_9_" cx="824.668" cy="750.7466" r="121.433" gradientUnits="userSpaceOnUse">
		<stop  offset="0" style="stop-color:#0453E6"/>
		<stop  offset="0.4364" style="stop-color:#0476EF"/>
		<stop  offset="1" style="stop-color:#04A8FD"/>
	</radialGradient>
	<path id="XMLID_246_" class="st5" d="M903.2,630.8c0,0-46.9-34.3-70.9,10.3c-24,44.6-129.1,1.1-114.3,74.3
		c14.9,73.1,29.7,77.8,17.1,108c-12.6,30.2,77.7,57.7,96,59.9C849.5,885.6,993.5,773.6,903.2,630.8z"/>
</g>
<radialGradient id="XMLID_10_" cx="1112.1172" cy="501.2327" r="661.3987" gradientUnits="userSpaceOnUse">
	<stop  offset="0" style="stop-color:#04A8FD"/>
	<stop  offset="0.5636" style="stop-color:#0476EF"/>
	<stop  offset="1" style="stop-color:#0453E6"/>
</radialGradient>
<path id="XMLID_243_" class="st6" d="M705.8-145.7c0,0-91.4,71.9-13.8,150.9c77.7,79-43.2,158.2,118.7,208.1
	c215,66.3,119,301.6,330,325.8c130.4,14.9,222.7-364.3,305.5-143.6c48.3,128.9,227.1,89.5,231.4,3.6
	c4.9-98.6,223.2-85.6,231.2-154.7C1945.2-69.6,705.8-145.7,705.8-145.7z"/>
<radialGradient id="XMLID_11_" cx="1127.479" cy="210.8632" r="284.8999" gradientUnits="userSpaceOnUse">
	<stop  offset="0" style="stop-color:#0453E6"/>
	<stop  offset="0.4364" style="stop-color:#0476EF"/>
	<stop  offset="1" style="stop-color:#04A8FD"/>
</radialGradient>
<path id="XMLID_239_" class="st7" d="M786.4,21c0,0-56.6,77.3,61.1,185.5S839.9,363.6,950,397.2c110.1,33.6,171.3-204.9,253.9-113.2
	c82.6,91.8,186.6,82.6,208-3.1c21.4-85.6,70.4-221.8,70.4-221.8"/>
<radialGradient id="XMLID_12_" cx="1176.3528" cy="106.8661" r="284.8997" gradientUnits="userSpaceOnUse">
	<stop  offset="0" style="stop-color:#0453E6"/>
	<stop  offset="0.4364" style="stop-color:#0476EF"/>
	<stop  offset="1" style="stop-color:#04A8FD"/>
</radialGradient>
<path id="XMLID_247_" class="st8" d="M835.2-83c0,0-56.6,77.3,61.1,185.5s-7.6,157.1,102.5,190.7
	c110.1,33.6,171.3-204.9,253.9-113.2c82.6,91.8,186.6,82.6,208-3.1c21.4-85.6,70.4-221.8,70.4-221.8"/>
</svg>
