<?xml version="1.0" encoding="utf-8"?>
<!-- Generator: Adobe Illustrator 19.0.0, SVG Export Plug-In . SVG Version: 6.00 Build 0)  -->
<svg version="1.1" id="Layer_1" xmlns="http://www.w3.org/2000/svg" xmlns:xlink="http://www.w3.org/1999/xlink" x="0px" y="0px"
	 viewBox="0 0 510.4 434.2" style="enable-background:new 0 0 510.4 434.2;" xml:space="preserve">
<style type="text/css">
	.st0{fill:#F2F2F2;}
	.st1{opacity:0.5;}
	.st2{fill:#89C5CC;}
	.st3{fill:#69A1AC;}
	.st4{opacity:0.5;fill:#C1DEE2;enable-background:new    ;}
	.st5{fill:#C1DEE2;}
	.st6{fill:#D1B49D;}
	.st7{fill:#191847;}
	.st8{fill:#C5CFD6;}
	.st9{fill:#1F28CF;}
	.st10{fill:#2B44FF;}
	.st11{fill:#E4E4E4;}
	.st12{fill-opacity:0.1;}
	.st13{fill-opacity:0.4;}
</style>
<g id="Scene_x2F_Whiteboard">
	<path id="Background-Shape" class="st0" d="M7.2,358.9c12.6-65.1,140.6-28,224.5-48.2s183.2-113.9,248.9-68s-4.2,157-154.9,182
		C175,449.8-5.5,424,7.2,358.9z"/>
	<g id="Cells" transform="translate(95.000000, 125.000000)" class="st1">
		<path id="Fill-5" class="st2" d="M-54.4-70.3c-1.2,1.2-0.7,5.5-0.8,7.1c0,2.5,0.1,5,0.3,7.5c0.1,1.7,0.9,17.5,3.1,16.3
			c1.2-0.7,0.5-5.3,0.5-6.7c0-3.2-0.1-6.5-0.4-9.7c-0.2-3-0.3-5.9-0.2-8.9C-51.8-65.5-51.1-73.6-54.4-70.3"/>
		<path id="Fill-7" class="st2" d="M-1.2-72.3c-10.5,0.1-21,0.6-31.4,0.9c-5,0.2-10.1,0.3-15.1,0.6c-1.7,0.1-5.4-0.5-6.8,0.5
			c-3.2,2,1.9,2.5,3.3,2.5c20.7-0.8,41.5-1.7,62.2-1.8c10.2,0,20.4,0.3,30.5,0.2c3.9,0,8.2-1.7,9.2,2.8c1.1,5.1-0.2,10.8-0.5,15.9
			c-0.2,3.4-0.1,6.8,0,10.2c0.1,2.2-0.2,4.7,0.2,6.8c0.4,2.1,1.9,3.3,3.2,1c0.8-1.4,0.4-4.8,0.5-6.4c0.1-2.2,0-4.3,0-6.5
			c0-5.3,0.7-10.6,0.6-15.8c-0.1-3.4-0.2-9.6-4.5-10.4c-4.7-0.9-10.6,0-15.4-0.1C22.7-72,10.8-72.4-1.2-72.3"/>
		<path id="Fill-9" class="st2" d="M-30.1-39.2c-4,0-7.9,0-11.9,0.1c-3.4,0.1-8.7-0.7-11.9,0.6c-2.2,0.8-2.7,3.2,0,3.9
			c3,0.7,7.5-0.4,10.6-0.5c15.6-0.3,31.4-0.6,47,0.4C18.4-33.9,33.3-33,48-34c1.2-0.1,7.5-0.3,4.7-2.7c-1.7-1.4-8.5-0.5-10.6-0.5
			c-7.7-0.2-15.4-0.3-23-0.6c-7.6-0.3-15.1-1.1-22.7-1.3C-12.5-39.4-21.3-39.2-30.1-39.2"/>
		<path id="face" class="st2" d="M-34.1-61.7c6.2,0.3,12.3,9.2,6,13.5c-5.8,4.1-16.8-0.4-13.6-8.2c-0.5,1.1,0.6-1.2,0.6-1.2
			c0.6-0.7,1.7-1.5,2.5-2.1c0.9-0.7,1.8-1.4,2.8-1.7C-35-61.7-35.1-60.9-34.1-61.7 M-37.1-64.9c-2.9,1.1-4.2,2.4-6.2,4.7
			c-1.4,1.6-3.1,2.4-3.1,4.6c0,0.5,0.6,1,0.7,1.5c0.1,0.6,0,1.4,0.1,2.1c1.2,6.9,9.5,9.3,15.5,8c5.3-1.1,9.2-6.2,8-11.7
			C-23.2-61.4-31.5-67.1-37.1-64.9"/>
		<path id="Fill-13" class="st2" d="M-39.7-55.2c0,2.5,3.9,2.5,3.9,0C-35.7-57.7-39.7-57.8-39.7-55.2"/>
		<path id="Fill-15" class="st2" d="M-34.7-55.7c0,2,3.1,2,3.1,0C-31.6-57.7-34.7-57.8-34.7-55.7"/>
		<path id="Fill-17" class="st2" d="M-33.7-51.7c-1,0.4-2.3-0.4-3.1,0.1c-1.5,0.9,0,1.8,0.8,2.2C-32.5-47.7-31.9-52.4-33.7-51.7"/>
		<path id="Fill-19" class="st2" d="M20-57.2C19.9-57.1,19.6-57,20-57.2 M4.7-59.4c-2.6,0.6-4.9,3.1-7.7,2.7
			c-2.2-0.3-3.7-2.4-5.8-2.7c-2.8-0.4-10.3,5.9-6.3,7c2.3,0.6,3.6-3.6,5.6-3.8c1.6-0.2,3.8,1.8,5.5,2.1c3.1,0.5,5.3-1.2,8-2.3
			c3-1.2,4.7-0.1,7.3,1.2c2,1.1,4,1.7,6.3,1.3c2.2-0.4,5-2.7,7.2-2.4c2.2,0.2,3.7,2.5,5.9,2.7c0.9,0.1,2.3,0.4,2.1-1
			c-0.1-1.1-1.4-0.9-2.2-1.4c-2-1.1-3.9-2.9-6.4-2.8c-1.9,0.1-3.5,1.4-5.2,2C13.4-54.7,10.2-60.7,4.7-59.4"/>
		<path id="Fill-21" class="st3" d="M9.4-23.5c-10.8,0.1-21.6,0.3-32.3,1.1c-2.5,0.2-28.6,2.7-28.5,2.8c0.1,0.3,3.4,0.8,3.4,0.9
			c-0.2-0.6-0.7-0.8-1.5-0.7c24.7,0,49.2-2.2,73.9-1.8C30.6-21,36.8-21,43-20.8c1.5,0,5.4,1.2,6.6,0.5c3.2-1.8-2.6-2-3.6-2.1
			C33.9-23.5,21.6-23.6,9.4-23.5"/>
		<path id="Fill-23" class="st3" d="M-54.7-18.2c-1.6,1.6-0.1,7.4-0.1,9.6c0.1,3.2,0,6.3,0.3,9.5c0.3,3.6,0.8,7.4,1.8,10.9
			c0.5,1.9,2.3,5,3.1,1.5c0.5-2.5-0.3-5.8-0.5-8.3c-0.4-3.4-0.5-6.8-0.5-10.2c0-3-0.1-6-0.3-8.9C-51.1-15.7-51.8-21-54.7-18.2"/>
		<path id="Fill-25" class="st3" d="M-14.1,11.4c-7.6,0.1-15.3,0.3-22.9,0.8c-3.1,0.2-6.3,0.5-9.4,0.8c-0.6,0.1-7.7,0.4-4.5,3
			c1.4,1.2,7.3-0.4,9.2-0.6c3.2-0.3,6.5-0.5,9.7-0.6c7.5-0.3,15.1-0.6,22.6-0.5c13.8,0.2,27.5,0.3,41.3,0c2,0,17.3,0.4,17.8-1.7
			c0.4-1.6-5.1-0.9-6.1-0.9c-3.7,0.1-7.3,0.1-11,0.1C17,11.7,1.4,11.1-14.1,11.4"/>
		<path id="Fill-27" class="st3" d="M47.1-21c0.2,6.8,1.4,13.6,1.8,20.4c0.2,3.1,0.4,6.2,0.5,9.4c0,1-0.4,3.4,0.8,4
			c1.6,0.8,1.9-0.8,2.2-1.9c0.9-3.1,0.3-7.2,0.2-10.4c-0.1-3.1-0.1-6.2-0.3-9.3c-0.2-3.2-0.9-6.3-1.2-9.4c-0.1-1.3,0.3-3.6-1.1-4.4
			C48.8-23.3,47-22.4,47.1-21"/>
		<path id="face_1_" class="st3" d="M-28.1-9.6C-28-9.6-28-9.6-28.1-9.6C-28-9.6-28-9.6-28.1-9.6 M-34.6-11.6
			c2.4,0.7,4.4,0.4,6.7,2.2c1.9,1.5,3.9,3.6,4.5,6C-21.8,2-26.8,5-31.5,5c-4.8,0.1-11.9-1-11.6-7.2C-42.9-6.9-39.5-11.5-34.6-11.6
			 M-34.4-14.7c-6.3,0.3-11.3,7.4-11.3,13.3c0.1,7.2,8.2,9.1,14,9.1c6.5,0.1,13.1-4.5,11.3-11.8C-21.8-10-28.3-15-34.4-14.7"/>
		<path id="Fill-31" class="st3" d="M-40.7-5.1c0,2,3.2,2,3.2,0C-37.5-7.1-40.7-7.1-40.7-5.1"/>
		<path id="Fill-33" class="st3" d="M-34-6c0,2,3.2,2,3.2,0C-30.9-8-34-8-34-6"/>
		<path id="Fill-35" class="st3" d="M-37.7-1.4c-2.1,2.1,5.2,5.7,6.9,2.8c1.4-2.4-1.7-1.6-2.7-1.7C-34.7-0.4-36.8-2.3-37.7-1.4"/>
		<path id="Fill-37" class="st3" d="M20.3-5.9C20.1-5.8,20.1-5.8,20.3-5.9 M-7-9.3c-2.1,0.4-8.9,2.7-9,5.2c-0.2,4.5,6.5-0.1,8-0.7
			c4-1.6,6,1.7,10,1.8c3.5,0.2,6.6-2.8,9.9-2.5c3.4,0.4,5.1,4,9,2.1c2.1-1,2-2.6-0.3-2.7c-1.4-0.1-2.4,0.5-3.9-0.1
			c-2.3-1-3.2-2.5-6-2.3c-2.1,0.2-4,1.4-6,1.8C0.1-5.6-2.5-10.1-7-9.3"/>
		<path id="point" class="st3" d="M36.3-4C36.2-3.9,36.2-3.9,36.3-4 M36.8-5.8C36.9-5.8,37-5.6,36.8-5.8 M34.4-7.3
			C34.3-7.2,34.3-7.2,34.4-7.3 M34.5-7.3C34.9-7,38.7-4.4,36-3.8C34.6-3.5,33.5-6.3,34.5-7.3 M33.2-10.1c-6,2.7,0.5,12.5,5.2,8.5
			c2-1.7,2.2-5,0.3-6.8C37.6-9.4,34.8-10.8,33.2-10.1"/>
		<path id="Fill-41" class="st2" d="M-22.9,28.4c-7.5,0-15-0.2-22.5,0.3c-1.3,0.1-6-0.2-6.7,1.1c-1.2,2.4,3.7,1.2,4.4,1.1
			c14.8-1.5,30.4-0.6,45.2-0.2c12.2,0.3,24.3,0.6,36.5,1.2c3.2,0.2,6.4,0.3,9.6,0.5c1,0.1,3.7,0.8,3.9-0.9c0.2-1.5-3.1-1.2-3.9-1.2
			c-6.5-0.3-13-0.7-19.5-1.1C8.6,28.4-7.3,28.4-22.9,28.4"/>
		<path id="Fill-43" class="st2" d="M-52.3,31c-1.4,1.4-0.7,6.7-0.8,8.4c-0.1,3.1-0.2,6.1-0.3,9.2c-0.1,3.2,0,6.4,0.2,9.6
			c0.1,1.3,1.2,7.8,2.9,4.1c0.8-1.7,0-6.3,0-8.1c0-3.4,0.2-6.8,0.4-10.2c0.1-2.9,0.2-5.9,0.3-8.8C-49.5,34.2-49.4,28.1-52.3,31"/>
		<path id="Fill-45" class="st2" d="M48.8,58.4c-7.3,0.7-14.6,0.4-21.9,0.9C20.6,59.8,14.3,60,8,60.1c-14.3,0.3-28.6,0.6-42.8,1.8
			c-3.2,0.3-6.5,0.6-9.7,0.7c-1.6,0.1-8.4-0.7-9,1c-0.9,2.9,6.4,1.8,8,1.7c3.5-0.1,6.9-0.4,10.4-0.6c14.5-1.1,29.1-1.4,43.6-1.9
			c7.9-0.2,15.8-0.8,23.6-1.4C36.1,61.2,40,61.2,44,61c1-0.1,4.7,0.1,5.4-0.8C49.9,59.6,50,58.2,48.8,58.4"/>
		<path id="Fill-47" class="st2" d="M46.4,31.5c0.2,7,0.6,13.9,0.9,20.9c0.1,2.1-0.6,5.9,0.6,7.7c1.9,3,3.3-0.2,3.7-2
			c1.1-5.8-0.1-12.3-0.4-18.2c-0.1-2.2,0.6-7.2-0.5-9.2C49.6,28.8,46.3,29,46.4,31.5"/>
		<path id="hola-:_x29_" class="st2" d="M34.2,41.4c2.8,0.8,3.2,6.8,0,7.3C29.6,49.4,31.6,42.7,34.2,41.4 M33.4,39
			c-0.8,0-2.8-0.3-3.3,0.4c-0.4,0.6,0,1.8,0,2.3c-0.2,2-1.8,3.1-1.1,5.4c0.5,1.6,1.8,3.1,3.4,3.6C40.7,53.7,40.6,37.6,33.4,39"/>
		<path id="Fill-51" class="st2" d="M-42.1,40.1C-42.1,40.2-42.2,40.2-42.1,40.1C-42.2,40.2-42.1,40.2-42.1,40.1 M-35.6,36.6
			c0-0.3-0.1-0.6-0.1-0.8c4.5,2.1,8.1,6.1,6.6,11.5c-1.1,4.1-5.3,5.5-9.2,4.5c-4.3-1.1-6.3-4.6-5.2-9c0.5-2,2.2-4.7,4.3-5.3
			C-38.1,37.2-35.9,37.9-35.6,36.6 M-38.2,34.9c-1.1,0.1-2.3,0.6-3.2,1.2C-40.5,35.4-39.4,35-38.2,34.9 M-38.2,32.3
			c-2.8,0.1-4.7,1.8-6.4,3.9c-0.5,0.6-2.3,2.4-2.1,3.2c0.2,0.7,0.6,1.7,1.6,0.9c-5,10,8,18.6,15.9,11.6
			C-21.7,45.4-29.1,32-38.2,32.3"/>
		<path id="Fill-53" class="st2" d="M-40.8,41.6c0,1.3,2.1,1.3,2.1,0C-38.7,40.3-40.8,40.3-40.8,41.6"/>
		<path id="Fill-55" class="st2" d="M-37.2,41.9c0,1.4,2.1,1.4,2.1,0C-35.1,40.5-37.2,40.5-37.2,41.9"/>
		<path id="Fill-57" class="st2" d="M-35.6,46.6c-1,0.1-4.6-0.3-5.2,0.6c-1.1,1.4,0.6,1.5,1.5,1.7c0.7,0.1,4,0.1,4.5-0.6
			C-34.5,47.7-34.6,46.5-35.6,46.6"/>
		<path id="Fill-59" class="st2" d="M7.9,42.9C7.8,43,7.8,43,7.9,42.9 M-5.7,41.9c-2.2,0.2-4.1,1.4-6.2,2c-2.3,0.5-3.3-0.5-5.3-1.1
			c-2.1-0.7-3.7-0.4-5.4,1.1c-1,0.8-3.1,2.7-2.5,4.2c1.4,3.4,4.6-2.1,6.1-2.4c2.3-0.4,4.4,1.6,7.1,1.1c2.4-0.5,4.6-2.2,7.1-2.2
			c2.1,0,4.1,1.1,6.2,1.4c3.2,0.4,5.3-0.7,8.3-1.5c2.6-0.7,4.4,0.2,6.8,1c1.1,0.4,4.8,1.7,4.1-0.7c-0.2-0.7-5-1.9-5.8-2.2
			C12,41.7,10.3,42,7.8,43c-2.1,0.8-3.9,1.2-6.1,0.8C-0.8,43.2-3.1,41.7-5.7,41.9"/>
	</g>
	<g id="Big-Cards" transform="translate(287.000000, 64.000000)" class="st1">
		<path id="Fill-67" class="st3" d="M-95.4-9.1c0.4-7.7,0.9-15.4,1.1-23.2c0.1-3.8,0.2-7.7,0.3-11.5c0-0.9,0-1.7,0.1-2.6
			c0.1-2.9-0.3-3.1,2.6-3.4c13-1.1,26.1-1.5,39.1-2.6c15.7-1.3,31.5-2.1,47.2-2.5c7-0.2,14-0.5,21-0.3c1.6,0,4.6-0.4,5.2,0.9
			c0.3,0.5-0.3,2.3-0.4,2.9c-0.2,1.9-0.4,3.8-0.6,5.6c-0.7,11.1-0.3,22.5,1.9,33.5C17.2-15,10.8-17.5,4.9-17c-6,0.5-10.5,4-15.3,7.2
			C-13.1-8-14-7.5-16.7-9.3c-2.3-1.5-4.6-3.2-6.8-4.9c-3.4-2.6-6.6-5.4-9.9-8.2c-6.1-5-14.4-12.2-22.8-10.1c-6,1.5-11.5,4.8-16.7,8
			C-80.7-19.7-87.7-13.8-95.4-9.1 M8.7-58.5c-29.8,0-59.5,2.9-89.2,4.5c-3.1,0.2-6.2,0.4-9.3,0.7c-2.1,0.2-7.1-0.6-8.5,1.1
			c-0.9,1.2-0.1,1.4,0,2.5c0.2,1.4,0.1,3.1,0,4.6c-0.1,3.6-0.2,7.2-0.3,10.8c-0.3,13.6-0.5,27.2,0,40.7c0.1,3,1.2,7.1,0.6,9.9
			c-0.4,2.1-1.9,3.4,1.4,3.7c3.2,0.4,7.2-0.6,10.5-0.9c3.3-0.3,6.5-0.6,9.8-0.9c14.2-1.2,28.6-1,42.8-1.4
			c14.4-0.4,28.8-0.4,43.1-0.4c6,0,12.9,0.3,18.8-1.3c2.1-0.6,2.4-0.9,1.9-2.9c-0.1-0.4-0.7-0.5-0.9-1.2c-0.2-1-0.1-2.1-0.2-3.1
			c-0.2-3.3-0.3-6.5-0.4-9.8C28.6-7.4,27.7-12.7,27-18c-0.8-6.2-0.8-12.5-0.8-18.8c0-3.5,0.1-6.9,0.4-10.4c0.2-2.2,1.3-5.5,0.7-7.6
			c-0.3-1-0.7-1.8-1.8-2.3c-0.7-0.3-1.3-0.1-1.9-0.1c-0.8-0.1-1.3-0.2-2.2-0.4C17.2-58.6,12.9-58.5,8.7-58.5"/>
		<path id="Fill-69" class="st2" d="M-7.8-43.7c0,2.2-0.3,5.4,0.7,7.4c1.3,2.6,2.8,1.8,3.3-0.7c0.2-1.4,0.2-5.5-0.2-6.7
			C-4.7-45.5-7.8-46.6-7.8-43.7"/>
		<path id="Fill-71" class="st2" d="M-4.2-42.9c-2,0.1-7.9-0.4-9.3,1.2c-2.4,2.8,1.7,3.3,3.5,3.1c2-0.2,8.3,0.3,9.7-1.4
			C2-42.6-2.6-42.9-4.2-42.9"/>
		<path id="Fill-73" class="st2" d="M-83,29.4c8.9,1.6,6.1,15.2-2.3,12c-2.9-1.1-7.3-4.3-5.7-8C-89.7,30.6-85.7,29.1-83,29.4
			 M-86.7,25.1c-5.8,1-9.8,7.3-7.8,12.7c1.9,5.3,9.2,9.2,14.6,7.3c5.1-1.8,7.7-8.6,6-13.6C-75.7,26.3-81.6,24.3-86.7,25.1"/>
		<path id="Fill-75" class="st2" d="M-32.4,31c-2.2,0.2-4.1,1.7-6.4,2c-2.1,0.3-3.8-0.5-5.8-1c-2.4-0.7-4.5-1-7-0.4
			c-1.8,0.5-3.7,1.7-5.6,1.9c-3.8,0.3-8.2-4-11.1,0.9c-1.4,2.3,0.6,3.8,2.8,2.8c2.2-1.1,1.1-1.5,3.9-0.9c2.3,0.6,4.1,0.9,6.4,0.1
			c2.1-0.7,3.9-2,6.1-2.2c2.2-0.1,4.1,0.9,6.2,1.3c2.6,0.5,4.9,0.1,7.3-0.7c2.3-0.8,3.3-1.2,5.6-0.5c1.5,0.4,4.7,1.8,6.2,0.7
			c2.5-1.9-0.9-2.2-2.2-2.5C-28,32-30.2,30.8-32.4,31"/>
		<path id="Fill-77" class="st2" d="M18.5,29.7C18.5,29.7,18.5,29.7,18.5,29.7C18.5,29.7,18.5,29.7,18.5,29.7 M16.3,29.2
			c3.2,0.2,6.8,6.1,2.5,6.3C15.7,35.7,12.3,30.5,16.3,29.2 M15.8,24.4C5.6,27.2,10.3,41.7,20.2,40c4.5-0.8,6-6,4.5-9.8
			c-0.6-1.7-1.9-3.1-3.4-4C20.2,25.5,17.1,24,15.8,24.4"/>
		<path id="Image-Border" class="st3" d="M-94.5,116.8c-0.3-1.3-0.1-3.4-0.2-3.9c-0.1-2.2-0.1-4.5-0.2-6.7c-0.2-5.3-0.3-10.7-0.7-16
			c-0.4-5.1-1.4-10-1.4-15.1c0-3.5-1-12.2,2-14.5c5.2-3,3.1,7.7,3.1,9.5c-0.3,5.6,0.1,10.9,0.7,16.4c0.5,5.1-0.1,10.1-0.3,15.2
			c-0.1,2.7-0.2,5.4-0.4,8.1c-0.1,0.8,0,4.6-0.4,6.6c1.1,0,2.2,0,2.8,0c4.2-0.1,8.4-0.2,12.6-0.4c16.2-0.6,32.4-0.3,48.6-1.1
			c15.3-0.7,30.7-0.9,46-1.1c1.3,0.1,1.9,1.5,1.1,2.6c-0.8,1.1-4.7,0.8-6,0.9c-4.3,0.3-8.6,0.5-12.9,0.5c-9.1,0.1-18.2,0.5-27.3,1
			c-16.2,0.9-32.4,0.8-48.5,1.5c-3.9,0.2-7.9,0.3-11.8,0.4c-2.1,0.1-7.5,1.3-8.5-1.2C-97,118-95.9,117.2-94.5,116.8z M-4.9,53.9
			c4.9,0,9.8,0,14.7,0.3c2.2,0.1,4.3,0.2,6.5,0.3c1.3,0.1,4.1-0.4,5.2,0.2c4.3,2.3-4.5,2.5-5.5,2.5c-4.5-0.1-9-0.4-13.5-0.5
			C-14,56.3-30.7,57.3-47.2,58c-7.9,0.3-15.9,0.4-23.8,0.8c-4.3,0.2-8.7,0.5-13,0.8c-2,0.1-4,0.2-6,0.3c-1.2,0-3.7,0.5-4.9,0.1
			c-1-0.4-1.8-1-1.2-2.1c0.6-1.3,3.1-0.7,4.1-0.7c3.8-0.1,7.6-0.3,11.4-0.5c8.7-0.5,17.3-1.1,26-1.3C-38,54.9-21.5,54-4.9,53.9z
			 M17.8,59.5c0-2.3,2.7-2.7,3.9-1.2c1.2,1.5,0.4,5.9,0.4,7.7c0.1,5.8,0.6,11.6,1.2,17.4c0.5,5.7,0.9,11.5,1.3,17.2
			c0.2,2.7,2.2,13.3-0.7,14.8c-3.8,2-3.1-8.1-3.2-9.9c-0.3-5.9-0.8-11.8-1.3-17.7C18.5,78.3,17.8,69,17.8,59.5z"/>
		<path id="Image-X" class="st2" d="M-32.2,86.8c5.2,1.8,10.4,3.8,15.5,5.8c2.8,1.1,5.5,2.2,8.2,3.2c1.4,0.5,7.1,1.9,7.4,3.3
			c0.5,1.9-5.6-0.4-6.6-0.8c-2.7-0.9-5.4-1.9-8.1-2.8c-6.1-2.2-12.1-4.4-18.1-6.5c-0.6-0.2-1.1-0.4-1.7-0.6
			c-6.4,2.9-12.9,5.8-19.3,8.8c-3.4,1.6-6.9,3.2-10.3,4.9c-2.5,1.2-7.1,4.7-9.9,4.7c-1.1,0-1.8-0.2-1.9-1.5
			c-0.1-1.6,2.5-2.3,3.6-2.8c3.6-1.8,7.3-3.6,11-5.4c7.3-3.5,14.7-6.8,22.1-10.1c0,0,0.1,0,0.1-0.1c-4.1-1.4-8.2-2.7-12.3-4.1
			c-2.4-0.8-18.9-4.8-18.3-7c0.7-2.5,15.3,3.3,17.6,4.1c5.5,1.8,11.1,3.6,16.6,5.5C-23.5,79.3-10.2,73,3.6,68.6
			C4.4,68.4,5,69.3,4.8,70c-0.3,1-3.4,1.8-4.2,2.2c-3.4,1.5-6.8,3-10.2,4.5c-7.4,3.3-14.8,6.6-22.2,9.9
			C-31.9,86.7-32.1,86.7-32.2,86.8z"/>
		<path id="Fill-117" class="st2" d="M-81,128.3c3.4,0.6,5.8,3.8,5.4,7.2c-0.5,4.6-5.1,6.7-9.3,6.1c-4.8-0.7-5.8-4.7-3.5-8.6
			c0.5-0.9,1.1-1.9,2-2.3c0.6-0.3,1.5,0,2-0.3C-82.6,129.5-83.7,128.1-81,128.3 M-82.5,125.3c-4.1,0.5-11.7,5.3-11.3,10.1
			c0.3,0.6,0.8,0.8,1.5,0.7c-0.2,1-0.1,2.1,0.2,3.1c0.4,1.3,1.2,2.4,2.2,3.2c2.2,1.8,5.1,2.2,7.8,1.9c5-0.6,9-4,9.2-9.2
			C-72.7,130-77.2,124.6-82.5,125.3"/>
		<path id="Fill-119" class="st2" d="M-62.6,131.5c-1.8,1-4.8,2.5-5.9,4.3c-1.1,2,0,4.1,2.5,3.2c1.9-0.7,3.1-3.1,5.2-3.8
			c1.8-0.7,2.5-0.3,4.4,0.3c2,0.7,3.7,1.3,5.8,1.2c2.7-0.2,5-1.8,7.6-2.1c2.2-0.3,4,0.6,6.1,0.9c2.4,0.4,4-0.5,6.3-1
			c1.6-0.3,4.3,1,5.4,0.5c2.5-1.1-0.1-2.5-1.6-2.9c-2.4-0.8-3.8-0.1-6.1,0.5c-2.5,0.7-3.5,0.2-5.9-0.5c-4.7-1.3-8.4,1.8-12.9,1.2
			C-55.7,132.9-58.2,129.2-62.6,131.5"/>
		<path id="Fill-121" class="st2" d="M15,129.2c4.6,4.3-0.6,10.4-5.6,7c-1.8-1.2-1.8-3.1-0.4-4.9C10.3,129.7,13,129.1,15,129.2z
			 M13.3,125.8c-4.3,0.8-8.3,2.8-8.7,7.7c-0.4,4.8,4.6,7,8.7,6.7C22.7,139.5,22,124.1,13.3,125.8z"/>
	</g>
	<path id="Fill-79" class="st4" d="M401.5,30.1c-3.4,0.1-11.8,1.3-13.1,5.3c-1,3.1,1.9,2.4,3.4,1.3c2-1.5,3.8-2.4,6.4-2.9
		c9.7-1.7,19,4.5,28.6,5.3c3.6,0.3,8,0.5,11.5-0.7c2.5-0.8,2.8-2.7,0-2.9c-2.4-0.2-5,0.5-7.5,0.5C420.5,36,411.5,29.9,401.5,30.1"/>
	<g id="Cards" transform="translate(44.000000, 343.000000)" class="st1">
		<path id="Fill-173" class="st2" d="M-1.4-121c-6.5,0.1-13.1,0.3-19.6,0.7c-6.2,0.4-12.9,0.1-19,1.3c-1.7,0.3-4.1,1.9-1.8,3.7
			c1.6,1.2,7.5-0.2,9.5-0.3c7.1-0.4,14.2-1,21.4-1.2c6.7-0.2,13.5-0.3,20.3-0.4c1,0,2.7-0.3,3.8,0c1.5,0.4,1.1,0.5,1.2,2.4
			c0.2,3.4,0.1,6.8,0.1,10.2c-0.1,3.3-0.2,6.6-0.2,9.9c0,2.3-0.7,7,0.4,9c1.7,2.9,3.5-0.3,3.6-2.2c0.2-3.7,0.1-7.5,0.1-11.2
			c0-3.5,0-7-0.1-10.5c-0.1-2.5,0.3-6.9-1.1-9.2c-1.4-2.3-4.7-1.8-7.2-1.9C6.3-121.1,2.4-121.1-1.4-121"/>
		<path id="Fill-171" class="st2" d="M-42.9-116.8c0,6.6-0.8,13.1-1,19.7c-0.1,3-0.3,6.3,0.5,9.3c0.8,3,3.2,3.6,3.5,0.3
			c0.6-6.8,0.4-13.8,0.9-20.6c0.2-2.4,1.2-6.8,0.2-9.1C-39.7-119.2-42.9-119.6-42.9-116.8"/>
		<path id="Fill-175" class="st2" d="M18.3-87.8c-11.3,1.5-23.2,1-34.6,1.2c-5.5,0.1-11,0.1-16.4,0.2c-1.9,0-6.8-0.7-8.4,0.4
			c-2.6,1.7,0.2,3,2,3.1c10.8,0.2,21.8-0.3,32.6-0.6c4.9-0.2,9.7-0.2,14.6-0.7c3-0.3,6.2-0.5,9.1-1.3c0.6-0.2,2-0.1,2.1-1
			C19.3-87.1,19.1-87.9,18.3-87.8"/>
		<path id="Fill-177" class="st2" d="M-28.8-78.2c-3.2,0-12.7-1.4-14,1.6c-1.7,4.1,5.1,3.1,6.9,3.1c4.1-0.1,8.3-0.1,12.4-0.1
			c4.1,0,8.1,0,12.2-0.1c1.2,0,3.9,0.5,4.6-1c0.5-1.1,0.1-1.9-0.8-2.5c-2.3-1.4-8.2-0.6-10.9-0.7C-21.9-78.1-25.4-78.2-28.8-78.2"/>
		<path id="Fill-179" class="st2" d="M9.5-77.5c-1.8,0.1-5.4-0.6-7.1,0.2c-1.8,0.9-1.2,2.4,0.4,3.1c1.1,0.4,5.6,0.2,6.7-0.3
			C10.6-75.1,11.9-77.6,9.5-77.5"/>
		<path id="Fill-181" class="st2" d="M29.3-116.2c-1.9,0.5-1.3,11.5-1.4,13.2c-0.1,4.7-0.7,10.7,0.9,15.3c1,2.9,2.9,2.5,2.6-0.5
			c-0.3-2.7-0.8-5.4-1-8.1c-0.5-6.1-1.1-12.7-0.7-18.8c0.2,0.4,2,3.7,2.5,3.4C32-111.6,30.1-116.4,29.3-116.2"/>
		<path id="Fill-183" class="st2" d="M50.9-120.2c-3.9,0.1-7.8,0.1-11.7,0.2c-3.1,0.1-8-0.4-10.8,0.9c-3.4,1.6-1.8,5,1.4,5.1
			c2.8,0.1,5.8-0.6,8.6-0.7c7.7-0.3,15.3-0.3,23-0.4c6.9-0.1,14.2,0.7,21-0.4c1,9-1.7,18.1-0.8,27.3c0.1,1.4,0.1,3.4,1.9,3.8
			c2.3,0.4,2.4-1.9,2.5-3.5c0.2-4.6,0.1-9.2,0.5-13.9c0.3-4.3,0.9-8.7,0.4-13c-0.6-5.3-3.2-4.9-7.7-5.1
			C69.8-120.2,60.4-120.3,50.9-120.2"/>
		<path id="Fill-185" class="st2" d="M37.9-88.1c-2,0.1-5.3-0.6-6.6,1.3c-1.3,2,0.2,3.7,2.2,4.1c2.3,0.5,5.2-0.2,7.6-0.2
			c2.5,0,4.9,0,7.4,0c10.6,0,21.2,0.2,31.7-0.2c1.5-0.1,5.7,0.4,6.7-1c0.9-1.3,0.3-2.4-0.9-3c-2-1-6-0.6-8.1-0.7
			c-2.7-0.1-5.4-0.1-8.1-0.2C59.1-88.1,48.5-88.3,37.9-88.1"/>
		<path id="Fill-187" class="st2" d="M46.8-78.9c-3.9,0.1-8.2-0.1-12.1,0.5c-3.4,0.5-3.9,3.9-0.2,4.2c3.4,0.4,7.5-0.3,10.9-0.5
			c1.2-0.1,2.6,0,3.2-1.3C49.3-77.4,48.2-78.8,46.8-78.9"/>
		<path id="Fill-189" class="st2" d="M76.7-78.6c-2.1,0.1-8.3-0.9-9.3,1.6c-1.7,4,6.6,2.5,8.2,2.4c2-0.1,9.9,1.1,9.9-2.1
			C85.4-79.8,78.6-78.6,76.7-78.6"/>
		<path id="Fill-191" class="st3" d="M-43.3-58.6c0,7.3-0.4,14.7,0.2,21.9c0.3,3,0.2,8.8,2,11.3c1.2,1.8,3,1.7,3.6-0.5
			c0.5-1.5-0.3-4.4-0.4-5.9c-0.1-1.5-0.2-3-0.2-4.5c-0.2-3.8-0.2-7.7-0.1-11.5c0-3.3,0.8-7.7,0.1-10.8
			C-38.8-61.6-43.3-62.3-43.3-58.6"/>
		<path id="Fill-193" class="st3" d="M30-65.1c-12.7,0.3-25.3,0-38,0.7c-6.2,0.3-12.4,1-18.6,1.7c-3,0.3-6.1,0.7-9.1,1
			c-0.9,0.1-8.5,0.4-5.7,3.3c1.3,1.3,5.2-0.1,6.8-0.2c3.1-0.4,6.1-0.7,9.2-1c5.8-0.6,11.6-1.2,17.5-1.5c13.8-0.8,27.6-0.5,41.4-1
			c3.7-0.1,7.4-0.2,11.2-0.1c1,0,8.2,0.4,5.1-2.3c-1.5-1.3-7-0.6-8.9-0.6C37.2-65.3,33.6-65.2,30-65.1"/>
		<path id="Wireframy-Stuff" class="st3" d="M49.7-26.6C49.7-26.6,49.7-26.6,49.7-26.6c-0.7,1-3.2,0.7-4.4,0.8
			c-3.4,0.2-6.7,0.6-10.1,1.1c-6.7,1-13.4,1.6-20.1,1.8c-13.4,0.3-26.9,0-40.2,0.9c-3,0.2-5.9,0.6-8.8,1.1c-2.1,0.4-6.1,1.8-6.3-1.7
			c-0.3-4.1,10.1-4.1,13.1-4.4c12.8-1.2,25.7-0.9,38.6-0.8c6.2,0.1,12.4,0.3,18.6-0.1c6.2-0.4,12.6-0.3,18.7-0.9
			c-0.8-3.1-0.7-6.9-0.9-10c-0.6-8-0.4-16.1-0.8-24.2c-0.2-3.5,4.7-4.1,6.1-1.2c1.4,2.9,0.5,8.7,0.6,11.9c0.2,7.4,1.6,15.8,0.1,23.1
			C53.3-26.5,51.2-25.2,49.7-26.6z"/>
		<path id="Fill-199" class="st5" d="M57.5-60.3c-1.7,0.2-3.1,1.7-2.4,3.6c1,2.3,3.8,1.4,5.7,1.3c6-0.5,12.3,0.5,18.2-0.2
			c1.6-0.2,4-1.1,2.5-3.3c-1.1-1.6-5.1-1.4-6.8-1.5C69-61,63.3-60.9,57.5-60.3"/>
		<path id="Fill-201" class="st5" d="M67.7-50.1c-2.3,0.2-7.8,0-8.7,2.7c-1.8,4.8,5.1,3.1,7.2,2.8c2.4-0.3,8.2,0.5,9.5-1.8
			C78-50.7,69.7-50.2,67.7-50.1"/>
		<path id="Fill-203" class="st5" d="M61.7-39.7c-1.1,1.1-1.1,3.1,0,4.2c1.4,1.4,4.3,1.1,6.1,1.2c2.5,0.1,9.6,1.5,10.9-1.5
			c1.7-3.9-4.8-3.9-6.9-4.1C69.2-40.1,63.7-41.7,61.7-39.7"/>
		<path id="Fill-205" class="st2" d="M-25.5-107.2c0,4.2,6.6,4.2,6.6,0C-18.8-111.5-25.5-111.5-25.5-107.2"/>
		<path id="Fill-207" class="st2" d="M-12.9-107.2c0,4.9,7.6,4.8,7.6,0C-5.3-112-12.9-112.1-12.9-107.2"/>
		<path id="Fill-209" class="st2" d="M-20.5-100.7c-3.7,1-0.3,4.1,1.4,4.8c2.7,1.1,6.4,2,9.1,0.3c1.1-0.7,2-1.6,1.2-2.9
			c-0.8-1.4-2-0.8-3.3-0.6c-1.6,0.2-2.9,0.1-4.5-0.4C-17.7-99.9-19.2-101.1-20.5-100.7"/>
		<path id="Fill-211" class="st2" d="M46.1-107c0,2.9,4.5,2.9,4.5,0C50.6-109.8,46.1-109.8,46.1-107"/>
		<path id="Fill-213" class="st2" d="M56-106.5c0,3.2,5,3.2,5,0S56-109.7,56-106.5"/>
		<path id="Fill-215" class="st2" d="M55.6-99.6C53-99.3,45.5-98.5,45-95.3c-0.6,4.9,7.6,0.9,9.5,0.6c2.4-0.5,4.5-0.4,6.9-0.3
			c1.3,0.1,3.1,0.3,2.9-1.7C64.1-100,57.9-99.9,55.6-99.6"/>
		<path id="Fill-217" class="st3" d="M-9.8-54c-1.9,0.5-4.4,3.8-3.1,5.8c2.1,3.3,3.1-1.8,4-2.2c1.6-0.9,2.9,2.3,4.6,0.6
			C-1.6-52.5-8.1-54.4-9.8-54"/>
		<path id="eye" class="st3" d="M11.8-56.4c-2.2,0-7,3.2-7.3,5.5c-0.2,1.4,0.7,2.7,2.2,2.7c2,0,2.7-2.6,4.5-3.2
			c1.9-0.6,1.6,0.8,3.3,1.5c1.2,0.5,2.7,0.3,3.1-1.2C18.4-53.8,14.1-56.4,11.8-56.4"/>
		<path id="Fill-221" class="st3" d="M-5.3-43C-8.9-40.9-3-36.4-1-35.9c3.1,0.8,9.3-0.7,10-4.5c0.3-1.5-0.6-2.9-2.3-2.6
			c-1.4,0.2-2.2,1.9-3.5,2.5c-1.7,0.8-3.2,0.8-4.7-0.5C-2.6-41.9-3.2-44.2-5.3-43"/>
		<path id="Fill-223" class="st5" d="M-2.7-12c-3.2,0.7-6.4,0.2-9.7,0.9c-3.3,0.7-5.2,1.9-8.3,0.6c-0.1-0.1-0.3-0.1-0.4-0.2
			c-2.4-1-4.8-1.3-7.3,0.3c-1.5,1-5.9,4.3-5.4,6.3c1.2,4.4,6.1-2.5,7.4-3.2c2.4-1.3,4.1,0.4,6.6,0.8c3,0.6,5.4-1,8.2-1.7
			c3.3-0.7,7-1,10.3-1.4c1.3-0.2,6.3,0.9,6.8-0.8C6.4-13.1-1.5-12.3-2.7-12"/>
		<path id="Fill-225" class="st5" d="M20.3-3.2C20.5-3.1,20.4-3.2,20.3-3.2 M29.3-12.2c2.7-0.3,11.5-2.2,13.3,0.6
			c1.2,1.8-0.7,8.6-2.5,9.5c-1.4,0.7-4.7-0.1-6.3-0.1c-2.9-0.1-5.8-0.1-8.7-0.3c-1-0.1-4.1,0.1-4.8-0.7c-0.9-1-0.9-6.4-1.1-7.7
			C21.7-10.2,26.6-12,29.3-12.2 M35.1-15c-3.5,0.2-7,0.4-10.5,0.9c-1.9,0.3-3.9,1-5.7,1.3c-0.6,0.1-1.5-0.2-2.2,0.2
			c-2.1,1-0.3,7.8,0.2,9.6c0.8,2.8,2.7,3.2,5.4,3.5c3.6,0.3,7.2,0.2,10.8,0.2c3.4,0,8.1,0.7,10-2.7c1.2-2.2,2.6-7.4,1.5-9.9
			C43.2-15.4,38-15.1,35.1-15"/>
		<path id="quare" class="st2" d="M74.3-1.4C74.2-1.1,74.2-1.1,74.3-1.4 M75.1-2.3C75.1-2.2,74.8-1.9,75.1-2.3 M66.8-2.6
			c1.5-0.3,3.1-0.6,4.6-0.9c-1.5,2-3,1.2-5.5,1C66.2-2.4,66.5-2.5,66.8-2.6 M59.4-3.3c0.4-0.1,0.8-0.3,1.2-0.4
			c0,0.3,0.1,0.6,0.2,0.8c-0.7-0.1-1.3-0.2-2-0.2C59-3.1,59.2-3.2,59.4-3.3 M56-5.8c0-0.5,0.8-0.2,1.3-0.2C56.3-5.2,55.9-5.2,56-5.8
			 M68.2-11.9c0.1-0.2,0.3-0.1,0.5,0C68.4-11.8,67.6-11.5,68.2-11.9 M76.1-12.8C76.1-12.8,76.6-12.2,76.1-12.8 M75.9-13
			C76-12.9,76-12.9,75.9-13 M74.9-13.1C76.5-12.9,76.4-11,74.9-13.1 M55.9-13.3C55.5-13,55.7-13.3,55.9-13.3 M62.1-17.3
			c-2.7,0.2-7.8,0-10.1,1.5c-3,1.9-1.4,8.5-1.2,11.4c0.4,4.3,2.4,5.5,6.4,5.9C62,2,67,2.1,71.8,2c4.3-0.1,6.8-1.6,7.6-6.2
			c0.2-1.4,0.9-3.6,0.8-4.9c0-0.9-0.5-1.4-0.7-2.1c-1-4.5-2.7-5-7.3-5.2C68.9-16.6,65.4-17.5,62.1-17.3"/>
	</g>
	<g id="Profile" transform="translate(297.000000, 339.000000)" class="st1">
		<path id="face_2_" class="st2" d="M-45.3-116.6c7,0.1,14.9,4,13.8,12.2c-0.8,6-6,10.9-12,11.3c-6.5,0.5-13.3-4.5-14.2-11.1
			C-58.7-111.6-52.1-116.8-45.3-116.6 M-48.7-120c-2.8,0.4-5.5,1.9-8,3.2c-1,0.5-5.8,3.6-2,4.4c-9.1,14.7,12.4,28.4,24.4,18.8
			c5.4-4.3,8.3-12.4,4.8-18.8C-33.2-118.9-41.8-121-48.7-120"/>
		<path id="Fill-231" class="st2" d="M-50.4-107.4c0,2.7,4.3,2.7,4.3,0C-46.1-110.2-50.4-110.2-50.4-107.4"/>
		<path id="Fill-233" class="st2" d="M-42.5-107c0,3,4.6,3,4.6,0S-42.5-110-42.5-107"/>
		<path id="Fill-235" class="st2" d="M-47.8-101.1c-0.6,2.3,6.5,3.4,6.7,0.8C-41-101.5-47.4-102.7-47.8-101.1"/>
		<path id="Fill-237" class="st2" d="M-27-102.5c8.2-1,16.6-0.5,24.8-0.3c2.1,0.1,4.1,0.1,6.2,0.2c1.3,0,4.1,0.6,5.3,0
			c4.7-2.5-4.5-3.7-5.8-3.8c-8.2-0.7-20.8-0.9-28.9-0.6C-28-106.9-28.5-102.3-27-102.5"/>
		<path id="Hola-:_x29_" class="st5" d="M9.7-61.9c0.1-8.6,0.4-17.2,1-25.7c0.3-3.5,0.6-7,0.9-10.4c0.1-1.6,0.7-3.9-0.3-5.4
			c-1-1.5-3.2-1.8-4.5-0.5c-1.6,2-1.1,5.4-1.3,7.9c-0.3,3.8-0.7,7.6-0.8,11.3c-0.3,7.3-0.4,14.8,0.2,22.1c0.3,3.5,0.9,6.8,1.7,10.2
			c0.4,1.5,3.3,8.4,2.7,9.3c-0.9,1.5-7.9,0.9-9.5,0.9c-3.9,0.1-7.8,0.2-11.7,0.2c-3.3,0.1-6.7,0.1-10,0.1c-1.3,0-9.1-0.2-7.4,1.7
			c-19.3,1.3-39-0.9-58.2-1.7c-1,0-2.6-0.3-4-0.4c-0.2-0.7-0.3-1.3-0.4-1.8c-0.3-3.1-0.3-6.2-0.6-9.3c-0.5-5.6-1.5-11.2-2-16.9
			c-0.6-5.6-0.5-11.3-0.9-16.9c-0.1-1-0.2-8.9-2.2-10.8c0.9,0.4,2.5,0.4,3.4,0.3c7.1-0.6,14.2-1.8,21.2-2.9c2-0.3,6.6-0.1,8.3-1.1
			c1.4-0.9,2-3.9-0.5-3.7c-7,0.8-14,1.9-21,3.1c-1.9,0.3-3.7,0.6-5.6,1c-1.2,0.2-4.5,0.2-5.5,1c-1.2,0.9-1.3,1.5-0.9,1.9
			c-0.6-0.2-1.2,0.1-2,0.9c-1.5,2-0.1,6.8,0.1,9.1c0.2,2.8,0.3,5.5,0.4,8.3c0.2,5.3,0.8,10.6,1.7,15.9c1,5.9,1.8,11.8,2.7,17.7
			c0.3,1.5,0.6,3,1,4.5c-2.6,1.3-0.8,3.4,1.2,3.8c0,0,0,0,0,0c0.6,1.6,1.5,3,2.2,0.9c0.1-0.2,0.1-0.4,0.1-0.6
			c5.3,0.6,11.2,0.2,16.4,0.4c11.3,0.5,22.8,1.2,34.1,0.8c4.5-0.1,9-0.5,13.5-1.1c2.6-0.4,5.2-0.8,7.8-1.4c0.2,0,0.5-0.1,0.8-0.1
			c0.1,0,0.1,0,0.2,0c3.9-0.1,7.9-0.2,11.8-0.3c3.3-0.1,6.6-0.2,9.9-0.5c2-0.2,6.4-0.2,7.6-2.2c1.1-1.9-0.8-6.7-1-8.8
			C9.9-54.4,9.7-58.2,9.7-61.9"/>
		<path id="Fill-241" class="st2" d="M-30.2-86.6c-3.1,0.3-6.1,1.7-9.2,1.8c-2.7,0-5.3-0.8-8-0.7c-3.1,0.1-4.9,2.2-7.6,2.8
			c-2.2,0.5-3.6-1.1-5.5-1.9c-2.4-0.9-4.2-0.5-6.3,1c-1.5,1-5.1,3.4-5.1,5.5c0.1,6.4,7.5-2.4,9-2.5c2-0.1,4.2,2.1,6.3,2.3
			c2.8,0.2,4.6-1.6,7.2-2.3c2.6-0.7,5.4,0.2,8.1,0.4c3,0.3,5.6-0.4,8.5-1.1c2.8-0.7,5.2-0.7,8-0.1c1.9,0.4,6.7,2.7,7.5-0.3
			C-16.1-85.7-28-86.8-30.2-86.6"/>
		<path id="Fill-243" class="st2" d="M-29.2-74.4c-6.4,0.6-12.9,1.2-19.4,1.3c-2.8,0.1-13.6-1.1-12.6,2.4c0.8,3.1,15.5,1.1,18.5,0.9
			c3.3-0.3,6.6-0.6,9.9-1c1.2-0.1,4,0,4.8-1C-27.3-72.7-27.7-74.6-29.2-74.4"/>
		<path id="have-a-nice-day-:_x29_" class="st2" d="M-73.7-58.2C-73.8-58.1-73.8-58.1-73.7-58.2 M-72.3-58.2
			c1.6-0.1,1.3-0.9,2.9-0.5c0.7,0.2,0.8-0.1,1.4,0.6c1.1,1.4,0.1,4.4-1,5.5C-73.2-48.5-78.1-58-72.3-58.2 M-72.3-62.3
			c-11.2,0.4-6.5,17.6,3.2,14.1c4-1.5,6.5-8,4.2-11.7c-1.1-1.8-2.6-2.1-4.5-2.2c-0.4,0-1,0.6-1.3,0.6
			C-71.4-61.6-71.3-62.3-72.3-62.3"/>
		<path id="espero" class="st2" d="M-45.6-57.6c-0.2-0.1,3.5,1,3.1,0.6c0.9,0.9-0.3,3-1.3,3.4C-46.1-52.7-47.5-56.4-45.6-57.6
			 M-43.9-62.3c-3.5,0.5-6.2,2-6.7,5.8c-0.4,3.6,2,7.2,5.8,7.3C-36.5-49-36.2-63.4-43.9-62.3"/>
		<path id="hola" class="st2" d="M-5.9-57.5C-5.4-51.1-12-56.9-5.9-57.5 M-8.7-64.3c-0.6,1-0.1,2,0.8,2.6C-15.7-60-13.9-48.3-6-50
			c4-0.9,4.8-5.1,4.2-8.6C-2.1-60.3-6.3-68.4-8.7-64.3"/>
	</g>
	<path id="Fill-251" class="st4" d="M306.8,280.8c-2.3,0.4-7.8,3-7.8,5.7c0.1,4.3,4.7-0.4,5.8-1c5.6-3.4,12.8,1,18.6,1.9
		c2.7,0.4,7.9,1.2,10.2-0.6c4.2-3.2-5.5-2.4-6.7-2.5C320.2,283.7,313.5,279.6,306.8,280.8"/>
	<g id="List" transform="translate(579.000000, 371.000000)" class="st1">
		<path id="Fill-253" class="st5" d="M-162.4-120.4c0,4.4-0.2,8.9,0.6,13.3c0.2,1.3,0.4,3.8,1.8,4.5c1.4,0.7,2.7-0.1,3.1-1.5
			c0.4-1.7-0.5-4.2-0.6-5.9c-0.1-2.4-0.1-4.8-0.1-7.2c0-1.7,0.6-4.5-1.5-5.4C-160.6-123.3-162.4-122.1-162.4-120.4"/>
		<path id="Fill-255" class="st5" d="M-92.8-127.4c-14.6,1.5-29.4,1.8-44,2.5c-6.8,0.4-15-0.1-21.3,2.5c-1.2,0.5-5.4,3.2-2,4.3
			c1.1,0.3,2.2-0.8,3-1.2c1.5-0.6,3.2-0.8,4.7-1.1c13.3-2.1,27.2-1.8,40.7-2.8c3.4-0.3,6.9-0.5,10.3-0.9c2.5-0.2,7.6-2,9.9-1.1
			c3.9,1.5,3.8,11.6,3.9,15.1c0,1.8-1.7,8.2,1.8,7.6c2.8-0.5,1.8-7.2,1.5-9C-84.9-116.2-85.9-128.1-92.8-127.4"/>
		<path id="Fill-257" class="st2" d="M-87.4-102.7c-12.7,1.1-25.6,0-38.4,0.5c-6.7,0.2-13.3,0.6-20,0.8c-2.9,0.1-5.8,0.1-8.7,0.1
			c-1.4,0-7.7,0.8-3.8,3.6c1.7,1.2,7.2,0.2,9.2,0.2c3,0,5.9-0.2,8.9-0.3c6.9-0.3,13.7-0.6,20.6-0.8c6.6-0.2,13.1-0.2,19.7-0.4
			c3.3-0.1,6.6-0.2,9.8-0.7c0.7-0.1,3.1-0.2,3.6-1C-85.9-101.4-86.3-102.8-87.4-102.7"/>
		<path id="Fill-259" class="st5" d="M-149.7-112.2C-149.8-112-149.8-112-149.7-112.2 M-144.2-113.9
			C-144-113.8-144-113.8-144.2-113.9 M-144.5-113.9c3,3-1.6,6.6-4.4,3.7C-151.8-113.4-146.4-113.9-144.5-113.9 M-147.6-118.5
			c-10.2,1.8-6.6,15.4,2.9,13.4c4.2-0.9,6.6-5.1,5.1-9.1c-0.6-1.6-1.8-3.3-3.5-3.8c-0.9-0.2-1.6,0.1-2.4,0.1
			C-146.2-118-146.7-118.6-147.6-118.5"/>
		<path id="Fill-261" class="st5" d="M-108.6-114.6c-6.1,0-12.3,0.3-18.4,0.4c-1.9,0-6.7-0.8-6.7,2.2c0,3.2,5.4,2,7.2,2
			c6.1-0.1,12.2-0.4,18.3-1c1.5-0.1,6.8,0.1,6.8-2C-101.5-115.3-107.4-114.6-108.6-114.6"/>
		<path id="Fill-263" class="st2" d="M-94-93.9c-15.2,0.4-30.4,0.5-45.5,1.3c-5.7,0.3-11.4,0.5-17,0.5c-1.1,0-3.3-0.4-4.3,0.3
			c-2.8,1.9,0.4,3.5,2.2,3.6c12.5,0.7,25.1-1,37.6-1.4c7.3-0.2,14.6-0.3,21.9-0.7c2-0.1,4-0.2,6-0.4c1.1-0.1,4.2,0.2,5.1-0.5
			C-84.1-94.1-92.6-94-94-93.9"/>
		<path id="Fill-265" class="st2" d="M-163.7-86.5c-0.1,3.9-0.2,7.8,0.4,11.7c0.2,1.5,0.3,3.3,2.1,3.7c1.6,0.4,2.5-0.9,2.8-2.3
			c0.8-3.4,0.1-8.2,0.1-11.7c0-1.7,0-3.7-2.1-4C-162.1-89.4-163.6-88.2-163.7-86.5"/>
		<path id="Fill-267" class="st2" d="M-77.9-77c-24.6,1.3-49.2,2.4-73.8,3.5c-1.9,0.1-16.8-0.1-11.6,5.1c1.6,1.6,5.8,0.5,7.8,0.4
			c3.1-0.2,6.3-0.3,9.4-0.4c12.4-0.6,24.8-0.8,37.2-1.5c6.8-0.4,13.6-1,20.4-1.8c3.2-0.4,7.2-0.3,10.3-1.6
			C-76.5-74-74.9-77.2-77.9-77"/>
		<path id="Fill-269" class="st2" d="M-92-97c-1.9,1.9-0.9,5.5-0.8,7.8c0.2,3.2,0.4,6.3,0.8,9.5c0.3,2,0.1,5.2,1.2,7
			c1.3,2.1,4.1,1.8,5.3-0.2c1-1.8,0.5-5.5,0.5-7.5c0-2.7-0.2-5.4-0.4-8.1c-0.1-2.3,0.4-5.9-0.9-7.8C-87.5-98.2-90.3-98.7-92-97"/>
		<path id="Fill-271" class="st2" d="M-148.2-82.5C-148.4-82.4-148.4-82.4-148.2-82.5 M-143.9-83.1c4.1,0.8-2.5,5.6-4.6,2.3
			c-0.3-0.5-0.5-1.1,0-1.6c0.5-0.4,0.8,0.3,1.2,0.1C-146.4-82.6-144.7-83.1-143.9-83.1 M-144.4-87c-2.8,0.2-6.6,0.4-8,3.2
			c-1.9,3.7,1.3,7.4,5,8c3.5,0.5,8.8-1.4,9.1-5.5C-138.1-84.6-141.3-87.2-144.4-87"/>
		<path id="Fill-273" class="st2" d="M-121.2-85c-2.9,0-8.5-0.8-11.1,0.6c-2.5,1.4-1.4,3.9,0.9,4.5c1.5,0.4,3.9-0.2,5.5-0.3
			c2.1-0.1,4.1-0.1,6.2-0.1c3.5,0,6.9,0,10.4,0c3.5,0,7.1,0.1,10.6-0.2c4.5-0.3,4.3-3.7,0-4.1C-106.1-85.3-113.8-85.1-121.2-85"/>
		<path id="Fill-275" class="st2" d="M-128.5-47.7c0,1.6,1.4,0,1.4,0C-127.1-47.7-128.5-49.2-128.5-47.7"/>
		<path id="Fill-277" class="st2" d="M-160.3-60.4c0.1,4.6,0.2,9.2,0.3,13.8c0.1,1.5-0.4,4.3,1.4,5c2,0.8,2.6-1.2,2.8-2.6
			c0.7-4.4,0-9.5-0.1-13.9c0-1.5,0.3-3.6-1.4-4.3C-158.6-63.1-160.4-61.9-160.3-60.4"/>
		<path id="Fill-279" class="st2" d="M-84.6-60.3C-84.5-60.1-84.5-60.1-84.6-60.3 M-84.4-60.4C-84.4-60.3-84-60.2-84.4-60.4
			 M-121.6-64.1c-7.1,0.1-14.1,0.2-21.2,0.5c-3,0.1-6.1,0.2-9.1,0.5c-2.1,0.2-7.4,0.3-8.8,2c-2.8,3.6,3.2,2.6,4.5,2.3
			c2.4-0.5,4.8-0.7,7.2-0.8c5.2-0.3,10.5-0.4,15.8-0.5c14.3-0.3,28.5-0.2,42.8-0.3c1.4,0,3.9-0.6,5.1,0c1.3,0.6,1.2,1.9,1.3,3.5
			c0.2,2.1-1.2,6.2-0.2,8c1.7,2.8,4.1,0.4,4.4-1.6c0.5-2.8-0.3-6.1-1.1-8.8c-1.1-3.8-2.7-3.9-6.3-4.2c-4.3-0.3-8.5-0.6-12.8-0.6
			C-107.1-64.2-114.4-64.2-121.6-64.1"/>
		<path id="Fill-281" class="st2" d="M-93.7-45.1c-15.3,1.8-31.1,0.7-46.5,0.8c-3.7,0-7.5,0-11.2,0.2c-2,0.1-6.7-0.4-8,1.1
			c-2.9,3.2,2.3,3.7,4.2,3.6c3.8-0.3,7.6-0.4,11.4-0.4c13.4-0.1,26.9,0.5,40.3-0.1c5.6-0.3,11.1-1.2,16.6-2.3
			c1.2-0.2,9.6-1.8,4.8-3.7C-85-47.1-90.7-45.4-93.7-45.1"/>
		<path id="Fill-284" class="st2" d="M-138.5-51C-138.6-50.8-138.6-50.8-138.5-51 M-138.6-51C-138.6-50.9-138.7-50.6-138.6-51
			 M-139.5-52.2C-139.5-52.2-139.4-52.1-139.5-52.2 M-139.6-52.2c0.4,0.4,0.6,0.9,0.7,1.5C-142-49.9-143.2-52.5-139.6-52.2
			 M-139.8-52.4C-139.8-52.4-139.3-52.2-139.8-52.4 M-145-56.2c-2.1,2.6-3.8,5.5-1.2,8.5c2.3,2.6,6.9,3,9.8,1.2
			c3-1.8,2.7-5.6,0.6-8.1c-1.3-1.6-2.4-1.5-4.4-1.8C-141.4-56.6-143.9-57.6-145-56.2"/>
		<path id="Fill-286" class="st2" d="M-123.7-51.4c0,3.4,14.7,1.9,17.3,1.9c2.2,0,15.5,1.2,14.5-2.3c-0.8-2.9-13.8-1.4-16.6-1.5
			C-110.9-53.3-123.7-54.9-123.7-51.4"/>
	</g>
	<g id="Checkmark_x21_" transform="translate(358.000000, 501.000000)" class="st1">
		<path id="Fill-292" class="st2" d="M-94.9-149.5c7.4,1.1,15,4.5,15,13.1c-0.1,7.2-6.1,14.9-13.9,14.5c-7-0.4-13.6-8-14.5-14.6
			c-0.5-3.4,0.4-7.1,2.4-9.8C-103.3-150-99.1-150-94.9-149.5 M-98.4-154.2c-5.3,0-9.2,2-12.5,6c-1.2,1.5-2.6,3-3.5,4.7
			c-0.8,1.5-0.7,5.5,2.2,3.6c-0.7,7.6,3.7,15,10.1,18.9c6.9,4.2,14.8,3.4,20.6-2.5c5.3-5.4,7.2-14.6,3.3-21.3
			C-82.1-151.5-91.1-154.2-98.4-154.2"/>
		<path id="Fill-294" class="st2" d="M-82.4-156.2c-3.4,2.5-6.5,5.8-9.1,9.1c-2.5,3.3-4.2,7.3-7.2,10.2c-1.5-1.7-3.3-6.2-6.4-4.4
			c-2.5,1.5-0.9,4,0.3,5.7c3.2,4.3,6.7,6.1,10.8,1.8c3.7-3.9,5.8-9.1,9.3-13.2c1.5-1.8,3.9-3.6,5.1-5.6
			C-78.5-154.3-79.8-158.1-82.4-156.2"/>
	</g>
	<g id="Whiteboard-Stuff" transform="translate(477.000000, 137.000000)" class="st1">
		<path id="Wireframy-Stuff_1_" class="st2" d="M-107.6-41c0.1,0,0.2,0,0.3,0c2.8-0.2,5.7-0.1,8.6-0.2c5.8-0.1,11.9,0.2,17.7-0.5
			c1.2-0.2,1.6,1.4,1.1,2.1c-0.6,0.9-2.5,0.8-3.4,1c-2.6,0.4-5.2,0.5-7.8,0.6c-2.7,0.1-5.5,0.2-8.2,0.3c-2.4,0.1-7.6,1.1-9.8,0.1
			c-1.7-0.8-1.7-1.6-1-2.3c-0.4-0.9-0.4-2.4-0.4-3.2c-0.4-3.1-0.6-6.1-0.6-9.2c0-6,0-12.3,1.7-18.2c-0.7-0.3-1.1-0.7-1.1-1.3
			c0-3.7,13.6-2.8,16.3-2.9c3.4-0.1,6.8-0.1,10.1-0.1c2.2,0,5.3-0.5,7.5,0c4.3,1,4.1,8.4,4.1,12c0.2,6.4,0.1,13.2-0.5,19.6
			c-0.2,2.2-1.8,5-3.6,2c-1-1.7-0.6-5.7-0.6-7.6c0-6.7,1-13.6,0-20.3c-0.3-2.2-0.3-2.3-2.5-2.3c-1.8,0-3.5,0.1-5.3,0.1
			c-3.6,0.1-7.2,0.1-10.8,0.3c-1.4,0.1-6.3,0.9-10.1,0.9c0,0,0,0.1,0,0.1c0.1,2.6-1.2,5.7-1.4,8.4c-0.4,6.5,0.1,13.2-0.5,19.7
			C-107.6-41.4-107.6-41.2-107.6-41z"/>
		<path id="Wireframy-Stuff_2_" class="st2" d="M-56.2-39.1c-0.4-0.5-0.8-1.1-1.1-1.9c-0.9-3-1-6.2-1.1-9.3
			c-0.1-6.6-0.1-13.2-0.1-19.8c-0.6-0.8-0.2-1.7,0.5-2.4c2-1.7,7.8-1.3,10.4-1.4c3.7-0.2,7.4-0.2,11.1-0.3c3.9,0,7.8,0.1,11.7,0.2
			c1.5,0,11.5,0.3,7,2.7c-0.3,0.1-0.5,0.3-0.9,0.4c0.2,1.1,0.2,2.3,0.2,2.8c-0.2,3.5-0.3,7-0.4,10.6c-0.2,3.9-0.3,7.9-0.5,11.8
			c-0.1,2.1,0.6,6.9-1,8.4c-1.1,1-1.9,0.8-2.4,0.1c-3.9,1.1-13,0.4-14.7,0.4c-3,0-19.1,1.9-19.1-1.5C-56.4-38.6-56.3-38.9-56.2-39.1
			z M-53.5-40.3c4.5-1,12.9-0.3,14.6-0.3c3.3,0,6.6,0,9.8,0.2c1,0,3.5-0.2,5.5,0.1c0-0.2,0-0.3,0-0.5c-0.2-3.5,0-7.1,0.1-10.7
			c0.1-3.6,0.3-7.1,0.4-10.7c0.1-1.8-0.4-5.7,0.1-8.3c-2.4,0-4.9-0.3-6.5-0.3c-3.8,0-7.5,0-11.3,0c-4.1,0.1-8.2,0.1-12.2,0.7
			c-0.2,0-0.5,0.1-0.8,0.2c0.6,2.6-0.1,6.7-0.1,9.1c0,6.7,0.2,13.3,0.4,20C-53.5-40.7-53.5-40.5-53.5-40.3z"/>
		<path id="Fill-135" class="st5" d="M-94-37.8c-2.4,1.4-1.1,7.1-0.3,9c1.4,3.2,4.2,5.7,7.2,7.4c6.1,3.4,14.9,2.5,19.6,8.3
			c0,0.1,1.6,1.6,2-0.4c0.3-1.7-2.7-4.2-3.8-5.1c-3.3-2.4-7.5-3.2-11.3-4.4c-4.1-1.3-8.5-3.6-10.2-7.8C-91.5-32.1-90.3-39.9-94-37.8
			"/>
		<path id="Fill-137" class="st5" d="M-38.6-35.1c-2.2,0.6-0.8,3.7-0.8,5.2c0,1.9-0.6,3.9-1.8,5.4c-3,3.9-8.8,4.4-13.2,5.6
			c-3.2,0.8-10.8,2.5-11.1,6.8c-0.3,4.8,6.4-1,7-1.3c6.3-2.3,14.4-2.8,19.3-7.8c2-2.1,3.2-4.9,3.4-7.8
			C-35.7-30.5-35.7-35.8-38.6-35.1"/>
		<path id="Fill-139" class="st2" d="M-68.3-8.7c9.3-2.4,17.9,4,19,13.4c1.2,9.8-6.3,17.8-16,18.2c-8.6,0.4-19-5.8-19.1-15.3
			C-84.6-1.3-76-6.7-68.3-8.7z M-63.9-2.1c-1.6,0.9-1.9-1.5-3-1.8C-68-4.2-69.8-3-70.8-2.3c-1.6,1.2-6,8-8.1,4.3
			c-6.5,11.2,9.7,19.6,18.9,15.3c10.1-4.7,8.1-21.7-3.8-21.7C-63.3-3.8-62.9-2.7-63.9-2.1z"/>
		<path id="Fill-141" class="st2" d="M-72.3,4.6c0,2,3.2,2,3.2,0C-69.1,2.6-72.3,2.5-72.3,4.6"/>
		<path id="Fill-143" class="st2" d="M-66.6,4.2c0,2.5,4,2.5,4,0C-62.7,1.8-66.6,1.7-66.6,4.2"/>
		<path id="Fill-145" class="st2" d="M-70.7,10.1c-3.2,1.9,6,5.7,6.4,1.8c0.2-1.7-1.5-1.2-2.5-1.3C-67.9,10.4-69.7,9.5-70.7,10.1"/>
		<path id="Fill-147" class="st5" d="M-72.1,23.5c0.1,4.9,0.1,9.7,1,14.5c0.2,0.9,0.3,4.2,1,4.9c1.8,1.7,1.8-1.5,1.9-2.7
			c0.2-4.4-0.2-8.9-0.3-13.3c0-0.9,0.2-2.9-0.2-3.8C-69.5,21.7-72.2,21.2-72.1,23.5"/>
		<path id="Fill-149" class="st5" d="M-75.6,19.6c-7.1,8-16.8,7.4-26.7,8.1c-5.2,0.4-10.4,1.1-14.6,4.5c-1.9,1.6-3.6,3.5-4.7,5.7
			c-0.5,1-2.8,6.6,0.7,5.3c1.2-0.5,2.5-4.2,3.3-5.3c1.5-2.1,3.5-3.8,5.8-5c4.5-2.2,10-2.1,14.9-2.4c5.1-0.3,10.7-0.6,15.4-2.8
			c2.2-1.1,4.3-2.4,6.1-4.1c0.6-0.6,2-1.6,2.1-2.6C-73.2,20.1-74.2,18.1-75.6,19.6"/>
		<path id="Fill-151" class="st2" d="M-111.3,44c-6.7,0.2-13.3,0.5-19.9,0.9c-1.4,0.1-5.9-0.2-4.7,2.6c0.9,2.2,6.5,0.8,8.3,0.6
			c6.9-0.4,13.9-0.6,20.8-1.2c1.6-0.1,8.6-0.1,5.7-2.8C-102.6,42.9-109.4,43.9-111.3,44"/>
		<path id="Fill-153" class="st2" d="M-140.2,47.2c-2.1,2.8-1.1,9.5-1,12.8c0.2,3.2-0.5,9.1,3.7,9.6c-1.3-0.2,1,0.1,1.4,0.1
			c0.9,0,1.7,0.1,2.6,0.1c2,0,3.9,0,5.9,0c4.5-0.1,8.9-0.2,13.4-0.5c1.9-0.1,12,0,12.4-2c0.5-2.5-9.2-1.1-11-1
			c-4.2,0.2-8.5,0.2-12.7,0.3c-2.1,0-4.2,0-6.3,0c-0.9,0-4.3,0.3-4.8-0.2c-0.5-0.5-0.1-5-0.1-5.7c0-2.3,0-4.5,0.1-6.8
			c0.1-1.5,0.9-4.4,0.2-5.8C-137.2,46.6-139.1,46.1-140.2,47.2"/>
		<path id="Fill-155" class="st2" d="M-106,47.3c0.1,5,0.2,10.2,1.3,15.1c0.4,1.6,1,5,2.6,5.9c1.7,0.9,3.2-0.4,3.3-2.1
			c0.1-2.2-1-5-1.2-7.2c-0.3-2.6-0.4-5.2-0.5-7.8c-0.1-1.9,0.5-4.9-1.3-6.1C-103.5,44-106,45.2-106,47.3"/>
		<path id="Fill-157" class="st2" d="M-92.7,46.1c-2.1,2.1-1.1,8.6-0.9,11.2c0.2,1.9,2.3,11.5,5.5,6.5c1.4-2.2-0.4-8-0.4-10.6
			c0-1.6,0.6-3.7,0.3-5.3C-88.5,45.9-90.8,44.2-92.7,46.1"/>
		<path id="Wireframy-Stuff_3_" class="st2" d="M-44,63.2c0.5,0.5,0.7,1.2,0.4,1.9c-0.7,1.7-3.3,1.3-4.8,1.4
			c-4.7,0.4-9.5,0.7-14.3,0.7c-4.6,0-9.2-0.1-13.8,0c-3.8,0-7.8,0.8-11.6,0.7c-1.6-0.1-3.3-0.6-2.9-2.6c0.4-1.8,2.2-1.8,3.7-2
			c4.5-0.5,9-0.6,13.5-0.6c9.5,0,19,0,28.5-0.1c0.4,0,0.8,0.2,1.1,0.4c-0.5-0.6-0.3-1.5-0.4-2.4c-0.2-2.3-0.4-4.7-0.9-7
			c-0.4-1.9-0.6-5.1-2.4-6.2c-1.9-1.3-6.1-0.9-8.4-0.9c-6.1-0.2-12.2,0.3-18.3,0.8c-2.8,0.3-5.6,0.4-8.3,0.9c-1.5,0.3-6,2.5-7.2,1.1
			c-2.9-3.3,9.9-4.7,11.7-4.9c6.2-0.6,12.4-1.1,18.7-1.2c4.2,0,11.4-0.4,14.5,3.1c1.9,2.1,2.5,5.5,3.2,8.1c0.6,2,2.1,5.6,1,7.6
			c-0.5,0.9-1.3,1.7-2.5,1.4C-43.7,63.4-43.9,63.3-44,63.2z"/>
		<path id="Line" class="st5" d="M-12.3,36.9C-12,37.2-12,37.2-12.3,36.9 M-54.3,16.3c-3.8,2.2,3.2,8.7,5,9.7c4,2.3,9.5,2.6,14,3.2
			c5.7,0.8,11.8,1.1,17.3,3c2.3,0.8,3.8,2,5.3,3.9c0.8,1,2.6,5.1,4.3,4.1c3.4-2-5.8-10.3-7.8-11.1c-4.6-2-10-2.6-14.9-3.4
			c-4.6-0.7-9.2-1.3-13.7-2.6c-2.4-0.7-4.2-1.9-5.6-4C-51.3,17.8-52,15-54.3,16.3"/>
		<path id="Wireframy-Stuff_4_" class="st2" d="M-34.1,64.3c-1.1-2.2-1.6-6.3-1.7-7.1c-0.4-3.5-0.5-7-0.4-10.6c0-2,2.3-2.9,3.7-1.8
			c1.9-0.8,5.2-0.9,7-1.1c2.9-0.3,5.8-0.4,8.7-0.6c6.8-0.4,13.6-1.1,20.4-1.3c2,0,4.8-0.2,6.4,1.3c1.9,1.7,2.2,5.9,2.8,8.2
			c0.6,2.5,1.3,5,1.6,7.5c0.1,0.6,0.2,1.6,0.1,2.5c0.8,0.1,1.4,0.9,1.3,1.8c-0.2,1.7-2.5,1.9-3.8,2.2C7.4,66.2,2.6,66-1.9,66.2
			c-9.5,0.3-19.7,1.8-29.2,0.9C-32.7,66.9-34.5,66.3-34.1,64.3z M-30.6,62.3c0.4,0,0.7,0,1.1,0c4.8-0.1,9.6-0.2,14.3-0.4
			c4.9-0.2,9.8-0.4,14.6-0.5c3.9,0,7.9,0.3,11.8,0.1c-0.8-2.2-0.7-5.7-1.2-7.9c-0.4-2.3-0.6-4.9-1.5-7.1c-1-2.4-1.9-1.8-4.6-1.7
			c-2.7,0.2-5.5,0.4-8.2,0.7c-6,0.5-12,0.8-18.1,1.2c-3.1,0.2-6.1,1.1-9.2,1.5c0,1.1-0.2,2.2-0.2,3c0.1,2.3,0.3,4.7,0.5,7
			C-31.1,59.2-30.7,60.9-30.6,62.3z"/>
	</g>
</g>
<g id="humaaans_x2F_sitting-6">
	
		<g id="A-Human_x2F_Sitting" transform="translate(190.000000, 200.500000) scale(-1, 1) translate(-190.000000, -200.500000) translate(40.000000, 24.000000)">
		<g id="Head_x2F_Front_x2F_Caesar" transform="translate(82.000000, 0.000000)">
			<g id="Head" transform="translate(54.000000, 31.000000)">
				<path id="XMLID_107_" class="st6" d="M-15,86.2h-24l4.1-28.8c-6.5,3.9-12.8,5.8-15.8,5c-7.5-1.9-8.2-29.3-2.4-40.1
					s35.6-15.5,37.1,5.9c0.5,7.4-2.6,14.1-7.2,19.5L-15,86.2z"/>
			</g>
			<path id="Combined-Shape" class="st7" d="M16,62.2l2-6l12-1v-1c-13.8,0.1-23.5-0.5-29-2c0.3-4.7,5.1-10,18-10
				c14.3,0,22,8.3,22,18c0,8.8-5.7,19.6-10,20c-1.1-0.2-2.1-1.6-3-3.5c1.8-0.9,3-2.9,3-5.5c0-2.5-2.2-5-5-5c-1,0-1.9,0.3-2.7,0.9
				C21.4,64.1,19.2,61.9,16,62.2z"/>
		</g>
		<g id="Bottom_x2F_Sitting_x2F_Sweat-Pants" transform="translate(0.000000, 187.000000)">
			<g id="Objects_x2F_Seat_x2F_Ball" transform="translate(10.000000, 42.000000)">
				
					<ellipse id="Ballsy-Ball" transform="matrix(1 -2.535182e-006 2.535182e-006 1 -1.816788e-004 3.067265e-004)" class="st8" cx="121" cy="71.7" rx="77" ry="-73.5"/>
			</g>
			<path id="Skin" class="st6" d="M-26.7,172.3C-16,107-7.2,63.8-2.1,50.7C1.3,42,26.6,43,23.7,60.5c-1.2,7.3-6.1,27-12.4,49.3
				c-3.7,13-13,37.7-25.8,66.1L-26.7,172.3z M130.4,98.8c-4.5-0.6-57-6.1-94.1-11.5c-14.9-2.1-6.9-30,8.6-27.1
				c5.2,1,10.7,2.1,16.4,3.3c19.9,4.1,61,18.7,72.8,23.3C141.5,89.7,136.7,99.7,130.4,98.8z"/>
			<path id="Leg-Back" class="st9" d="M35.2,55.9C36,95.6,7.4,118.7-1.5,151.8l-23.4-3.5c2.4-6.1,9.7-88,21.9-104.8
				c0,0,0.1-0.1,0.1-0.1c0,0,0-0.1,0-0.1c1.4-4.4,32.8-14.5,94.3-30.1H99v7L35.4,52.6C35.5,53.6,35.4,54.7,35.2,55.9z"/>
			<path id="Leg-Front" class="st10" d="M112.9,78.4L107,97.1c-12.8-3.4-51.1,7.2-99.6-12.9c-0.3-0.1-0.5-0.4-0.5-0.8
				c-9-6.4-14-31.1,1.9-37.9c24-10.3,70.4-29.8,79.3-32.3h54.6c5.1,34.6-3.5,50.4-33.1,55.6c-4.6,0.8-9.9,1.8-15.8,3L112.9,78.4z"/>
			
				<g id="Accessories_x2F_Shoe_x2F_Flat-Sneaker" transform="translate(143.959294, 93.331820) rotate(64.000000) translate(-143.959294, -93.331820) translate(113.459294, 73.331820)">
				<path id="shoe" class="st11" d="M15.8,28.4c-0.5,1-0.1,2.2,0.9,2.7l0,0c2.6,1.3,4.3,2.6,5.2,3.7c1.1,1.4,2.1,3.7,2.8,6.9
					l-2.2,3.8c0,0,0,0,0,0c-0.3,0.5-0.1,1.1,0.4,1.4l25.3,13.5c1.5,1.5,3.4,3.3,5.7,5.6c2.2,2.3,4.8,1.3,7.7-2.8
					c-21.9-28-33.4-42.8-34.7-44.4c-3.1,1.7-5.4,3-6.8,4.2c-1.2,0.9-2.6,2.7-4.2,5.4C15.9,28.4,15.9,28.4,15.8,28.4z"/>
			</g>
			<g id="Accessories_x2F_Shoe_x2F_Flat-Sneaker_1_" transform="translate(263.000000, 132.000000)">
				<path id="shoe_1_" class="st11" d="M-271.7,38.4c-0.5-1-1.6-1.4-2.7-1v0c-2.6,1.2-4.7,1.8-6.2,1.8c-1.8,0-4.2-0.7-7.1-2
					l-1.7-4.1c0,0,0,0,0,0c-0.2-0.5-0.8-0.7-1.3-0.5l-26.2,11.7c-2.1,0.3-4.7,0.7-7.9,1c-3.2,0.4-4,3-2.5,7.8c35.5,0,54.3,0,56.4,0
					c0.6-3.5,0.9-6.1,0.9-7.9c0-1.5-0.6-3.7-1.7-6.7C-271.7,38.5-271.7,38.5-271.7,38.4z"/>
			</g>
		</g>
		<g id="Body_x2F_Trench-Coat" transform="translate(22.000000, 82.000000)">
			<path id="Skin_1_" class="st6" d="M24.1,115.7l-31.6,13.1c-8.9,10.5-13.9,14.9-15,13.1c-1.6-2.6,1.9-4.9,1.1-6.9
				c-0.8-1.9-6.8-1.7-12.5-1.3c-5.7,0.4-4-2.1-2.7-3.3c5.8-3.5,13-6.4,21.7-8.7l31.9-23.4L24.1,115.7z M189,151.4
				c1.9,2.6,13.9,9.5,22,13.2c3.3,1.5,2.5,4.2,1.5,5.1c-8,7.1-15,1.6-23.4-0.6c-9.2-2.4-6.5,8.6-13.7,6.7c1.2-5,4.6-14.4,1.3-19.7
				c-1.5-2.3-12.4-23.8-32.8-64.3l17.6-3.2C177.2,126.9,186.3,147.8,189,151.4z"/>
			<path id="Back-Arm" class="st3" d="M74.7,15.2l10.7,4.4c-0.5,11.6,1.2,43.3-3.7,52.7c-14.5,27.9-46.3,40.6-80.2,57.5l-8-16.4
				c0.9-0.7,1.9-1.3,2.8-2c-1.3-0.4-2.3-1.4-2.8-2.8c-0.8-2.4,0.5-4.9,2.8-5.7c4.8-1.6,9.3-2.3,13.4-2C39.6,75.6,59.8,46,74.7,15.2z
				"/>
			<path id="Shirt" class="st7" d="M90,15.6c-7.4,1.1-12.6,0.9-15.6-0.7c0,28.5-10.6,58.5-26.8,99.5c-1,2.6-1.1,12.3,1.1,12.7
				c18.1,3.5,42.8,3.5,74.2,0C119.1,78.6,109.9,44.9,90,15.6z"/>
			<path id="Coat-Front" class="st2" d="M173.1,239.2c-41.2-16.5-83.6,4.1-113.3-2.5C43.7,154.1,90,57.4,86.6,13.2h6H98
				c39.3,24.1,67.6,62.3,85,114.4c2.1,0.4,4.1,1.1,6,2.1c1.8,0.9-0.7,6.6-2.9,7.9c0.8,2.6,1.5,5.3,2.2,7.9l-18.9,5.6
				c-12.8-33.7-27.2-57.3-43.3-71.1c0.2,12-3.3,24.3-1.3,36.8c0.2,1.5,0.5,3,0.9,4.5c1.9,0.2,3.5,1.7,3.9,3.7l0.5,3
				c0.3,1.6-0.3,3.1-1.4,4.1C140.8,166.9,171.6,205.9,173.1,239.2z"/>
			<polygon id="Shade-Lapel" class="st12" points="103.1,31.4 93.9,41.9 103.1,51.3 75.3,90.2 98,51.3 88.7,41.9 99,30 93.9,14.2 
							"/>
			<path id="Buttons" class="st13" d="M78,101.2c0-2.2,1.8-4,4-4s4,1.8,4,4s-1.8,4-4,4S78,103.4,78,101.2z M73,124.2
				c0-2.2,1.8-4,4-4s4,1.8,4,4s-1.8,4-4,4S73,126.4,73,124.2z M72,147.2c0-2.2,1.8-4,4-4s4,1.8,4,4s-1.8,4-4,4S72,149.4,72,147.2z"
				/>
		</g>
	</g>
</g>
</svg>
