<?xml version="1.0" encoding="utf-8"?>
<!-- Generator: Adobe Illustrator 19.0.0, SVG Export Plug-In . SVG Version: 6.00 Build 0)  -->
<svg version="1.1" id="Layer_1" xmlns="http://www.w3.org/2000/svg" xmlns:xlink="http://www.w3.org/1999/xlink" x="0px" y="0px"
	 viewBox="-59.3 0 248.2 480" style="enable-background:new -59.3 0 248.2 480;" xml:space="preserve">
<style type="text/css">
	.st0{fill:#C19784;}
	.st1{fill:#191847;}
	.st2{fill:#2F3676;}
	.st3{fill:#C5CFD6;}
	.st4{fill:#323337;}
	.st5{fill:#DDE3E9;}
</style>
<title>humaaans/standing-17</title>
<desc>Created with Sketch.</desc>
<g id="humaaans_x2F_standing-17">
	<g id="humaaan-1" transform="translate(28.000000, 2.000000)">
		
			<g id="Head_x2F_Front_x2F_Chongo" transform="translate(133.219486, 73.532869) rotate(-15.000000) translate(-133.219486, -73.532869) translate(59.569689, 17.301852)">
			<g id="Head" transform="translate(58.494090, 33.282773)">
				<path class="st0" d="M-115.7,3.6c-5-5.8-8.4-12.9-7.8-20.9c1.6-23,33.9-17.9,40.2-6.3s5.5,41-2.6,43.1
					c-3.2,0.8-10.1-1.2-17.1-5.4l4.4,30.9l-26,0L-115.7,3.6z"/>
			</g>
			<path id="hair" class="st1" d="M-35.1-2.9c-3.6-1.1-8.7-1.4-10.9-1.2c1.2-2.9,1.7-6.2,1.3-9.4c-0.4-3.1-1.8-5.7-3.1-8.5
				c-0.6-1.3-1.3-2.5-2.3-3.5c-1-1-2.3-1.6-3.7-2c-1.4-0.3-2.8-0.3-4.2,0c-0.6,0.1-1.2,0.4-1.8,0.6c-0.6,0.2-0.9-0.2-1.4-0.6
				c-1.1-0.9-2.7-1.4-4-1.5c-1.5-0.2-3.1,0-4.6,0.5c-1.4,0.5-2.8,1.3-3.8,2.4c-0.5,0.5-0.9,1.1-1.1,1.7c-0.1,0.3-0.1,0.4-0.4,0.5
				c-0.2,0.1-0.5,0.1-0.8,0.2c-2.5,0.8-4.6,2.7-5.7,5.1c-0.7,1.4-1,3.9-0.9,6.7c0.1,2.8,2.6,10,5,12.7c2.1,2.4,5.2,3.9,8.2,4.6
				c-2,2.3-3.3,5.1-4.3,7.9c-1.1,3.1-1.7,6.3-2,9.6c-0.2,3.1-0.3,6.4,0.5,9.5c0.7,2.9,2.2,5.2,4.6,6.7c1.1,0.7,2.4,1.2,3.6,1.7
				c1.2,0.5,2.4,0.9,3.7,1.2c2.4,0.5,5.2,0.4,7-1.5c0.7-0.7,1.4-1.5,1.9-2.4c0.2-0.3,0.3-0.5,0.1-0.8c-0.3-0.4-0.7-0.6-1-0.9
				c-1.9-1.6-3-3.6-3.3-6.1c-0.3-2.5,0.4-5.8,2.9-6.9c3-1.4,6.4,0.2,9.1,1.6c1.2-4,3.5-7.6,7.2-9.5c4.1-2,8.8-2.3,13-4
				c1.1-0.5,2.2-1,3-1.9c0.3-0.4,0.7-0.9,0.9-1.4c0.2-0.7-0.3-1.2-0.6-1.8C-24.7,3.8-31.5-1.9-35.1-2.9z"/>
		</g>
		<g id="Bottom_x2F_Standing_x2F_Skinny-Jeans" transform="translate(0.000000, 218.435876)">
			<polygon id="Leg" class="st1" points="9.7,0 48.9,137.3 77.6,238.5 98.5,238.5 68,0 			"/>
			<path id="Leg_1_" class="st2" d="M-0.8,0c-0.9,70.8-4,109.4-5,115.8s-15.4,47.3-43.3,122.7h21.6C8.1,166.2,27.9,125.3,32,115.8
				C36.2,106.3,48.9,67.7,68.1,0H-0.8z"/>
			<g id="Accessories_x2F_Shoe_x2F_Flat-Pointy" transform="translate(77.992120, 214.729269)">
				<path id="Shoe" class="st1" d="M-129,43.3l1.1-22.7h22.7c10.8,7.6,24.9,13.7,42.2,18.4v4.3h-41.2l-14.1-2.2v2.2H-129z"/>
			</g>
			<g id="Accessories_x2F_Shoe_x2F_Flat-Pointy_1_" transform="translate(203.646091, 214.729269)">
				<path id="Shoe_1_" class="st1" d="M-129,43.3l1.1-22.7h22.7c10.8,7.6,24.9,13.7,42.2,18.4v4.3h-41.2l-14.1-2.2v2.2H-129z"/>
			</g>
		</g>
		
			<g id="Body_x2F_Lab-Coat" transform="translate(161.379703, 207.081536) rotate(-10.000000) translate(-161.379703, -207.081536) translate(22.744790, 105.973841)">
			<path id="Skin" class="st0" d="M79.2,73.1l32.7,27.6c9.2,3.2,16.8,6.8,22.8,11c1.4,1.4,3,4.3-3.1,3.4c-6.1-0.9-12.6-1.6-13.6,0.5
				c-1,2,2.5,4.8,0.6,7.5c-1.3,1.8-6.3-3.3-15.2-15.2L70.2,91.3L79.2,73.1z M-68.9,61.2l19.2,2.8c-20.6,44.5-31.6,68-33.1,70.5
				c-3.3,5.8,0.6,15.8,2.1,21.2c-7.8,2.2-5.3-9.7-15.1-6.7c-9,2.7-16.4,8.9-25.3,1.6c-1.1-0.9-2-3.9,1.5-5.6
				c8.7-4.3,21.4-12.1,23.3-15C-93.6,125.9-84.5,103-68.9,61.2z"/>
			<path id="Coat-Back" class="st3" d="M11.3-16.7l11.9-3.9c16.1,40.1,40.2,78.9,80.4,111.6l-9.9,17.1
				C58.3,87.4,24.8,71.3,11.3,40.3C6.7,29.9,10.9-4.2,11.3-16.7z"/>
			<path id="Shirt" class="st4" d="M-29.6,96.2c34.1,3.6,60.9,3.6,80.4,0c2.4-0.4,2.8-4.5,1.7-7.2C35,46.3,23.1,9.1,23.1-20.6
				c-3.2,1.6-8.8,1.9-16.9,0.7C-15.4,10.7-25.3,45.7-29.6,96.2z"/>
			<path id="Coat-Front" class="st5" d="M0.8-22.4l9,0c2.1,12.3,8.7,178.1,29.1,232.4l-110.3,0C-69,160.3-50.1,100.6-31,50.6
				C-47.9,66-62.6,92.1-75.2,128.8l-20.7-5.3C-80.5,57.7-48.9,9.3-1.1-21.7c0.1-0.2,0.2-0.5,0.3-0.7l0.8,0c0.3-0.2,0.6-0.4,0.9-0.6
				L0.8-22.4z"/>
		</g>
	</g>
</g>
</svg>
