<?xml version="1.0" encoding="utf-8"?>
<!-- Generator: Adobe Illustrator 19.0.0, SVG Export Plug-In . SVG Version: 6.00 Build 0)  -->
<svg version="1.1" id="Layer_1" xmlns="http://www.w3.org/2000/svg" xmlns:xlink="http://www.w3.org/1999/xlink" x="0px" y="0px"
	 viewBox="-237 239 24 24" style="enable-background:new -237 239 24 24;" xml:space="preserve">
<style type="text/css">
	.st0{fill:#FFFFFF;fill-opacity:0;}
	.st1{fill:#FFFFFF;}
</style>
<g>
	<g>
		<rect x="-237" y="239" class="st0" width="24" height="24"/>
		<path class="st1" d="M-220,242.5c0-0.3-0.2-0.5-0.5-0.5h-2.5c-2.6-0.1-4.9,1.9-5,4.5v2.7h-2.5c-0.3,0-0.5,0.2-0.5,0.5v2.6
			c0,0.3,0.2,0.5,0.5,0.5h2.5v6.7c0,0.3,0.2,0.5,0.5,0.5h3c0.3,0,0.5-0.2,0.5-0.5v-6.7h2.6c0.2,0,0.4-0.1,0.5-0.4l0.7-2.6
			c0.1-0.3-0.1-0.5-0.4-0.6c0,0-0.1,0-0.1,0h-3.4v-2.7c0.1-0.5,0.5-0.9,1-0.9h2.5c0.3,0,0.5-0.2,0.5-0.5V242.5z"/>
	</g>
</g>
</svg>
