<?xml version="1.0" encoding="utf-8"?>
<!-- Generator: Adobe Illustrator 19.0.0, SVG Export Plug-In . SVG Version: 6.00 Build 0)  -->
<svg version="1.1" id="Layer_1" xmlns="http://www.w3.org/2000/svg" xmlns:xlink="http://www.w3.org/1999/xlink" x="0px" y="0px"
	 viewBox="0 0 950.6 352.1" style="enable-background:new 0 0 950.6 352.1;" xml:space="preserve">
<style type="text/css">
	.st0{fill:none;}
	.st1{fill:#303030;}
</style>
<g id="XMLID_2_">
	<path id="XMLID_89_" class="st0" d="M675.8,104.2c0.1,0,0.2,0,0.3,0c0.4,0,0.7-0.3,1-0.5c0.2-0.2,0.5-0.4,0.8-0.5
		c0-0.4,0.1-0.9,0.3-1.3c-0.3,0.3-0.6,0.5-1,0.8C676.5,103,675.9,103.4,675.8,104.2C675.8,104.2,675.8,104.2,675.8,104.2z"/>
	<path id="XMLID_88_" class="st0" d="M572,144.5c0.1,0,0.1,0,0.2-0.1c0,0-0.1,0-0.1,0c-0.2,0-0.3,0-0.5-0.1
		C571.7,144.4,571.8,144.5,572,144.5z"/>
	<path id="XMLID_87_" class="st0" d="M584.8,139c-0.1,0.2-0.2,0.3-0.3,0.4c0.1,0,0.1-0.1,0.1-0.1c0.1-0.1,0.2-0.1,0.2-0.2L584.8,139
		z"/>
	<path id="XMLID_86_" class="st0" d="M306.7,159.1C306.7,159.1,306.7,159,306.7,159.1c-0.1-0.1-0.2-0.2-0.3-0.3c0,0,0,0,0,0
		C306.5,159,306.6,159.1,306.7,159.1z"/>
	<path id="XMLID_85_" class="st0" d="M678.8,100.8c-0.1,0.1-0.2,0.1-0.3,0.1c0,0.1,0,0.2,0,0.3C678.6,101,678.7,100.9,678.8,100.8z"
		/>
	<path id="XMLID_84_" class="st0" d="M775.8,190.8c0,0.1-0.1,0.2-0.1,0.3C775.8,191,775.8,190.8,775.8,190.8
		C775.9,190.7,775.8,190.8,775.8,190.8z"/>
	<path id="XMLID_83_" class="st0" d="M240.3,249.2c0-0.1-0.1-0.2-0.2-0.3C240.1,249.1,240.2,249.2,240.3,249.2
		C240.3,249.3,240.3,249.3,240.3,249.2z"/>
	<path id="XMLID_82_" class="st0" d="M437.9,202.3L437.9,202.3c-0.1,0.1-0.1,0.2,0.2,0.5c0,0,0-0.1,0.1-0.1l0.2-0.3c0,0,0,0,0,0
		C438.2,202.4,438,202.3,437.9,202.3L437.9,202.3C437.9,202.3,437.9,202.3,437.9,202.3z"/>
	<path id="XMLID_81_" class="st1" d="M5.2,4.1c1.1-0.8,0.7-1.7,0.3-2.5C5.4,1.1,5.2,0.6,5.2,0.1c-0.3,0-0.7,0-1,0c-0.3,0-0.7,0-1,0
		c-0.5,0-0.9,0-1.2-0.1C1.6,0,1.3,0,1.1,0C0.7,0,0.5,0.1,0.3,0.3C0.2,0.4,0.2,0.5,0.2,0.6c0,0,0,0.1,0,0.1C0,1,0,1.4,0,1.8
		C0,2,0,2.2,0,2.4c1,1.1,2.1,2.1,3.5,2.1C4.1,4.5,4.6,4.4,5.2,4.1z"/>
	<path id="XMLID_78_" class="st1" d="M950.6,199.1l0-21.2c-0.2-0.1-0.3-0.1-0.5-0.1c-0.1,0-0.2,0-0.3,0.1c-0.6-0.2-1.2-0.3-1.8-0.3
		c-1-0.1-2-0.2-2.7-1l-1.2-1.6c-0.8-1.9-2.2-2.2-3.6-2.2c-0.5,0-1,0-1.7,0.1c-0.3-0.1-0.6-0.1-1-0.1c-0.3,0-0.5,0-0.8,0
		c-0.3,0-0.5,0-0.8,0c-0.6,0-1.3-0.1-1.9-0.7c-0.7-1.1-1.6-1.7-2.7-1.7c-1,0-2,0.5-3.1,1l-2.9,0l-2.7-0.9c-2.4-2-5.4-2.9-8.2-3.8
		c-1.7-0.5-3.5-1.1-5.2-1.9c-1.8-0.7-3.4-1.8-5-2.9c-2.6-1.8-5.3-3.6-8.7-3.9c-3.6-0.3-6.1-1.1-7.2-2.4c-1.2-1.3-2.5-1.9-4-1.9
		c-1,0-2.1,0.3-3.1,0.6l-0.7,0.2c-1.2,0.3-2.3,0.9-3.4,1.5c-0.5,0.3-1,0.5-1.5,0.8c-0.5,0.2-1.1,0.5-1.6,0.7
		c-1.2,0.5-2.5,1.1-3.8,1.5c-0.2,0.1-0.4,0.1-0.6,0.2c-0.9,0.2-1.7,0.5-1.9,1.5c0,0,0,0,0,0c0,0.2-0.1,0.3-0.1,0.6l0,1.9
		c-0.2,0.4,0.1,0.8,0.5,1.3c0.3,0.4,0.6,0.8,0.5,1.1c-0.1,0.3-0.5,0.5-1.2,0.7c-0.1,0.1-0.1,0.3-0.1,0.4l-0.8,0.5l-0.4,0.1
		c-0.3-0.1-0.5-0.2-0.8-0.2c-0.5,0-1,0.3-1.5,0.5c-0.3,0.3-0.7,0.3-1,0.3c-0.2,0-0.3,0-0.5,0c-0.2,0-0.4,0-0.5,0
		c-0.5,0-1,0.1-1.3,0.7c-0.1,0-0.3,0.1-0.4,0.2c-0.3,0.1-0.5,0.2-0.9,0.2c0,0,0,0,0,0c-0.7-0.1-1.3-0.1-2-0.1c-2.5,0-5.1,0.6-5.5,5
		c0,0.2-0.1,0.4-0.1,0.6c0,0,0,0.1,0,0.1c-0.5,1.4-2.1,2.3-2.8,2.7c-3.4,0.8-5.2,2.6-5.5,5.8c-0.1,0.5-0.3,0.8-0.6,1.2
		c-0.2,0.2-0.3,0.4-0.4,0.7c-0.2,0.2-0.5,0.5-0.7,0.7c-0.8,0.7-1.6,1.4-1.6,2.6c-0.3,0.1-0.6,0.2-0.9,0.3c-0.7,0.2-1.5,0.5-1.9,1.3
		l-1.5,2.1l-0.6,0.1c-1.7,0.3-3.5,0.7-5.2,0.7c-2.7,0-4.8-1-6.5-3l-0.5-1.2c0-0.2,0-0.3-0.1-0.3c0.1-0.2,0.1-0.4,0-0.6
		c0.1-0.4,0.4-0.9,0.7-1.3c0.6-0.9,1.3-1.9,0-3.1c-0.4-0.4-0.7-0.5-1.1-0.5c-0.5,0-1,0.4-1.4,0.7c-0.2,0.1-0.3,0.3-0.4,0.4
		c0,0,0,0,0,0l-0.7-2.1c-0.1-0.6,0-1.3,0-1.9c0.1-1.8,0.3-3.7-2.2-4.7c-0.1-0.2-0.1-0.4-0.1-0.6c-0.4-0.1-0.8-0.2-1.2-0.2
		c-0.2,0-0.2,0.1-0.4,0.1c-0.1,0-0.2,0-0.3,0.1c-0.3,0.1-0.5,0.2-0.8,0.4c-0.1,0-0.1,0.1-0.2,0.1c-0.5,0.6-0.9,1.4-1.1,2.4l-1.5-2
		l-1.4-1.7c0.1-0.3,0.2-0.6,0.2-1c-1.8-2.4-1.8-5.2-1.7-7.9c0-0.6,0-1.2,0-1.8c-0.4-1.9,0.2-3.5,0.8-5.2c0.4-0.9,0.7-1.9,0.9-2.9
		l0.1-2.7c0.2-2.1-0.7-3.8-2.7-5.2l-1.1-1.3c-0.1-0.2-0.2-0.4-0.3-0.6c-0.3-0.6-0.6-1.1-0.2-1.7c0.6-1.1,0.8-1.9,0.6-2.6
		c-0.3-0.9-1.3-1.4-2.4-2c-0.3-0.2-0.6-0.3-1-0.5c-0.9-0.5-1.8-0.8-3-0.8c-0.7,0-1.4,0.1-2.1,0.2c-0.7,0.1-1.3,0.2-2,0.2
		c-0.7,0-1.4-0.1-1.9-0.3c-0.8-0.6-1.5-0.9-2.2-0.9c-0.2,0-0.5,0-0.6,0.1c0.1-0.2,0-0.3-0.3-0.4c-1,0-1.6-0.6-2.2-1.3
		c-0.4-0.4-0.8-0.9-1.4-1.1l-0.3,0.1l-0.2,0.1c-0.1-0.1-0.2-0.2-0.3-0.4c-0.4-0.3-0.9-0.4-1.6-0.4c0,0,0,0,0,0
		c-0.2,0-0.4,0.1-0.6,0.1c-2.1-1.3-4.4-2.3-7.3-3l-1-0.1c-0.7-0.1-1.5-0.2-2.2-0.2c-0.7,0-1.3,0.1-1.9,0.3l-4.4,0.1l-2.3,1.3
		l-1.9,0.9l-0.6,0.9c-0.1,0-0.2,0-0.3,0.1c-1,0.1-1.8,0.7-2.2,1.8c-0.5,0.6-1.1,0.9-1.9,0.9c0,0,0,0,0,0c-0.2,0-0.3,0.1-0.4,0.1
		c0,0,0,0,0,0c0,0-0.1,0-0.1,0.1c-0.7-0.2-1.2-0.2-1.6-0.2c-0.9,0-1.5,0.3-2.1,1c-0.1,0.2-0.3,0.4-0.4,0.6c0,0,0,0.1-0.1,0.1
		c-0.1-0.2-0.2-0.4-0.3-0.7c-0.4-0.1-0.9-0.2-1.4-0.2c-1,0-2,0.3-3,0.6l-0.8,0.2c-1.9,1.6-2.9,3.4-3,5.5c0,0.5-0.1,0.9,0,1.4
		c-0.2-0.4-0.4-0.8-0.5-1.2c-0.3-0.9-0.6-1.9-1.9-2.1c-0.2,0-0.3,0-0.5-0.1c-0.3,0-0.6-0.1-0.9-0.1c-0.3-0.5-0.3-1.2-0.2-1.9
		c0-0.3,0.1-0.6,0-0.9l-0.7-0.2c-0.4-0.2-0.7-0.3-1-0.3c-0.4,0-0.7,0.2-1,0.6c-0.1,0-0.3,0-0.3,0c-1.1,0.1-2.2,0.4-3.5,0.8
		c-0.3,0.3-0.7,0.5-1.2,0.6l-1.3-0.1l-1.4-0.1l-0.4,0.4c-0.2,0-0.4,0-0.5,0c-0.4,0.2-0.6,0.5-0.7,0.8c0,0.1-0.1,0.2-0.1,0.3
		c0,0,0,0,0,0.1c0,0,0,0,0,0.1c-0.7,0.8-0.5,1.9-0.3,2.8c0,0,0,0,0,0c0,0,0,0,0,0c0,0,0,0,0,0c0.5-0.1,1-0.3,1.4-0.5
		c0.7-0.3,1.3-0.5,2.1-0.5c0.3,0,0.6,0,0.9,0.1c0.3,0.6,0.4,1.2,0.4,1.9c0.1,0.9,0.2,1.9,1.1,2.6c1.1,2.2,2.7,3.9,5,5.1
		c0.3,0.7,0.8,0.8,1.3,0.8c0.5,0.6,1.2,0.7,1.9,0.9c0.4,0.1,0.9,0.2,1.2,0.4l0.3,0.2l0.3,0c0.5,0.4,1.1,0.6,1.6,0.6
		c0.5,0,1.1-0.2,1.6-0.6c0.2,0,0.3,0,0.5,0c0.6,0,1.2,0,1.6-0.7l8.7,3.3c1.2,0.9,1.1,2.1,1,3.3c-0.1,0.9-0.1,1.9,0.4,2.7
		c0,2.6,1.7,3.8,3.8,5c0.4,0.2,0.9,0.4,1.3,0.5c1,0.3,2,0.5,2.3,1.9c0.6,0.7,1.1,1.1,1.7,1.1c0.4,0,0.8-0.2,1.3-0.6
		c0.1-0.5,0.4-1,1-1c0.1,0,0.2,0,0.2,0c0.5,0.1,1,0.2,1.5,0.3c0.2,0,0.3,0.1,0.5,0.1c1.4,0.3,2.8,0.4,4.4,0.4c2,0,4.1-0.2,6.1-0.4
		l1.6-0.2c1.4,0.2,3,0.5,4.6,0.5c1.3,0,2.5-0.1,3.7-0.5c0.3-0.2,0.6-0.4,1-0.7c0.5,0,1-0.1,1.4-0.3c0.5-0.1,1-0.3,1.4-0.3
		c0.4,0,0.8,0.1,1,0.4c0.1,0.5,0,1-0.2,1.3c-1.3,1.8-2.1,2.8-3.3,2.8c-0.8,0-1.8-0.5-3.1-1.2l-0.5-0.3c-0.9-0.5-1.8-1.1-2.8-1.1
		c-0.6,0-1.2,0.2-1.8,0.6c-2.1,0.3-3.8,1.4-5.1,3.1c-1,0.3-1.6,1-1.6,2.1c-0.2,0-0.4,0.1-0.6,0.2c-0.8,0.1-1.1,0.8-1.3,1.4
		c-0.3,0.7-0.5,1.4-1.5,1.4c-1.6-1.5-5.7-2.2-9.1-2.2c-3.3,0-5.9,0.6-7,1.6c-0.4,0.4-0.6,0.7-0.3,1.4c1,2.2,2,4.4,4.8,4.4
		c0.3,0,0.5,0,0.8-0.1c0.5-0.1,0.9-0.1,1.3-0.1c2.6,0,4.5,1.2,6,3.5c0.4,0.6,0.7,1.2,1,1.9c0,0,0,0,0,0.1c0.6,2,1.9,3.3,4.3,4.2
		l0.3,1.4l-1.6,2.9c-0.8,1.9-0.7,4.2,0.1,6c0.6,1.4,1.6,2.4,2.8,2.9c0.3,0.4,0.6,0.6,1,0.8c0,0,0,0,0,0c0.2,0.1,0.3,0.1,0.5,0.1
		c0.6,0,1.2-0.4,1.8-0.8l0.4-0.3l2.1,0.1c0.5,0.7,1.2,0.8,1.9,1c0.4,0.1,0.8,0.2,1.1,0.3c0.6,1,1.6,1.6,2.6,2.1
		c0.5,0.3,1,0.5,1.4,0.9l0.3,0.2c0.5,0.4,1,0.8,1.5,0.8c0.4,0,0.7-0.2,1-0.7c0.7-1.3-0.9-2.3-1.4-2.6c-0.5-0.3-0.9-0.5-1.4-0.8
		c-1.3-0.6-2.6-1.3-3.2-2.8l1.6-1.9c1.8-0.6,1.6-1.9,1.4-3c-0.1-0.6-0.2-1.2-0.1-1.7c1-0.6,1.9-0.9,2.7-0.9c0.8,0,1.6,0.3,2.3,1
		c0.5,0.8,1.3,0.9,2,1c0.4,0,0.8,0.1,1.1,0.2l1.1,0.7c2.7,1.6,5.4,3.2,7.2,6.1c0.1,0,0.2,0,0.3,0c0.4,0,0.7-0.2,0.9-0.7
		c0.2-0.1,0.4-0.5,0.6-0.8c0.2-0.4,0.4-0.8,0.8-0.8c0.2,0,0.5,0.2,0.8,0.5c1.9,1.9,4.1,3.6,7.2,5.5l1.6,0.8l0.5-0.2
		c0,0.1,0.1,0.2,0.2,0.3c0.2,0.1,0.4,0.1,0.6,0.1c0.5,1.5,1.9,1.9,3.2,2.3l0.6,0.2l2.3,0.6c1.3,0.2,2.7,0.4,4,0.6
		c1.9,0.2,3.7,0.5,5.6,0.8c8.5,1.6,16.2,5.1,22.6,8.3l3.7,1.2c1.2,0.5,2.5,0.8,3.7,1.2c1.8,0.5,3.6,1.1,5.3,1.9c0,0,0.1,0,0.1,0.1
		c0.5,0.2,1.1,0.5,1.6,0.8c0.1,0.6,0.6,0.7,1,0.7c0.2,0,0.4,0.1,0.6,0.2l0.4,0.2l0.6,0.3c0,0,0,0.2,0,0.2c1,1,2.2,1.9,3.4,2.7
		c2.4,1.6,4.9,3.4,5.7,6.6l0.1,0.6l0.2,0.7c0.3,0.2,0.5,0.3,0.8,0.5c1.5,0.9,2.9,1.7,3.3,3.6l0.2,0.9c1,4,2.1,8.1,5.7,11
		c1.1,0.8,1.5,2.3,1.2,3.9c-0.3,0.5-0.4,1-0.6,1.6c-0.2,0.6-0.4,1.2-0.7,1.7c-0.1,0.2-0.1,0.3-0.2,0.5c0,0,0,0,0,0
		c-0.1,0.3-0.2,0.6-0.2,0.9c0,0.1,0,0.3,0,0.4c0,0.1,0,0.2,0,0.3c0.1,0.4,0.4,0.6,0.8,0.8c0,0,0,0,0.1,0c0.1,0.1,0.3,0.2,0.4,0.2
		l-0.1,0c0,0,0,0,0,0c0,0,0,0,0.1,0c0,0,0,0,0,0c0,0,0,0,0,0l-0.1,0.1l0.1-0.1c0.1,0.2,0.2,0.4,0.4,0.6c0.3,0.4,0.6,0.7,0.1,1.4
		c-0.8,0.9-0.5,1.9-0.1,2.8c0,0.1,0.1,0.2,0.1,0.3c-0.8,0-1.5,0.3-2.1,0.7c-0.8,1.1-2.1,1.2-3.3,1.3c-1.3,0.2-2.6,0.3-3.5,1.5
		c-4.9,2.8-7.1,7.6-9.2,12.2c-0.4,0.8-0.7,1.6-1.1,2.4c-0.1,0-0.1,0.1-0.2,0.2c0,0,0,0,0,0c-0.1,0.1-0.2,0.2-0.2,0.4c0,0,0,0,0,0
		c0,0.1,0,0.1,0,0.2c-0.2,0.3-0.4,0.7-0.6,1c-0.7,1.2-1.4,2.4-0.4,3.9c0.3,0.4,0.6,0.7,1,0.8c0,0,0.1,0,0.1,0c0.1,0,0.2,0.1,0.3,0.1
		c0.5,0,0.9-0.2,1.4-0.4c0.4-0.2,0.9-0.4,1.4-0.4l1.4,0.1c0.7-0.2,1.4-0.3,2-0.3c1.2,0,2.3,0.3,3.5,0.9c1.4,0.7,2.6,1.1,3.7,1.1
		c0.7,0,1.4-0.2,2-0.5c0.8-0.5,1.7-0.7,2.6-0.7c1.1,0,2.2,0.3,3.3,0.7l0.3,0.1c0.4-0.1,0.8-0.2,1.1-0.4c0.3,0.1,0.5,0.1,0.8,0.1
		c0.6,0,1.2-0.2,1.6-0.7l0,0c0,0,0,0,0,0l0.3,0.1c0.8-0.2,1.3-0.7,1.7-1.3c1.8-2.4,2.5-3.4,3.8-3.4c0.9,0,2.1,0.5,4,1.3
		c1.6,0,3.2-0.2,4.5-1.4c0.1-0.1,0.2-0.2,0.3-0.3c0.3,0.1,0.6,0.1,1,0.1c0.5,0,1-0.1,1.4-0.2c0.5-0.1,1-0.2,1.4-0.2
		c0.1,0,0.3,0,0.4,0l0.3,0c0.5,0,1,0.1,1.6,0.2c0.1,0,0.2,0,0.4,0.1c0.3,0,0.6,0.1,0.9,0.3c0.2,0.1,0.4,0.1,0.6,0.1c0,0,0,0,0.1,0
		c0.3,0.9,1,1.3,1.7,1.7c0.5,0.3,1,0.6,1.3,1.1c0.3,1,1.2,1.5,2,1.9l0.3,0.2l1,0.6l0.3,0.2c0.2,0.8,0.9,1.1,1.6,1.4
		c1.2,1,2.1,2.4,3,3.7c1.1,1.7,2.3,3.4,4.2,4.6c0.7,0.4,1.3,1.2,1.9,1.9c0.8,1,1.6,2,2.9,2.3c0,0,0.1,0,0.1,0c0.2,0,0.3,0.1,0.5,0.1
		c0.2,0,0.4,0,0.5,0l0.8-0.1v-47.5c0,0-0.2,0-0.2,0c0,0-0.2,0-0.2,0c-1.3-3.3-0.8-6.5,0.5-10.2V199.1z M775.8,190.8
		C775.8,190.8,775.9,190.7,775.8,190.8c0,0.1,0,0.2-0.1,0.3C775.7,190.9,775.8,190.9,775.8,190.8z"/>
	<path id="XMLID_77_" class="st1" d="M208.4,244.4l0.3-0.2c0.4-0.3,0.8-0.6,0.8-1c0-0.3-0.1-0.6-0.5-1c-0.8-0.6-0.7-1.3-0.6-2
		c0.1-0.3,0.1-0.6,0.1-0.9c0.3-0.4,0.6-0.6,1-0.6c0.4,0,0.7,0.2,1.1,0.3c0.2,0.1,0.4,0.2,0.7,0.4c0.1,0.2,0.3,0.4,0.5,0.4
		c0,0,0.1,0,0.1,0c0.1,0,0.1,0,0.2,0.1l0.7,1.6l3,3.3l1.4,1.5c0.2,0,0.4,0,0.6,0c1.2,0,2.2-0.4,2.9-1.1c1-1,1.5-2.8,1.5-5.3l0.2-7.1
		l0.5-0.4l0.1-1.4l0-1c0-0.1,0-0.2,0-0.3c0,0,0-0.1,0-0.1l0-0.1l0.4-0.4c0.2-0.2,0.4-0.5,0.6-0.7c0.1-0.4,0.2-0.8,0.3-1.1
		c0-0.2,0.1-0.3,0.1-0.5c0.2-0.7,0.3-1.4,0.4-2c0-0.3,0.1-0.6,0.1-1c0-0.6,0-1.1,0-1.6c0-0.3-0.1-0.5-0.1-0.8
		c-0.1-0.6-0.2-1.2-0.4-1.7c-0.1-0.2-0.1-0.4-0.2-0.6c-0.1-0.3-0.2-0.6-0.3-0.9l-0.2-1.8c-0.7-3.8-0.2-7.7,1.6-12.1
		c-3.3-5.5-3.2-7,0.3-11.1c0.3-0.4,0.6-0.8,0.9-1.2l0.4-0.5c0.2,0,0.4-0.1,0.6-0.3c0.6-0.9,0.9-1.9-0.1-2.8
		c-0.8-0.2-0.7-0.8-0.7-1.6c-0.4-0.3-0.4-0.7-0.5-1.1c-0.1-0.4-0.2-0.8-0.7-1.2c-0.1,0-0.1-0.1-0.2-0.1c0,0,0,0,0,0
		c0.1,0,0.3,0.1,0.4,0.2c1,0.5,2,0.7,3.1,0.9c1.3,0.3,2.7,0.5,3.8,1.3c1.2,2,2.8,3,4.9,3c1,0,2-0.2,3.2-0.6l0.2-0.2l0.3,0
		c3.7-1.2,4.1-1.8,3.1-5.8c-0.5-0.3-1.1-0.4-1.7-0.4c-0.9,0-1.7,0.3-2.6,0.5l-0.6,0.2c-0.6-1.5,0.2-2.5,0.9-3.4
		c0.6-0.8,1.3-1.6,1-2.7c0.1-0.7-0.1-1.1-0.7-1.4c-0.9-1.4-2.1-1.6-3.2-1.6c-0.3,0-1.3,0-1.6,0c-0.3,0-0.5,0-1,0
		c-0.3,0-0.6,0-0.9,0.1c-0.3,0.1-0.6,0.1-0.9,0.1c-0.6,0-1.2-0.2-1.3-1.6c0-0.1-0.1-0.2-0.1-0.3c0-0.1,0-0.2-0.1-0.3
		c-0.1-0.2-0.2-0.3-0.3-0.4c-0.1-0.1-0.2-0.1-0.2-0.2c-0.1-0.1-0.1-0.1-0.3-0.2c-1.2-0.7-1.8-2-1.7-3.7c0.1-3.5-0.7-6.6-2.3-9.7
		c-1.4-2.7-2.6-4.2-4.8-4.2c-0.9,0-2,0.3-3.4,0.8c-0.1,0-0.2,0-0.4,0c-0.6,0-1.2-0.2-1.8-0.4c-0.6-0.2-1.2-0.4-1.8-0.4
		c-0.8,0-1.5,0.5-2,1.4c-1.4,0.7-2.1,2-2.1,4c0,1.8-0.9,2.7-2.9,2.7c-0.5,0-0.9,0.3-1.3,0.7c-0.3,0.8-0.8,1.4-1.5,1.8
		c-0.6,0.4-0.7,1.1-0.5,1.9c0.2,0.5,0.5,0.9,0.9,1.3c0.7,0.5,1.4,0.9,2.4,1.1c0.6,0.1,1.3,0.2,1.9,0.4l0.7,0.2
		c0.9,0.2,1.8,0.3,2.9,0.3c0.5,0,0.9,0,1.4,0c0.2,0,0.3,0,0.5,0c2.2,0,3.4,1,4.4,3.6c0.5,1.4,0.8,2.8,1.1,4.2c0.1,0.5,0.2,1,0.4,1.5
		c0,0.1,0.1,0.3,0.1,0.4c-0.2-0.3-0.4-0.5-0.6-0.7c-0.6-0.8-1.3-1.6-1.5-2.7c-0.9-3.9-1.1-4.7-4-4.7c-0.6,0-1.4,0-2.4,0.1l-0.4,0.1
		c-0.5,0.1-1,0.2-1.3,0.5c-0.7-0.1-1.4-0.2-2.2-0.2c-6.1-0.4-6.1-0.4-6.4-6.5l-2.8-0.3c-2.4-0.8-3.1-2.8-3.7-4.8
		c-0.4-1.1-0.8-2.3-1.5-3.2c-1.2-1.4-1.3-3.1-1.5-4.8c-0.1-0.8-0.2-1.6-0.3-2.3c0,0,0-0.1,0-0.1c-0.1-0.3-0.1-0.6-0.2-0.9
		c0.2-0.8-0.1-1.6-0.4-2.3c-0.2-0.4-0.3-0.8-0.4-1.2c-0.4-1.1-1.1-1.6-2.4-1.8c-0.5-0.1-1.1-0.1-1.6-0.1c-1.1,0-2.2,0-3.3-0.5
		c-0.8,0-1.8,0-2.9,0.3c-0.4,0.1-0.8,0.2-1.3,0.2c-3.4,0-7.4-3.1-8.3-6.3l2.3-2.8c0.5-0.4,1.1-0.7,1.7-1c1.2-0.6,2.3-1.2,2.8-2.2
		c0,0,0,0,0,0c0.1-0.2,0.2-0.4,0.2-0.7c0.2-1.5-1.2-1.9-2.4-2.4c-0.6-0.2-1.2-0.4-1.7-0.7c-0.4-0.2-0.5-0.4-0.5-0.6
		c0-0.2,0.3-0.4,0.6-0.6c0.3-0.2,0.7-0.4,0.7-0.7l1.1-0.3l1.3-0.3c0.2,0,0.5,0,0.7,0c0.7,0,1.4-0.1,1.7-0.5c0.3-0.4,0.1-1.1-0.4-2.1
		l-0.8-1.3c0-0.4,0-0.7,0-1.1c0-0.9,0.1-1.8-0.7-2.7l-0.1-1c-0.6-2.9-2.9-3.3-5.3-3.8l-1.8-0.5l-1.5-0.3c0.1-0.5,0.4-0.7,0.8-0.7
		c0.2,0,0.4,0,0.6,0.1l0.3,0.1c0.2,0,0.3,0,0.5,0c0.5,0,0.9-0.2,1.3-0.4c0.1-0.1,0.1-0.1,0.2-0.2c0.1-0.1,0.2-0.1,0.3-0.3
		c0.1-0.1,0.1-0.2,0.1-0.3c0-0.1,0-0.1,0.1-0.2c0.1-0.3,0.1-0.5,0-0.8c0-0.1,0-0.1,0-0.2c0-0.1,0-0.3-0.1-0.4
		c-0.5-1-0.7-2.1-0.9-3.1c-0.2-1-0.4-2.1-0.9-3l-0.1-0.2c-0.4-0.8-0.8-1.7-1.7-1.7c-0.2,0-0.5,0.1-0.8,0.2c-1.1,0.5-2.1,1.3-1.4,3.2
		l0.2,0.5c0.4,1.1,0.8,2.2,0.3,3.3c-0.1,0.1-0.2,0.3-0.3,0.4c0,0,0,0.1-0.1,0.1c-0.2,0.2-0.4,0.3-0.6,0.5c0-0.2,0-0.4-0.1-0.6
		c-0.1,0-0.2,0-0.3,0c-0.1,0-0.2,0.1-0.3,0.1c0,0,0,0,0,0c-0.3,0.1-0.7,0.2-1,0.4c0,0-0.1,0.1-0.1,0.1c-0.1,0.1-0.3,0.2-0.4,0.3
		c-0.1,0-0.2,0.1-0.2,0.3c0,0.1,0,0.2,0,0.3c-0.4,0.3-0.7,0.6-1,0.8c-0.1,0.1-0.2,0.1-0.4,0.2c0.2-0.3,0.4-0.7,0-1.2
		c0.4-0.2,0.7-0.6,0.8-1.1c0.1-0.1,0.1-0.2,0.2-0.3c0,0,0-0.1,0-0.1c0.2,0.1,0.5,0.2,0.7,0.2c0.5,0,0.9-0.4,1.2-1.3
		c-0.4-3.3-2.9-4.7-5-5.6c-0.2-0.1-0.4-0.1-0.6-0.1l-0.8-1.4c-0.6-1.2-1.6-1.5-2.4-1.5c-0.3,0-0.7,0.1-1.1,0.2
		c-0.5,0.1-0.9,0.2-1.2,0.2c-1.3,0-1.7-0.9-2-2.6c-0.1-0.3-0.1-0.5-0.1-0.8c0-0.7-0.1-1.4-0.6-1.9c-0.8-1.3-1.7-2.1-2.7-2.6
		c0,0,0,0,0,0c-0.7-0.3-1.3-0.5-2.1-0.5c-0.2,0-0.4,0.1-0.6,0.1c0,0-0.1,0-0.1,0c-0.3,0-0.7,0-1,0.1c-0.2,0.1-0.3,0.1-0.4,0.3
		l-1.3-0.6l-1.4-0.6c-0.2,0.1-0.4,0.2-0.6,0.3c-0.5,0-0.9,0.3-1.3,0.6c-0.4,0.3-0.7,0.6-1.2,0.6c-0.2,0-0.3,0-0.4-0.1
		c0-0.2-0.1-0.4-0.1-0.6l-0.9-0.3l-0.8-0.3c0-0.1,0.1-0.3,0.1-0.4c0-1.5-0.1-2.8-0.2-4.1c0-0.1,0-0.2,0-0.2
		c-0.1-0.4-0.1-0.9-0.2-1.3l-0.9-1.3l-0.5-0.3c0-0.2,0-0.4,0.1-0.6c0.2-0.7,0.1-1.2-0.2-1.6c-0.3-0.3-0.8-0.5-1.5-0.5c0,0,0,0,0,0
		c-1.4,0.8-2.9,1.2-4.2,1.2c-2.3,0-4.6-1.1-6.9-3.5c-0.4-0.4-0.9-0.8-1.3-1.1l-0.6-0.5c-0.8-0.7-1.5-1.1-2.1-1.1
		c-1.1,0-1.9,1.1-2.6,2.1l-0.4,0.6l-0.2,1.9c-0.5,0.3-0.9,0.4-1.4,0.4c-0.9,0-1.7-0.4-2.5-0.8l-0.3-0.1c-0.1-0.2-0.2-0.3-0.3-0.4
		c-0.1-0.1-0.2-0.2-0.3-0.4c-0.4-0.5-1-1-1.6-1.4c-0.7-0.7-0.9-1.6-1-2.5c-0.2-0.9-0.4-1.9-1.2-2.6L106,67c-0.4-0.8-1.1-1.2-1.8-1.6
		c-0.7-0.4-1.4-0.8-1.8-1.7c-1.2-2.7-3.8-4.1-5.9-5L81.3,46.8c-0.3-0.2-0.6-0.4-1-0.5l-0.4,0.1c-0.5-0.2-0.9-0.2-1.4-0.3l-0.4,0
		c-1.4-2.1-3-4.2-5.8-5L71,40.6l-1.5-1.6c-0.4-0.9-1.1-1.4-1.8-1.9c-0.7-0.5-1.4-1-1.7-1.7l-0.1-2.2c0.1-2.6-1.8-3.4-3.6-4.2
		L62,28.8c-0.1,0-0.2-0.1-0.4-0.1c-0.2-0.1-0.5-0.1-0.6-0.3L60.9,28c-1.6-4.7-3.2-9.5-8.9-11.2c-0.3-0.1-0.5-0.5-0.7-0.9
		c-0.2-0.3-0.3-0.6-0.5-0.9l-0.4-0.4c-0.7-0.7-1.3-1.4-2.2-1.4c-0.1,0-0.3,0.1-0.4,0.1c0,0-0.1,0-0.1,0c-0.4,0.1-0.9,0.4-1.4,0.9
		c-0.4,0.4-1,0.6-1.7,0.6c-0.7,0-1.7-0.2-2.8-0.7c-1.8-0.8-3.7-1.2-5.7-1.2c-1.4,0-2.7,0.2-4,0.6c-2.8,0.8-5.4,1.1-8.1,1.1l-0.4,0
		l-5.2-3C15.9,8.2,13,6.1,9.6,5.2c-0.3,0-0.7,0-1-0.1c-0.4,0-0.7-0.1-1.1-0.1C7,5.1,6.7,5.1,6.4,5.3c-0.5,0.2-1,0.3-1.5,0.4
		c-1.5,0.2-3,0.5-3.3,2.6c-0.4,1.7-0.4,3.4,0.1,5.1c-0.1,0.6-0.1,1.3,0.6,1.6c0.3,0.4,0,0.8-0.3,1.2c-0.2,0.3-0.5,0.7-0.4,1
		c0,0.2,0.2,0.4,0.6,0.7c0,0,0,0,0,0c0.1,0.2,0.1,0.4,0,0.7l5,8.2c0.4,1,1.2,1.4,2,1.9l0.4,0.3l3.7,3.5l2.1,3
		c0.4,1.3,1.5,1.7,2.6,2.2c1.1,0.4,2.1,0.9,2.6,2.1c0.3,0.8,0.8,1.3,1.5,1.5l3.4,3.1c0.2,0.3,0.3,0.6,0.5,0.9c0.4,0.8,0.9,1.6,1.9,2
		c4.9,0.7,8.6,3.2,11.2,7.4c0.3,0.5,0.8,0.9,1.3,1.2c0.3,0.2,0.5,0.4,0.8,0.6l0,0c0,0,0,0,0,0c0,0,0,0,0,0c0,0,0,0,0,0L41,56.5
		l0.1-0.1c0,0,0,0,0,0c0.3,1.1,0.5,2.2,1.5,3c1,1.6,2.5,2.8,3.9,4c1.8,1.5,3.7,3,4.6,5.2c0,0,0,0.1,0,0.1c0.1,0.3,0.2,0.7,0.3,1
		c0.1,0.2,0.1,0.4,0.1,0.7c0,0.3,0.1,0.5,0.1,0.8c-1,1.6-1,3.3,0.2,5.1c0.7,1.7,2.3,1.8,3.7,1.9l0.4,0c3,0.2,5.8,1.3,8.6,2.5l0.6,1
		c2,0.4,3.3,1.8,4.6,3.2c0.4,0.4,0.8,0.8,1.2,1.2c0.5,0.8,1.1,1.5,2.1,1.5c0.1,0,0.2,0,0.3-0.1c0,0,0,0,0,0c0,0.5,0,1,0,1.5
		c0,0.7,0,1.5-0.1,2.3c0.4,1.2,0.8,2.3,1.2,3.5c1.1,2.9,2.2,5.9,2.4,9.1c0.1,2.6,1,5,1.9,7.3c0.8,2.2,1.7,4.4,1.9,6.8
		c0.1,0.8,0.8,1.3,1.5,1.5l0.2,0l0.2,0.2c4.6,1.1,8.9,2.5,10.9,7.2c0.4,1.4,1.3,2.5,2.1,3.6c0.6,0.7,1.2,1.4,1.6,2.2
		c0.2,0.5,0.5,1,1.1,1c0.1,0,0.3,0,0.3-0.1c0.6,1.1,1.3,1.8,2.2,2.1l0.9,1.4l0.9,1.3c0,0.2-0.1,0.4,0,0.6c0.3,0.6,0.7,1.2,1,1.8
		c1.1,2,2.2,4.1,3.7,5.9l0.1-0.1l0.1,0c-0.1,0.8-0.2,1.7,0.6,2.3c2.5,1.6,3.3,4.2,4.1,6.7c0.5,1.4,0.9,2.9,1.7,4.2
		c0.5,1.3,1.1,2.5,2.4,3.4c0.6,0.3,0.8,0.9,1,1.4l0.1,0.2c0,0,0,0,0,0.1c0,0,0,0,0,0c-3,2.8-2.9,3.8,0.8,8l3.8,4.8
		c0.2,0.7,0.7,1.2,1.1,1.6c0.4,0.3,0.8,0.6,1.1,0.8c0.5,0.4,1.1,0.8,1.6,1.2c0.4,0.3,0.8,0.5,1.3,0.7c0.1,0.4,0.3,0.8,0.7,1.1
		c0.6,2.1,1.8,3.7,3.4,5.4c-0.1,1.3,0.8,1.9,1.6,2.6c0.2,0.2,0.4,0.4,0.7,0.5c2,1.8,4.4,3.5,7.5,5.3c0.2,0.5,0.4,0.9,0.9,1.1
		c0.2,0.1,0.3,0.1,0.5,0.1c0,0,0.1,0,0.1,0l0.1,0.1l0,0.2l0.8,0.3l0.9,0.5c-0.1,0.6,0,1.1,0.3,1.5c0.5,0.8,0.8,1.9,1.1,2.9
		c0.5,1.8,1,3.7,3.1,4.5c0.5,0.9,1.2,1.4,2.3,1.4c0,0,0,0,0.1,0l3,2.5c0.5,0.6,1,1.2,1.9,1.2c0,0,0,0,0,0l1.7,1.3
		c0.5,0.8,1.2,1.3,2.1,1.6c0.9,0.3,1.3,1.1,1.8,1.8c0.6,1,1.2,2,2.6,2c0,0,0,0,0,0c0.1,0.2,0.2,0.3,0.3,0.4c0,0,0.1,0,0.1,0
		c0.1,0,0.1,0.1,0.3,0.1c0,0,0.1,0,0.2,0c1.8,2.1,4.2,3.4,6.4,4.6l1.2,0.6c4.4,2.4,8.9,4.8,10.9,10c0.7,1.7,2.1,2.7,3.4,3.6
		c0.3,0.2,0.6,0.4,0.9,0.6l0.1,0.3c0.2,1.4,0.5,2.8,2.2,2.9c0.3,0.8,0.8,1.2,1.6,1.3l1.1,0.1c0.9,1.8,1.8,2.6,2.8,2.6
		c0.7,0,1.5-0.4,2.3-1.2c0-0.2,0-0.3,0-0.5c0-0.3,0-0.7,0.2-0.9c0.3-0.5,0-1.1-0.4-1.6c-0.3-0.4-0.5-0.9-0.4-1.2
		c0.1-0.3,0.4-0.5,0.8-0.7c0.3-0.1,0.7-0.2,1-0.2c1.3,0,2.3,1,3,1.8c1.5,1.7,3.5,1.9,5.1,1.9C207.9,244.4,208.1,244.4,208.4,244.4z"
		/>
	<path id="XMLID_73_" class="st1" d="M431.5,203.8c0.1,0.2,0.2,0.4,0.3,0.6c0.1,0.2,0.3,0.5,0.4,0.7c0.1,0.6,0.2,1,0.5,1.3
		c-0.2,0.9,0.2,1.6,0.9,1.9c0.1,0.1,0.3,0.1,0.4,0.1c0.5,0,0.7-0.4,1-0.8c0.1-0.1,0.1-0.2,0.2-0.3l1.4-0.6c0.3-0.4,0.7-0.7,1.1-1.1
		c1-0.9,2.1-1.8,1.8-3.5l0,0c0,0,0,0,0,0l0.1-0.3c0-0.1-0.1-0.2-0.2-0.5c0-0.3-0.2-0.6-0.3-0.8c-0.2-0.3-0.3-0.6-0.3-0.9
		c0-0.1,0-0.1,0-0.2c0-0.1,0-0.1,0-0.2c0.2,0,0.3,0,0.5,0c0.2,0,0.4,0,0.6,0c0.3,0,0.8,0,1-0.3c0.2-0.2,0.3-0.6,0.3-1.1
		c0-0.5,0-1,0-1.6c0-1.3,0.1-2.6-0.4-3c-0.1-0.1-0.3-0.2-0.7-0.2c0,0,0,0,0,0c-1.4,0-1.5-0.6-1.6-1.3c0-0.3-0.1-0.6-0.2-0.8
		c-1.3-2.5-0.1-4.5,1.2-6.3c0.6-0.4,0.5-1,0.2-1.5c-0.3-0.9,0-1.7,0.2-2.5c0.1-0.3,0.2-0.7,0.3-1c-0.1-0.8-0.1-1.2,0.2-1.5
		c0.1-0.2,0.4-0.3,0.6-0.3c0.2,0,0.5,0,0.8,0.1c1.3-0.6,2.7-3.3,3.4-5.4c0.5-1.7,0.5-3.1,0.1-3.7c-0.3-0.4-0.6-0.9-1.1-1
		c-0.7-0.2-1.2-0.4-1.4-0.8c-0.3-0.5-0.2-1.2,0.1-2c0.4-1.3,0.7-3.2-0.4-4.9c-0.3-0.5-0.5-1-0.4-1.2c0-0.1,0.1-0.2,0.3-0.3
		c1.5-0.5,1.9-1.7,2.2-2.9c0.2-0.6,0.4-1.2,0.7-1.7c1-0.8,2.2-1.4,3.4-1.9c2-0.9,4.1-1.8,5.2-4l2.3-2.2c1.2-1.8,3.1-2.1,4.8-2.4
		c0.9-0.1,1.7-0.3,2.6-0.6l0.2-0.3c0.3-0.5,0.5-1,1.1-1.1c0.7-0.6,1.3-1.2,1-2.2c-1.1-2-1-3.5,0.1-5c0.3-0.4,0.5-0.8,0.5-1.1
		c0,0,0-0.1,0-0.1c0-0.1,0.1-0.3,0-0.4c-0.1-0.4-0.5-0.7-1.2-0.9c-1.6-0.5-2.4-1.1-2.7-1.8c-0.2-0.7,0-1.6,0.9-2.9
		c0.7-1,1.2-1.9,0.7-3c-1.6-4.5,0.7-7.8,2.8-10.3c0.4-0.6,0.8-1.1,1.3-1.7c0.8-1,1.7-1.9,1.9-3.2c0.1-0.3,0.1-0.6,0.1-1
		c0.4,0,0.8,0.1,1.2,0.3c0.5,0.1,0.9,0.3,1.3,0.3c0.4,0,0.7-0.1,0.9-0.3c0.5,0,0.9-0.1,1.3-0.3c1.6,0.2,3.3,0.3,4.9,0.3
		c2.3,0,4.7,0.1,6.9,0.7c0.7,0.2,1.3,0.3,1.9,0.3c1.7,0,2.9-0.8,3.9-2.6l1.5-2.2c0.7-1.3,1-2,0.7-2.4c-0.3-0.5-1.1-0.6-2.9-0.8
		c-0.3-0.5-0.7-1-1.1-1.5c-0.1-0.2-0.2-0.3-0.4-0.5c-0.4-0.5-0.9-1-1.4-1.5c-0.1-0.1-0.2-0.2-0.3-0.3c-1.9-1.8-4-3.3-6.2-4.7
		c-1.5-1-3.1-2.1-4.6-3.2c-0.5-0.9-1.3-1.4-2.3-1.5l-0.8-0.5c-1.8-0.9-2.5-2.5-3.2-4.2l-0.2-0.3c0.2-0.2,0.2-0.5,0-0.6
		c0.4-1,1.1-1.8,1.8-2.6c0.8-1,1.7-2,2-3.3c0.8-1.2,0.2-2-0.5-2.8c-0.1-0.2-0.3-0.3-0.4-0.5c-3.8-2.6-5.3-6.5-6.8-10.4
		c-0.5-1.3-1-2.7-1.7-4c-0.4-0.8-0.3-1.1,0.4-1.7c2.1-1.7,1.4-3.9,0.6-5.6c-0.2-0.2-0.4-0.5-0.7-0.6c0.1-1,0.8-1.4,1.9-1.9
		c1.2-0.6,2-1.3,2.3-2.2c0.3-0.8,0.2-1.7-0.4-2.7c-0.3-0.3-0.6-0.3-0.9-0.3l-0.5,0c-0.3,0-0.6,0-0.9-0.4c-0.4-0.1-0.6-0.2-0.7-0.4
		c-0.1-0.2-0.1-0.6,0-1c0.8,0,1.5-0.4,2.1-0.8c0.7-0.4,1.3-0.8,2.2-0.8c0.2,0,0.4,0,0.8,0.1c0.1,0,0.1-0.1,0.2-0.1c0,0,0.1,0,0.1,0
		c0.1,0,0.1,0,0.2-0.1c0.2-0.3,0.2-0.7,0.1-1.1l-0.2-0.4c-0.4-1.2-0.9-2.3-2.1-2.9c0,0,0,0,0,0c-0.4-0.2-0.9-0.3-1.6-0.3
		c0,0,0,0,0,0c-0.5,0-1.1,0-1.6,0c-0.9,0-1.8,0-2.7-0.1c-0.5,0-1.1,0-1.6,0c-0.1,0-0.2,0-0.2,0c-1.2-1.3-2.5-2.2-4-2.6c0,0,0,0,0,0
		c-0.9-0.3-1.8-0.5-2.8-0.5c-0.7,0-1.4,0.1-2.1,0.2c-2.3,0.4-4.6,0.6-6.7,0.6c-2.4,0-4.8-0.3-7-0.8c-0.3-0.4-0.7-0.7-1-0.8
		c0,0,0,0-0.1,0c-0.1,0-0.2-0.1-0.4-0.1c-0.3,0-0.6,0.1-0.9,0.3c-0.5,0.2-1,0.5-1.5,0.8c-0.9,0.5-1.8,1.1-2.8,1.1
		c-0.9,0-1.7-0.5-2.5-1.5c-0.2-0.3-0.5-0.4-0.9-0.4c-0.5,0-1.1,0.2-1.5,0.6c-0.4,0.3-0.8,0.6-1.2,1c-1.2,0.9-2.4,1.8-2.9,3.5
		c-0.1,0.2-0.1,0.3-0.1,0.5c-0.2,0.6-0.3,1.3-0.5,2c-0.4,1.8-0.8,3.6-1.6,5.3c-0.7,1.7-0.6,3.4-0.5,5.1c0.1,1.4,0.2,2.8-0.2,4.2
		c-0.6,0.7-0.6,1.5-0.6,2.3l0,0.5c-0.1,2.6-1.2,3.9-3.4,3.9c-0.3,0-0.7,0-1.1-0.1c-0.3,0-0.5-0.1-0.8-0.1c-2.2,0-2.9,1.9-3.4,3.6
		c-0.1,0.4,0,0.9,0,1.3c0.1,0.6,0.2,1.3-0.3,1.8c-0.1,0.3-0.2,0.5-0.3,0.8c-0.4,0.9-0.9,1.9,0.3,2.8c0.4,0.4,0.7,0.7,0.6,0.9
		c0,0.3-0.3,0.5-0.7,0.8c-0.3,0.2-0.6,0.4-0.6,0.6c-1,0.4-1.7,1.1-2.3,2.1c-1.5,0.6-2.5,1.5-3,2.5c-0.5,1.3-0.4,2.8,0.5,4.7
		c0.3,0.7,0.2,1.2,0.1,1.9c-1.5,1-2.4,2.5-2.9,4.6c-1,0.2-1.3,1.3-1.5,2.2c-0.2,0.6-0.3,1.2-0.7,1.2c-0.1,0-0.2,0-0.2-0.1
		c-0.7-0.3-1.5-0.5-2.3-0.5c-1.1,0-2.3,0.3-3.3,0.6c-1,0.3-2.1,0.6-3.2,0.6c-0.6,0-1.1-0.1-1.6-0.2c-0.2,0-0.3,0-0.5,0
		c-1.6,0-2.9,0.7-4,2c-0.9,1-1.8,1.5-3.1,1.5c-0.8,0-1.6-0.2-2.3-0.3c-0.8-0.2-1.6-0.3-2.4-0.3c-0.3,0-0.5,0-0.7,0.1
		c-0.1-0.2-0.1-0.4-0.2-0.6l-1.5-0.9l-1.4,0c-0.3-0.3-0.6-0.6-0.9-0.8c-0.1-0.1-0.2-0.2-0.3-0.3c-1-0.9-2.1-1.6-3.3-2
		c-0.2-0.1-0.3-0.1-0.5-0.2c-0.7-0.2-1.4-0.4-2.1-0.4c-0.2,0-0.3,0-0.5,0c-0.3,0-0.6-0.1-0.9-0.1c-0.6,0-1.3,0-1.9,0.1
		c-0.7,0.1-1.5,0.1-2.3,0.1l-2.1,0c-2.5,0-5,0.2-7.2,2.5c-1.3,0.7-1.5,1.9-1.7,3.1c-0.2,0.9-0.3,1.9-1,2.6c-0.1,0-0.2,0-0.3,0.1
		c-0.1,0.1-0.1,0.2,0,0.3c-1.1,0.2-2.1,0.8-3.1,1.4c-1.2,0.7-2.5,1.4-3.9,1.4c-0.5,0-0.9-0.1-1.5-0.2c-0.1,0-0.2,0.1-0.2,0.1
		c-0.2,0.1-0.4,0.2-0.5,0.4c-0.2,0-0.4,0-0.5,0c-1,0-1.9-0.3-2.9-0.6c-0.9-0.3-1.9-0.6-2.9-0.6c-0.1,0-0.3,0-0.4,0l-1.4-0.1
		c-0.5-0.3-0.9-0.4-1.5-0.4c-0.6,0-1.2,0.2-1.8,0.3c-0.6,0.2-1.2,0.3-1.8,0.3c-0.1,0-0.3,0-0.5,0c-1.9,0.4-3.3,1-4.5,2
		c-0.8,0.7-1.7,1.1-2.6,1.1c-0.8,0-1.6-0.3-2.6-0.9l-0.2-0.1c-0.5-0.2-0.9-0.4-1.4-0.4c-0.1,0-0.2,0-0.3,0.1c-1-2.3-3-3.5-4.9-4.6
		l-0.6-0.3l-0.7-0.2c-0.2-0.2-0.4-0.4-0.6-0.6c-0.2-0.2-0.3-0.4-0.5-0.6c-0.8-0.8-1.6-1.5-2.6-2.2c-0.3-0.8-0.8-1.2-1.4-1.4
		c-1.8-2.6-4-5.8-5.1-9.4c0.7-0.3,1.1-0.7,1.3-1.1c0.1-0.3,0.1-0.5,0-0.8c-0.1-0.3-0.3-0.4-0.5-0.4c-0.3,0-0.6,0.3-0.9,0.6l-0.8,0
		c-2.1,0-4.4,0.2-6,2.3c0,0-0.1,0.3-0.1,0.4c-0.5,0.8-1.1,1.6-1.7,2.3c-1.5,1.9-3,3.9-3.8,6.4c-0.2,1.2-0.4,2.4-0.6,3.5
		c-0.4,3.2-0.9,6.6-3,9.4c-0.4,0.3-0.6,0.6-0.6,1c0,0.4,0.1,0.8,0.5,1.2c0.6,0.4,0.7,1,0.8,1.6c0.1,0.5,0.2,1,0.5,1.3l0,0.7
		c0,0.6,0,1.3-0.1,2c-0.2,1.8-0.4,3.6,1.5,4.7c2.5,1.6,3.7,3.7,3.8,7.2l0,0.7c-2.9,1.7-3.4,3.8-1.7,7.1c0.3,0.7,0.7,1.3,1.2,2
		c1.3,2.1,2.6,4.3,2,7c-0.2,0.2-0.3,0.4-0.3,0.5c0,0.1,0.2,0.2,0.5,0.2c1.5,0.1,3.1,0.3,3.7,1.3c0.4,0.7,0.3,1.7-0.3,3.1
		c-0.8,0.9-0.8,1.8-0.1,3c0.8,0.9,1.6,1.4,2.6,1.4c1,0,2-0.5,3.1-1.5c1-0.9,2-1.4,2.9-1.4c0.8,0,1.5,0.3,2.4,0.8l2.3,5.1l-1.5,4.3
		c0,0,0,0,0,0c-1.3,1.7-1.9,2.4-1.9,3.1c0.1,0.6,0.7,1.1,2,2l-0.1,0.3c0.2,0.1,0.4,0.1,0.6,0.2c0.6,0.2,1.1,0.4,1.5,0.8
		c0.1,0.1,0.1,0.1,0.2,0.2c0.4,1.1,0.3,2.3,0.2,3.5c-0.1,1.3-0.2,2.6,0.4,3.9c0.6,0.7,0.8,1.6,1,2.5c0.2,0.9,0.4,1.9,1.2,2.8
		l-0.2,4.8c-0.3,0.4-0.4,0.8-0.5,1.2c0,0,0,0,0,0.1c0,0.2,0,0.3,0,0.5c0.2,1,1.1,1.8,1.5,2c0.2,0.1,0.3,0.1,0.5,0.1c0,0,0.1,0,0.1,0
		c0.1,0,0.2,0.1,0.3,0.1c0.8,0,1.6-0.6,2.4-1.1c0.4-0.3,0.7-0.5,1.1-0.7l2.1,0.1l0.2,0.3c0.6,1,1.2,2.1,2.2,2.4c0,0,0.1,0,0.1,0
		c0.2,0,0.3,0.1,0.5,0.1c0.6,0,1.2-0.2,2-0.7c0.1-0.1,0.3-0.1,0.5-0.1c0.4,0,0.9,0.2,1.2,0.8c0.5,0.8,1.2,1.3,2,1.3
		c0.5,0,1-0.1,1.7-0.4c0.4-0.3,0.9-0.6,1.3-0.9c1.8-1.2,3.7-2.5,5.7-2.5c1.3,0,2.6,0.5,4,1.6c0.1,0,0.3-0.1,0.5-0.2l0.3-0.2l0.4,0
		l0.3-0.3c0.7-0.3,1.4-0.5,2.1-0.5c0.2,0,0.4,0,0.6,0c0,0,0,0,0,0c-0.1,0.5-0.2,1.1-0.3,1.6c-0.3,1.1-0.6,2.2-0.3,3.3
		c0.1,0.5,0.2,1,0.4,1.5c0.3,0.8,0.5,1.6,0.4,2.6c0.3,0.6,0,1-0.3,1.5c-0.3,0.5-0.5,0.9-0.3,1.6c0.9,0.2,1.8,0.4,2.6,0.4
		c1.3,0,2.3-0.5,3.1-1.5c1.8-2.3,3.6-3.4,5.5-3.4c1.3,0,2.7,0.5,4.2,1.6c0.6,0.4,1.5,1,2.3,1c1,0,1.6-0.7,1.9-2
		c0.6-0.3,1.2-0.6,1.8-0.9c2.3-1,4.7-2.1,4.9-5.6c0-0.3,0.1-0.3,0.2-0.3c0.2,0,0.6,0.3,1,0.5c0.3,0.2,0.5,0.3,0.7,0.4l0.6,0.7
		c0.4,0.7,1,1.2,1.7,1.3c0.7,0.8,1.7,1,2.6,1.2c0.3,0.1,0.7,0.2,1,0.3c0.2,0,0.3,0.1,0.5,0.1c0.4,0,0.9-0.2,1.3-0.3
		c0.4-0.2,0.9-0.3,1.3-0.3c0.5,0,0.9,0.2,1.2,0.6l-0.7,1.4c-0.7,1.7,0.4,2.8,1.5,3.8c0.5,0.2,1,0.4,1.5,0.4c0.5,0,0.9-0.2,1.3-0.5
		c1.8-1.5,3.4-2.2,5.2-2.2c0.5,0,1,0.1,1.5,0.2c0.7,0.7,1.6,0.8,2.4,0.9c0.5,0.1,1,0.2,1.7,0.4c1.4,0,2.4,0.9,3.2,1.7
		c1.8,1.9,1.4,4.4,1,6.5c-0.4,2.5,0,4.5,1.3,6.5c0.5,0.5,1.1,0.7,1.7,0.7c0.6,0,1.2-0.2,1.9-0.7c1.6-0.6,3.2-1.1,4.8-1.7
		c1.7-0.6,3.3-1.2,5-1.8l0.4-0.1c1-0.3,2-0.7,2.5-1.8c0,0-0.1-0.1-0.1-0.1c0,0-0.1-0.1-0.1-0.1c0.3,0.1,0.5,0.2,0.7,0.2
		c0.6,0,1-0.4,1.3-1.3c0.1-0.4,0.2-0.5,0.7-0.5c0,0,0,0,0,0c0.5-0.3,1-0.4,1.5-0.4c0.2,0,1.1,0,1.3,0c1,0,2-0.2,2.3-1.7
		c0.5,0.2,1,0.2,1.5,0.2l1.1,0C430,201.7,431.1,201.9,431.5,203.8z M438.3,202.4C438.3,202.4,438.3,202.4,438.3,202.4l-0.1,0.3
		c0,0,0,0.1-0.1,0.1c-0.2-0.4-0.2-0.5-0.2-0.5l0-0.1c0,0,0,0,0,0v0C438,202.3,438.2,202.4,438.3,202.4z M306.4,158.8
		c0.1,0.1,0.2,0.1,0.3,0.2c0,0,0,0,0.1,0.1C306.6,159.1,306.5,159,306.4,158.8C306.4,158.8,306.4,158.8,306.4,158.8z"/>
	<path id="XMLID_72_" class="st1" d="M666.6,297.4c-0.2-0.1-0.4-0.2-0.6-0.4c-2.3-0.8-4.2-1.2-5.9-1.2c-2.2,0-4.2,0.7-6.1,2.1
		c-0.7,0.5-1.6,1.1-2.6,1.1c-0.5,0-1.1-0.2-1.5-0.5c-0.1-0.6-0.5-0.6-0.8-0.7c-0.2,0-0.3-0.1-0.5-0.2c-0.3,0.1-0.7,0.1-1,0.1l-0.5,0
		l-1.2-0.1c-0.7,0-1.4,0.3-2.2,0.7c-0.9,0.6-2,0.6-3,0.7c-0.8,0-1.7,0-2.4,0.3c-0.6,0-1.2,0-1.7,0.1c-0.6-0.3-1.2-0.4-2-0.4
		c-2.5,0.1-4.9,0.4-7.2,0.9c-0.6,0.1-1.2,0.2-1.9,0.3c-2.4,0.4-4.9,0.7-5.9,3c-2,4.4-5.6,6-9.4,7.7c-0.8,0.4-1.6,0.7-2.4,1.1
		c-6.7,2.1-11.8,4.8-16.1,8.4c-1.3,1.1-2.7,2.3-2.9,4.1c-0.1,1.9-0.8,3.6-1.4,5.3c-0.3,0.9-0.6,1.8-0.8,2.8c0,0.1-0.1,0.2-0.1,0.3
		c0,0,0,0.1,0,0.1c-0.2,0-0.3-0.1-0.5-0.1c-1.1,0-1.9,0.9-2.7,1.6l-0.4,0.5c-0.6,0.9-1.3,1.8-1.2,2.8c0.5,3.5-1.9,5-4.2,6.4
		l-0.5,0.3c-0.5,0.3-0.9,0.6-1.3,0.9c0,0-0.1,0.1-0.1,0.1c-0.2,0.1-0.3,0.3-0.4,0.5c-0.9,0.1-1.6,0.7-2.3,1.3c0,0-0.2,0.2-0.2,0.2
		c0.3,0.5,0.1,1.2-0.1,1.9c-0.2,0.8-0.4,1.6-0.1,2.1c0,0,0.1,0.1,0.2,0.1c0,0,0,0,0.1,0c0.3,0.2,0.8,0.4,1.5,0.4c0.2,0,0.4,0,0.6,0
		l0.9-0.5c0.1,0.1,0.3,0.1,0.5,0.2c0.6-0.1,1.2-0.2,1.9-0.2c2.7-0.3,5.4-0.5,6.2-4.2c1.7-1.3,1.6-3.2,1.5-4.9c0-0.4,0-0.7-0.1-1.1
		c0-0.8,0.1-1.3,0.3-1.5c0.1-0.1,0.3-0.2,0.5-0.2c0.4,0,0.9,0.2,1.4,0.4c1,0.2,2.6,0.4,4.2,0.4c2.7,0,4.7-0.6,6.4-2
		c1.8-1.5,3.6-2.1,5.9-2.1c0.6,0,1.2,0,1.8,0.1c0.3,0,0.5,0.1,0.8,0.1c0.6,0,1.1-0.2,1.5-0.5c0,0,0,0,0,0c0.6-0.4,1-1.1,1.1-2.2
		c0.1,0,0.2,0,0.3-0.1l0.7-0.8l0.9-0.9c0.7-0.4,1.5-0.7,1.4-1.7c0.7-0.1,1.1-0.6,1.3-1.3l0.3-0.4c0.7-0.9,1.3-1.7,2.6-1.7
		c0.3-0.1,0.6-0.3,0.8-0.5c0.7-0.6,1-1.6,1.3-2.5c0.4-1.2,0.7-2.4,2.1-2.9c1.6-0.6,3.2-1.4,4.7-2.2c2.2-1.2,4.5-2.5,7.1-2.8
		c0.3-0.2,0.6-0.2,1-0.2c0.2,0,0.5,0,0.7,0.1c0.3,0,0.5,0.1,0.8,0.1c0.6,0,1-0.1,1.4-0.5c0.3-0.2,0.5-0.3,0.8-0.5
		c0.6-0.3,1.2-0.6,1.7-1.1c1.7-1.4,3.9-1.8,6-2.2c2.9-0.6,5.9-1.1,7.7-4.3c0.1-0.1,0.4-0.2,0.6-0.2c2.4-0.1,4.4-1.1,6.4-2.1
		c0.9-0.5,1.9-1,2.9-1.4c0.3-0.1,0.5-0.2,0.7-0.3c0,0,0.1,0,0.1,0c1.4-0.6,2.3-1.9,3.2-3.1c0.2-0.3,0.4-0.6,0.6-0.9
		C668,298.1,667.3,297.7,666.6,297.4z"/>
	<path id="XMLID_71_" class="st1" d="M580.1,303c1.1,0,2.1,0.2,3.1,0.6c0.2,0,0.4-0.1,0.5-0.1c0.3,0.3,0.6,0.4,1,0.4
		c0.1,0,0.3-0.1,0.4-0.1c0,0,0,0,0.1,0c0.2,0,0.3,0,0.5-0.1c0.3-0.1,0.4-0.3,0.3-0.4c3.4-1,5.9-3.4,8.5-5.7c0.1,0,0.1,0,0.2,0
		c0,0,0.1,0,0.1,0c0,0,0,0,0,0c-0.6,1-0.8,1.9-0.5,2.6c0.3,0.8,1.1,1.6,2.4,2.1c1,0.9,2,1.4,3,1.4c0.1,0,0.2-0.1,0.4-0.1
		c0.1,0,0.2,0,0.3-0.1c0.4-0.1,0.7-0.2,1.1-0.4c0.1,0,0.1-0.1,0.2-0.1c0.2-0.1,0.4-0.2,0.6-0.4c1-0.9,2.1-0.9,3.2-1
		c0.5,0,1-0.1,1.6-0.2c1.5-1.1,3.1-1.2,4.6-1.2l1.3,0c0.9,0,1.9,0,3.1-0.3c1,0,1.7-0.5,2.3-1.4c1.2,0,2.2-0.1,2.8-0.7
		c0.5-0.5,0.7-1.4,0.7-2.7c-0.1-2.3-1-2.7-2.4-2.7c-0.2,0-1.2,0-1.4,0c-1.5,0-3.1,0-4.6,0.1l-4.1,0.1l-0.5,0c-0.6,0-1.2,0-1.8,0.1
		c-0.6,0-1.2,0.1-1.8,0.1c-1,0-1.8-0.1-2.6-0.3l-1.5,1.4c-0.9,1-1.8,1.5-2.7,1.5c-1,0-2-0.7-3-2.1c-0.5-0.7-1-1-1.6-1
		c-0.5,0-1,0.2-1.5,0.6c-1.5,1.2-3.1,1.4-4.4,1.4c-0.6,0-1.3,0-1.9-0.1c-0.6,0-1.3-0.1-1.9-0.1l-0.4,0l-0.7-0.2
		c-0.3-0.3-0.7-0.5-1.1-0.5c-0.5,0-1,0.3-1.4,0.5c-0.8,0.5-1.4,0.7-1.8,0.7c-1,0-1.2-1.1-1.5-2.3c-0.1-0.4-0.1-0.7-0.2-1.1
		c-0.5-0.6-1-0.8-1.6-0.8c-0.4,0-0.9,0.2-1.3,0.5c-1.4,0.1-2.2,0.5-2.6,1.1c-0.6,1,0,2.5,0.6,4.1l0.1,0.1c0,0,0,0,0,0.1
		c-0.6-0.1-1.2-0.1-1.7-0.1c-0.7,0-1.3,0.1-1.8,0.3c-0.1,0-0.1,0.1-0.2,0.1c-0.4,0.2-0.8,0.4-1.1,0.8c0,0-0.1,0.1-0.1,0.1
		c-0.4,0.4-0.7,1-0.9,1.6c-0.6,2-1.7,3-3.2,3c-0.9,0-1.9-0.3-3-1c-0.2-0.4-0.6-0.5-0.8-0.5c-0.1,0-0.3,0-0.4,0c-0.1,0-0.2,0-0.3,0
		c-0.2-0.3-0.4-0.6-0.6-0.9c-0.5-0.8-1.1-1.6-2.3-1.6c-0.2,0-0.4,0-0.7,0.1c-1.1,0.2-2.2,0.6-3.3,0.9c-2.1,0.6-4.3,1.3-6.5,1.3
		c-2.4,0-4.5-0.8-6.4-2.6c-0.2-0.2-0.6-0.2-0.9-0.2c-0.1,0-0.4,0-0.4,0c-1-1.4-2.4-1.5-3.8-1.5c-1,0-2-0.1-2.9-0.6
		c-0.1-0.4-0.5-0.5-0.8-0.6c-0.2,0-0.5-0.1-0.6-0.3l-2.1-0.2c-0.8-0.6-1.7-1-2.6-1c-1.1,0-2.2,0.5-3.2,0.9c-0.9,0.4-1.8,0.8-2.7,0.9
		c-0.1-0.1-0.2-0.2-0.3-0.2c-0.1,0-0.2,0.1-0.3,0.2c-0.8,0.6-1.8,1.1-2.7,1.6c-2.3,1.2-4.7,2.5-5.3,5.6c-0.3,0.2-0.5,0.4-0.8,0.4
		c-0.4,0-0.8-0.3-1.1-0.6c-0.4-0.3-0.7-0.6-1.2-0.6c-0.1,0-0.2,0-0.3,0.1c0,0,0,0,0,0c-0.2-1.9-1.5-2.9-2.8-3.9l-0.3-0.2l-1.6,0.7
		c-0.8,0.8-0.9,1.8-1.1,2.8c-0.1,0.5-0.1,1-0.3,1.5c-0.1,0.1-0.2,0.2-0.4,0.2c0,0,0,0-0.1,0c-1,1.2-1,2.5,0.1,3.7
		c0.8,0.5,1.5,0.8,2.1,0.8c1,0,1.7-0.6,2.3-1.5c0.2-0.2,0.3-0.4,0.5-0.6c0.2,1,0.8,1.8,1.8,2.5c0.3,0.2,0.6,0.4,1,0.6c0,0,0,0,0.1,0
		c0,0,0.1,0,0.1,0.1c0.1,0,0.2-0.1,0.4-0.1c0.1,0,0.2,0,0.3-0.1c0.3-0.1,0.5-0.1,0.7-0.3c0.2-0.1,0.4-0.3,0.6-0.5
		c0.3,0.4,0.6,0.7,1,1c0.4,0.2,0.7,0.3,1.1,0.4c1.4,0.1,2.7,0.1,3.8,0.1l3.6,0c0.5,0,1,0,1.5,0c0.7-0.2,1.4-0.3,2.3-0.3
		c0.8,0,1.5,0.1,2.3,0.1c0.8,0.1,1.5,0.1,2.3,0.1c0.7,0,1.4-0.1,2.1-0.2l-0.2,0.2c0.6,1.2,1.5,1.3,2.2,1.3c0.3,0,0.7,0,1-0.1
		l0.6-0.1c0.3-0.2,0.6-0.3,0.8-0.3c0.1,0,0.2,0,0.4,0.1c0.2,0.2,0.3,0.5,0.4,1.1c0.4,0.3,0.8,0.4,1.3,0.4c0.2,0,0.3,0,0.5-0.1
		l1.9-0.5c3-0.8,6.1-1.6,9.2-1.6c1.4,0,2.7,0.2,4.1,0.5c0.1,0,0.3-0.1,0.6-0.2c1.4-0.7,2.9-1,4.6-1.3c0.5-0.1,1.1-0.2,1.6-0.4
		c1.1-0.3,2.2-0.3,3.4-0.3c0.7,0,1.4,0,2.1-0.1c0.6-0.1,1.2-0.3,1.8-0.5c0.6-0.2,1.1-0.4,1.7-0.5c1.9-0.2,3.8-0.9,5.6-1.7
		C575.6,303.9,577.8,303,580.1,303z"/>
	<path id="XMLID_68_" class="st1" d="M426.2,295.8c-2.5-3.1-5.2-5.9-9.5-6.1c-0.1,0-0.2,0.1-0.2,0.1c-0.1,0-0.2,0-0.3-0.1
		c-0.3-0.2-0.6-0.3-0.8-0.3c-0.1,0-0.2,0.1-0.3,0.1c0,0-0.1,0-0.1,0c-0.1,0-0.2,0-0.3,0.1l-0.8,0.6c-0.5,0.4-1,0.8-1.6,1.1
		c-1.1,0.7-2.7,1.1-4.3,1.1c-2.5,0-4.9-1-6.1-2.4c0,0,0,0,0-0.1c-0.2-0.2-0.3-0.4-0.4-0.6c0-0.5,0-1,0-1.5c0.1-1.4,0.2-2.9-1.5-3.9
		l-2.1,0c-0.7-0.1-1.4-0.5-2-0.8c-0.9-0.4-1.7-0.9-2.8-0.9c-0.1,0-0.2,0-0.3,0l-0.6-0.7c-0.6-0.4-1.2-0.6-1.8-0.6
		c-1.1,0-2,0.6-3,1.3l-5.9,0.3c-0.2,0-0.4,0-0.6,0c-0.2,0-0.4,0-0.6,0c-0.4,0-1,0.1-1.4,0.7c-0.1,0-0.2,0.1-0.4,0.1c0,0-0.1,0-0.1,0
		c-2.8-0.2-5.5-1.1-8.3-2.9c-1.8-1.2-2.6-2.2-2.6-3.3c0-0.6,0.4-1.3,1-2c0.4-0.4,0.9-0.8,1.6-1.3c0-0.1,0-0.1,0-0.2c0,0,0,0,0,0
		l1,0.1c0.4,0.4,0.7,0.7,1,1.1c1.1,0.9,2.4,1.3,3.7,1.3c1.4,0,2.8-0.4,4.4-1l1.2-0.8c0.9-0.2,1.1-0.9,1.3-1.8c0-0.1,0-0.2,0-0.3
		c0,0,0,0,0-0.1l1.9,0.1l1.2-0.5c0.1,0,0.3-0.1,0.4-0.2c1.8-0.6,3.3-0.9,4.7-0.9c0.3,0,0.6,0,1,0c1.5-0.6,2.3-1.3,2.5-2.1
		c0.1-0.8-0.4-1.6-1.5-2.6c-0.3-0.3-0.7-0.3-1.1-0.3l-0.5,0c-0.6,0-1-0.1-1.3-0.7c-0.3-0.3-0.7-0.5-1-0.5c-0.5,0-1,0.4-1.4,0.9
		c-2,0.5-4.1,0.5-5.9,0.5l-3.1,0c-0.9,0-1.9,0-2.8,0.1c-0.7,0-1.4,0.1-2,0.1l-2.1,0c-1.8,0-4,0.1-6,0.9l-0.8,0.8
		c-0.8,0.4-1.6,0.9-2.4,0.9c-0.6,0-1.1-0.3-1.6-0.9c-1-1.5-2.3-1.7-3.3-1.7c-0.6,0-1.2,0.1-1.8,0.2c-0.5-0.2-1-0.3-1.5-0.3
		c0,0-3.1-0.5-3.1-0.5c-1.2-2-2.9-2.2-4.6-2.2l-1.3,0c-0.4,0-0.9,0-1.3-0.1c-0.5-0.3-1-0.7-1.5-1.2c-1-0.9-2-1.8-3.3-1.8
		c-0.7,0-1.4,0.3-2.2,0.8l-1.4,0c-0.4,0.2-0.8,0.3-1.1,0.3c-1.2,0-1.8-1.1-2.3-2.1c-0.8-1.8-2.1-2.9-3.9-3.2l-4.4,0
		c-3.7,0.4-4.2,3-4.7,5.6c-0.1,0.7-0.2,1.4-0.4,2c-0.8,2.6-1.6,3.4-3.2,3.4c-0.8,0-1.8-0.2-3.4-0.6c-0.9-0.2-1.6-0.4-2.4-0.4
		c-0.5,0-0.9,0.1-1.3,0.2l0,0l-0.2-0.1l-0.1,0.1l0,0c-0.5-0.1-1-0.2-1.6-0.2c-0.7-0.1-1.4-0.2-2-0.3l-0.6-0.2
		c-1.4-0.3-2.9-0.7-4.4-0.7c-0.4,0-0.8,0-1.2,0.1l-0.8,0c-0.4-0.1-0.7-0.2-1.1-0.2c-0.9,0-1.8,0.3-2.6,0.5c-0.9,0.3-1.7,0.5-2.6,0.5
		c-0.9,0-1.6-0.3-2.4-0.8l-0.7-0.1c-0.5-0.1-1-0.1-1.5-0.2c-0.5-0.1-1-0.2-1.6-0.2c-3.3-0.5-6.4-0.9-7.1-6c-0.3-2.3-2.9-5.9-6.1-5.9
		c-0.3,0-0.6,0-0.9,0.1c-1,0.2-2.1,0.3-3.1,0.3c-2.6,0-5.1-0.7-7.5-1.3c-1-0.3-1.9-0.5-2.9-0.7c-0.4-0.4-0.8-0.9-1.2-1.3
		c-1-1.2-2.1-2.4-3.7-2.8c-0.1,0-0.2,0-0.3-0.1c-0.3-0.1-0.5-0.2-0.8-0.2c-0.6-0.1-1.1-0.3-1.7-0.6c-0.9-0.3-1.7-0.6-2.5-0.6
		c-1.4,0-2.2,1-2.5,3.2c-0.8,0.5-1.6,0.7-2.4,0.7c-0.6,0-1.2-0.1-1.9-0.3c-0.2-0.1-0.4-0.1-0.6-0.2c0,0,0,0,0-0.1
		c-0.6-0.2-1.2-0.4-1.8-0.6c-2-0.7-4.1-1.4-6.3-1.4c-0.8,0-1.5,0.1-2.2,0.3c-0.2,0.1-0.5,0.2-0.7,0.2c-0.4,0-0.7-0.2-1.2-0.7
		l-0.3-1.1c-0.2,0-0.3-0.1-0.5-0.1c-0.3-0.1-0.5-0.2-0.8-0.2c-0.4,0-0.7,0.2-1,0.5l-0.5,0c-3,1.9-3.9,4.9-4.5,7.9
		c-0.3,0.3,0,0.7,0.2,1.3c-0.1,0.4-0.1,0.7-0.1,1c-0.1,0.1-0.3,0.1-0.4,0.2c-0.6-0.3-1.2-0.4-1.7-0.4c-0.5,0-1,0.2-1.4,0.4
		c0,0,0,0-0.1,0c-0.7,0.5-1.3,1.3-1.6,2.6c-0.3,1.3-0.7,2.7-0.9,4.3v0.8c-0.1,0.1-0.2,0.1-0.3,0.1c-0.3,0-0.6-0.5-0.9-1
		c-0.3-0.5-0.6-1-1.1-1c0,0-0.4,0-0.4,0c-0.3,0-0.7,0-0.8-0.2c-0.1-0.2-0.1-0.6,0.2-1.2c0.2-0.5,0.2-1.1-0.2-1.6
		c-0.4-0.6-1.2-1.1-1.7-1.1c-1,0-1.7,0.8-2.3,1.6c-0.3,0.4-0.6,0.7-0.9,1c-0.9,0.8-0.5,1.3-0.1,1.8c0.1,0.2,0.3,0.4,0.4,0.6
		c1.6,2.9,4.1,4.3,7.9,4.3c0.4,0,0.8,0,1.1,0c0.5,0,1,0,1.6,0c1.1,0,2.3-0.1,3.5-0.2c0.5-0.1,1.1-0.1,1.6-0.1c2.6,0,5.3,0.7,8.4,2.3
		c1.2,0.6,2.4,1.3,2.6,2.3c0.1,0.7-0.2,1.4-0.9,2.3c-1.1,1.2-0.1,2.2,0.6,2.8c1.8,1.7,3.6,2.5,5.8,2.5c0,0,17.8,2.1,17.8,2.1
		l0.8,0.7c0.6,0.3,1.1,0.7,1.6,1.1c0.5,0.4,1,0.7,1.6,1c0.4,0.2,0.8,0.4,1.2,0.5c0,0,0,0,0,0c0,0.2,0.1,0.3,0.2,0.4c0,0,0,0,0,0
		c0.1,0.2,0.2,0.3,0.4,0.4c0,0,0.1,0,0.1,0.1c0.1,0,0.1,0.1,0.2,0.1c0.4,0,0.8-0.2,1.3-0.5c0.2-0.1,0.4-0.1,0.7-0.1
		c0.6,0,1.2,0.2,1.8,0.4c0.4,0.1,0.8,0.3,1.2,0.4l0.7,0.8c0.8,0.2,1.6,0.6,2.3,1c1.1,0.6,2.2,1.2,3.5,1.2c0.8,0,1.5-0.2,2.3-0.7
		c0.1-0.3,0.2-0.6,0.3-1.1l2.5-1.9c0.2,0,0.4,0,0.7,0l1.1,0c0.3,0,0.8,0,1.1-0.1c0.2,0.1,0.5,0.2,0.8,0.2c0.4,0.1,0.8,0.1,1.2,0.1
		c0.5,0,1-0.1,1.5-0.2c0.2-0.1,0.5-0.2,0.6-0.2l0.3,0.2c1-0.2,2-0.3,3.1-0.3c3,0,5.9,0.7,8.8,1.3c2.1,0.5,4.2,1,6.4,1.2
		c1.8,0.7,3.5,1.7,5.2,2.6c2.5,1.4,5.2,2.8,8,3.5c0.1,0,0.2,0,0.4,0.1c0.6,0.1,1.1,0.3,1.7,0.4c0.4,0.8,1,1.2,1.8,1.2
		c0.2,0,0.3,0,0.5,0c0,0,0.3-0.1,0.3-0.1c1.2,1.1,2.6,1.6,4.3,1.6c0.4,0,0.8,0,1.2-0.1c0.8-0.1,1.8-0.2,2.9-0.2
		c1.2,0,2.2,0.1,3.1,0.4l1.1,0.1c0.7,0.6,1.6,0.6,2.5,0.7c1.1,0.1,2.2,0.1,2.9,1.2c0.3,0.4,0.6,0.6,1,0.7c0,0,0,0,0,0
		c0.1,0,0.2,0.1,0.3,0.1c0.5,0,1.1-0.3,1.6-0.6c0.6-1.5,1.6-1.7,2.5-1.7c0.4,0,0.7,0,1.1,0.1c0.4,0,0.7,0.1,1.1,0.1
		c0.1,0,0.3,0,0.4,0l2.2,0.1c0.7,0.2,1.4,0.4,2.2,0.6c1.2,0.4,2.5,0.8,3.9,0.8c0.2,0,0.4,0,0.6,0l3.6,0.8c0.2,0.1,0.4,0.2,0.6,0.3
		c0.2,0.1,0.3,0.2,0.5,0.2c0.3,0.2,0.7,0.3,1.1,0.4c0.3,0.1,0.5,0.1,0.8,0.1c0.2,0,0.3,0.1,0.5,0.1c0,0,0,0,0,0
		c0.2-0.1,0.4-0.2,0.6-0.3c0.4,0.1,0.8,0.1,1.2,0.1c1.6,0,3-0.7,4.5-1.4c0.2,0,0.4-0.1,0.5-0.1c0.3,0,0.6,0,0.9,0
		c0.4,0,0.8,0,1.2-0.1c0.3-0.1,0.7-0.1,1-0.2c0.7-0.2,1.4-0.4,2.1-0.4c0.5,0,1,0.1,1.5,0.3l0.8,0.5l0.4,0.3c0.7,0.5,1.3,1.1,2.1,1.5
		c0.1,0,0.1,0.1,0.2,0.1c0.3,0.2,0.5,0.3,0.8,0.5c0.3,0.1,0.6,0.2,1,0.2c0.1,0,0.2,0,0.3,0l0.3,0.3l1,0.3c0.2,0.2,0.4,0.5,0.5,0.8
		c0.7,0.7,1.6,1.1,2.5,1.4c0.3,0.1,0.5,0.2,0.8,0.3c1.6,0.6,3.4,0.9,5.6,0.9l0.6,0c1.1,0,2.3,0.1,3.3,0.9c1.1,0.8,2.2,1.2,3.6,1.2
		c0.2,0,0.3-0.1,0.5-0.1c0,0,0,0,0.1,0c0.5,0,0.9-0.1,1.4-0.2c0.4-0.1,0.7-0.3,0.9-0.6c0.6-1.2,0.6-2.4-0.3-3.7
		c-0.2-0.3-0.5-0.6-0.7-0.8c-0.7-0.6-1.6-1-2.7-1.4c-0.2-0.1-0.4-0.1-0.5-0.2l-0.7-1.5l0,0l0.3-0.1c0.3-0.4,0.7-0.5,1-0.5
		c0.4,0,0.8,0.3,1.3,0.8c0.9,1,2,1.6,3.1,1.7c2.8,0.2,5.2,1.5,7.4,2.8c0.2,0.1,0.3,0.1,0.4,0.1c0.1,0.4,0.2,0.8,0.2,1.1
		c-0.6,0.6-1.1,1.2-1.3,2.1c0.6,1.9,1.7,2.1,2.6,2.1c0.5,0,1-0.1,1.5-0.2c0.4-0.1,0.8-0.1,1.3-0.2c1.3-0.5,1.6-1.7,1.8-2.8l0.1-0.3
		c0.3-0.5,0.5-0.8,0.7-0.8c0.2,0,0.3,0.3,0.5,0.6c0.1,0.2,0.3,0.5,0.4,0.6c0.1,0.1,0.2,0.1,0.3,0.2c0.4,1.2,1.3,1.9,2.6,1.9l0.3,0
		c1.2-0.1,1.3-1.1,1.5-2c0-0.3,0.1-0.6,0.2-0.9l-0.1-0.3c-0.2-0.5-0.4-1.1-1.1-1.1h0c-0.5-1.1,0.2-1.5,1-1.9
		c0.3-0.1,0.5-0.3,0.7-0.4l0.3-0.3c1.3-1,2.6-2,1.4-4.1L426.2,295.8z M240.3,249.2C240.3,249.3,240.3,249.3,240.3,249.2
		c-0.1,0-0.1-0.2-0.2-0.3C240.1,249,240.2,249.1,240.3,249.2z"/>
	<path id="XMLID_67_" class="st1" d="M822.3,253c-1-0.5-1-1.9-1-3.2c0-2.9-0.3-5.2-1-7.4c-0.4-0.8-0.3-1.6-0.3-2.4
		c0.1-1,0.1-2-0.5-2.9c-1.3-1.2-2.3-1.9-3.2-1.9c-0.1,0-0.2,0.1-0.3,0.1c0,0,0,0,0,0c-0.9,0.2-1.6,1.3-2.4,3.1
		c-0.7,1.5-1.8,2.4-3.5,2.7c-0.9,0.2-1.5,0.8-1.6,1.5c-0.1,0.6,0.2,1.2,0.7,1.5c0.9,0.5,1.3,0.9,1.3,1.4c0,0.7-0.9,1.2-1.6,1.6
		c-3.1,1.8-3.8,3.9-2.7,7.6c0.8,2.7-0.1,5.5-2.5,7.4c-0.7,2.6-0.5,3,2.7,5.1c0.3,0.1,0.6,0.2,0.8,0.4c0.4,0.2,0.9,0.4,1.4,0.4
		c0.2,0,0.5-0.1,0.7-0.2l1.9-1.1c0.1-0.1,0.3-0.1,0.4-0.2c2.5-1.3,3.7-3.7,4.8-6l0.4-0.2c0.2-0.1,0.3-0.2,0.5-0.3
		c0.1,0,0.1-0.1,0.2-0.1c0,0.2,0,0.4,0,0.6c0.1,0.5,0.1,1-0.4,1.3c-0.7,0.7-1,1.5-0.9,2.2c0.1,0.5,0.4,0.9,0.9,1.2
		c0.3,0.2,0.6,0.3,0.9,0.3c0.9,0,1.3-0.8,1.7-1.6c0.2-0.4,0.4-0.7,0.6-1c0.4-0.3,0.7-0.7,0.7-1.1c0-0.4-0.2-0.8-0.7-1.3
		c-0.2-0.1-0.3-0.2-0.3-0.5c-0.3-0.8-0.7-1.2-1.1-1.2c0,0,0,0,0,0c0,0,0,0,0,0c0.3-0.3,0.7-0.3,1.1-0.3c0.2,0,0.8,0,1,0
		c0.4,0,0.8,0,1.2-0.4c0.2-0.2,0.3-0.4,0.5-0.6c0.7-0.9,1.4-1.7,1.2-2.6C824,254.1,823.4,253.6,822.3,253z"/>
	<path id="XMLID_66_" class="st1" d="M402.2,210.7C402.2,210.8,402.3,210.8,402.2,210.7C402.2,210.8,402.2,210.8,402.2,210.7
		L402.2,210.7z"/>
	<path id="XMLID_65_" class="st1" d="M764.3,272.8c-0.2-1-1.3-1.7-2.4-2.3c-0.9-0.5-1.9-0.7-3-0.7c-0.2,0-0.5,0.1-0.7,0.1
		c-0.1,0-0.1,0-0.2,0c-1.2,0.1-2.4,0.6-3.4,1.2c-0.1,0.1-0.2,0.1-0.2,0.2c-0.3,0.2-0.6,0.5-0.8,0.7c0,0-0.1,0.1-0.1,0.1
		c-0.3,0.3-0.5,0.6-0.7,0.9c-1.6,2.9-3.6,4.2-6.3,4.2c-0.3,0-0.6,0-1-0.1c-0.2,0-0.4,0-0.6,0c-0.5,0-1,0.1-1.6,0.2
		c-1,0.2-1.5,0.9-1.3,1.9c0.1,0.7,0.6,1.1,1.3,1.1c0.1,0,0.3,0,0.4,0c0.5-0.1,0.9-0.2,1.2-0.2c0.5,0,0.8,0.1,0.9,0.3
		c0.3,0.4,0,1.2-0.2,1.8c-0.1,0.3-0.2,0.6-0.3,0.8c-0.2,0.7-0.6,1.3-1,2c-0.9,1.4-1.9,2.8,0,5c0,0.3-0.7,0.8-1.1,1l-3.3,2.2
		c-0.3,0.2-0.6,0.4-0.8,0.5c-1.4,0.9-2.9,1.7-2.6,3.9c0.3,0.1,0.6,0.2,0.9,0.2c0.8,0,1.5-0.4,2.1-0.8c0.6-0.4,1.2-0.8,1.9-0.8
		c2.6,0,5.4-0.5,6.6-3.8c0.2-0.4,0.6-0.6,1-0.8c0.5-0.3,1.1-0.5,1.2-1.2l3.1-5.1c3-2.7,5.4-5.2,3.9-9.5c-0.1-0.2-0.1-0.4,0-0.5
		c0.1-0.3,0.6-0.3,1.1-0.4c0.3,0,0.6,0,0.9-0.1c0.3,0,0.6-0.1,0.9-0.1c0.4,0,0.8,0.1,1.2,0.4c1.4-0.1,3.1-0.2,3.2-1.8
		c0-0.1,0-0.3-0.1-0.4C764.4,272.9,764.4,272.8,764.3,272.8z"/>
	<path id="XMLID_64_" class="st1" d="M498.8,304.1c0-0.4-0.1-0.8-0.2-1.2c-0.3-1-1.2-1.5-2-1.8l-0.9-0.7c-0.1-1.4,0.2-2.7,0.6-4.2
		c0.1-0.3,0.4-0.6,0.7-0.8c0.6-0.5,1.2-1.1,0.3-2.3c-0.1-0.3-0.3-0.6-0.8-0.6c0,0-0.3,0-0.3,0c-1.4,0-2.5,0.7-3.5,1.4
		c-0.7,0.5-1.5,1-2.3,1.3c-0.4,0-0.7,0.1-1.3,0.2c0,0-0.2,0-0.2,0c-0.2,0-0.3,0.1-0.4,0.2l-3-0.7c-0.7-0.6-1.3-1-1.9-1
		c-0.8,0-1.5,0.7-2.2,1.3c-0.4,0.3-0.7,0.7-1.1,0.9c-2.4-0.5-2.8-2.2-3.3-4.1c-0.1-0.3-0.2-0.6-0.3-1c-0.5-0.2-0.9-0.2-1.3-0.4
		c0,0,0,0,0,0c-0.9-0.2-1.7-0.4-2.4-0.5c-0.1,0-0.2,0-0.2,0c-0.3,0-0.5-0.1-0.8-0.1c-2,0-3.8,0.6-5.4,1.8c-0.5,0.4-1.2,0.5-1.7,0.5
		c-0.3,0-0.6,0-0.9,0c-0.3,0-0.5,0-0.8,0c-0.5,0-1.1,0.1-1.2,0.7c-0.4,3.3-1.4,3.9-3.6,3.9c-0.5,0-1.2,0-1.9-0.1l-0.4,0
		c-2.1,0-5.7,2-8,4.5c-1.5,1.4-1.7,3.3-2,5.1c-0.1,1.1-0.3,2.2-0.7,3.2c0,1,0.2,2.8,1.9,3.3c0.6,0.2,1.3,0.3,1.9,0.5
		c1.9,0.6,3.9,1.1,6,1.1c0.3,0,0.5-0.1,0.8-0.1c0.2,0,0.3,0,0.5-0.1c0.4,0,0.7,0,1.1-0.1c1.7-0.4,3.3-0.8,4.9-1.3
		c2.6-0.7,5.3-1.5,8.1-1.8c0.5-0.5,0.9-0.9,1.4-1.3c0.7-0.2,1.5-0.3,2.2-0.4c1.3-0.1,2.5-0.3,3.5-1.1c0.2-0.1,0.3-0.3,0.4-0.4
		c0.1-0.1,0.2-0.1,0.3-0.2c0.2,0.1,0.3,0.2,0.5,0.4c0.2,0.2,0.4,0.4,0.7,0.5c0.9,0.7,1.8,1.5,3,1.5c0.3,0,0.6,0,0.9-0.2
		c1.8-0.6,3.7-0.8,5.6-0.9c1.1-0.1,2.3-0.2,3.4-0.4C495.3,308.3,498.4,307.8,498.8,304.1z"/>
	<path id="XMLID_63_" class="st1" d="M654.8,282l-0.5-0.3c-1-1.4-2.2-2.1-3.5-2.1c-1.1,0-2.3,0.4-3.8,1.3c-1.8,1.1-3.3,1.6-4.6,1.6
		c-1.3,0-2.5-0.5-3.7-1.5c0,0,0,0,0,0c0,0-0.1,0.1-0.1,0.1c0,0-0.1,0.1-0.1,0.1c-0.8,1.3-1.5,2.4-3,3.2c-1.6,0.8-2.4,2.7-2.1,5.1
		c0.1,1.1,0.5,1.6,1.1,1.6c0.3,0,0.7-0.1,1.1-0.4c2.7-1.5,5.6-1.7,8.2-1.7c0.8,0,1.6,0,2.3,0l1.7,0c0.4,0.2,0.7,0.3,1,0.3
		c0.8,0,1.4-0.6,1.9-1.2c0.9-1.4,2.2-2.1,3.7-2.2l1.3-0.8c0.4-0.5,0.6-0.9,0.6-1.3c0,0,0-0.1,0-0.1c0-0.1,0.1-0.2,0-0.3
		C656.2,282.9,655.5,282.5,654.8,282z"/>
	<path id="XMLID_62_" class="st1" d="M258.7,191.4c0.2,0.3,0.4,0.4,0.7,0.4c0.7,0,1.5-0.6,2.2-1.1l0.3-0.2c0.4,0,0.7-0.2,1.1-0.5
		c0.3-0.2,0.6-0.4,1-0.4c0.2,0,0.4,0,0.5,0.1c0.4,1.9,1.3,2.3,1.9,2.3c0.7,0,1.5-0.5,2.2-1.3c2.4-2.9,3.7-6,4-9.2
		c0-0.2-0.1-0.5-0.2-0.7l-1.2-0.8l-0.3-0.2l-0.3-0.1c0,0,0.1-0.3,0.1-0.3c-0.3-0.9-0.8-1.4-1.7-1.6l-2.8-1.5
		c-1.4-0.4-2.7-0.6-3.9-0.6c-1.3,0-2.5,0.2-3.7,0.6c-0.8,1.5-1.1,3.2-1.3,4.9c-0.2,1.7-0.5,3.4-1.3,5c-0.7,1.3,0.6,2.8,1.7,4.1
		C258.1,190.6,258.5,191,258.7,191.4z"/>
	<path id="XMLID_61_" class="st1" d="M194.5,118.1c-0.4-0.2-0.8-0.4-1.2-0.4c-0.3,0-0.5,0.1-0.7,0.3c-0.3,0.2-0.5,0.6-0.5,1
		c0,0.4,0.1,0.8,0.4,1c1.2,1.2,0.5,2-0.3,3c-0.9,1.1-1.1,2.4-1.2,3.7c-0.4,0.8,0.1,1.4,0.5,1.9c0.3,0.4,0.6,0.7,0.7,1.2
		c0,0,0,0.1,0,0.1c-0.3-0.1-0.6-0.1-0.9-0.1c-0.3,0-0.5,0.1-0.8,0.1c-0.1,0-0.2,0-0.3,0.1c-0.2,0.1-0.4,0.1-0.7,0.2
		c-0.2,0.1-0.3,0.2-0.5,0.3c-0.3,0.2-0.5,0.4-0.7,0.6c-0.1,0.1-0.2,0.2-0.2,0.3c-0.2,0.3-0.4,0.7-0.5,1.1c0,0.1-0.1,0.2-0.1,0.3
		c-0.1,0.2-0.2,0.4-0.2,0.6c-0.2,1.2,0.8,1.4,1.7,1.5c0.6,0.1,1.3,0.2,1.6,0.7c0.1,0.1,0.2,0.1,0.3,0.2c0.3,0.1,0.6,0.3,0.9,0.5
		c0.5,0.3,1,0.7,1.6,0.7c0.4,0,0.8-0.2,1.2-0.6l0.3-0.3c1.1-1,2.2-2,1.4-4c-0.4-0.9-0.4-1.6-0.1-2c0.2-0.3,0.7-0.5,1.4-0.5
		c0.4,0,0.9,0.1,1.4,0.2c0.5,0.1,1.1,0.4,1.6,0.6c0.7,0.4,1.5,0.7,2.3,0.7c0.2,0,0.4,0,0.6-0.1c0.1-1.3,0.2-2.6-0.6-3.4
		c-0.1-0.1-0.3-0.2-0.4-0.3c0,0-0.1-0.1-0.1-0.1c-0.4-0.3-0.9-0.4-1.6-0.5c-1.5-0.4-1.7-1.6-2-3
		C198.5,121.2,197.1,119.4,194.5,118.1z"/>
	<path id="XMLID_60_" class="st1" d="M686,83.2C686,83.2,686,83.2,686,83.2c5.8-0.1,9.2-3.6,9.3-9.7c0-1.9-0.8-4-1.9-5.1
		c-0.5-0.5-1.1-0.8-1.6-0.8c-0.2,0-0.4,0-0.5,0.1c-3,1.2-5.7,4.1-6.8,7.2c-0.7,1.8-1.1,4.6,0.5,7.5C685.1,82.8,685.4,83.2,686,83.2z
		"/>
	<path id="XMLID_59_" class="st1" d="M668.5,152.3c-0.4,0-0.8,0-1,0.6c-1,1.5-1,3,0,4.7l0.2,1.1c0.6,1.1,1.2,2.1,2.1,2.4
		c0,0,0.1,0,0.1,0c0.1,0,0.2,0.1,0.4,0.1c0.5,0,1.1-0.2,1.8-0.7c1.2-0.7,2.5-0.8,3.5-0.8c0.5,0,1.1,0,1.6,0.1c0.5,0,1.1,0.1,1.6,0.1
		c0.7,0,1.2,0,1.7-0.2c0.1,0,0.2,0,0.3,0c0.3,0,0.7,0.1,1,0.1c0.3,0.1,0.7,0.1,1,0.1c0.8,0,1.1-0.4,1.3-1.3c0-0.2,0-0.4,0-0.7
		c0-0.1,0-0.3,0-0.4c0-0.4,0-0.8-0.1-1.1c-0.1-0.3-0.1-0.5-0.2-0.8c-0.1-0.2-0.2-0.4-0.3-0.5c-0.1-0.2-0.2-0.3-0.4-0.4
		c-0.2-0.2-0.5-0.4-0.7-0.6c-0.1-0.1-0.2-0.1-0.3-0.2c-0.2-0.1-0.4-0.2-0.6-0.3c-1.7-0.5-3-1.2-4.1-2.2c-0.3-0.6-0.8-1-1.5-1.2
		c-0.1,0-0.3-0.1-0.4-0.1l-0.4-0.7l-0.9-0.7l-0.3-0.8c-0.6-0.6-1.5-1.3-2.4-1.3c-0.6,0-1.2,0.3-1.8,0.9c-0.1,0.1-0.1,0.3-0.2,0.4
		c0,0.1-0.1,0.1-0.1,0.2c0,0.1-0.1,0.2-0.1,0.3l-0.6,0.6c-0.6,0.8-0.2,1.4,0.2,2c0.3,0.5,0.5,0.9,0.5,1.3c-0.1,0-0.2,0-0.4,0
		C668.6,152.3,668.6,152.3,668.5,152.3z"/>
	<path id="XMLID_58_" class="st1" d="M730.3,131.2c0.1,0,0.3,0,0.4,0c0.1,0,0.3-0.1,0.4-0.1c0,0,0,0,0,0c0.1,0.4-0.1,0.8-0.3,1.2
		c-0.2,0.5-0.4,0.9-0.2,1.5l1.3,1.1l0.8,0.7c0.7,0.2,1.3,0.3,2,0.3c2,0,3.6-1.1,5.2-2.1l0.8-0.6c0.3,0.3,0.5,0.4,1,0.5
		c0.8,0,1.6-0.2,2.4-0.4l0.7-0.2c0.5-0.2,1.1-0.3,1.6-0.3c1-0.1,2.1-0.2,2.8-1.3c0-0.1,0.1-0.3,0.1-0.5l0.3-0.1
		c0.8-0.4,1.6-0.9,1.6-2l-1.5-1.6l-0.9-1.3l-3.1-2.2c-0.3,0.1-0.7,0.2-1,0.2c-0.7,0-1.5-0.3-2.1-0.5c-0.7-0.3-1.4-0.5-2.2-0.5
		c-0.1,0-0.2,0-0.3,0c-0.7-0.1-1.3-0.2-2-0.2c-2.3,0-4.6,0.7-6.7,1.3c-1.2,0.4-2.4,0.7-3.6,1c-0.9,0.2-1.6,0.7-1.8,1.4
		c-0.3,0.9,0,2.1,1,3.2C727.9,130.7,729.1,131.2,730.3,131.2z"/>
	<path id="XMLID_57_" class="st1" d="M180.6,102.6l0.3,0.2c2.2,1.4,4.5,2.8,5.4,5.6c0,0,0,0,0,0c0,0,0,0,0,0
		c2.3-0.3,3.7-1.3,4.1-3.3c0-0.1,0-0.1,0.1-0.2c0.4,0.2,0.7,0.6,1,0.9c0.4,0.5,0.9,0.9,1.6,0.9c0.5,0,0.9,0.1,1.3,0.1
		c3,0,3.6-1.2,3.8-5.8c-0.5-0.8-1.2-1.6-2.2-2.1c-1.2-1-2.5-1.2-3.6-1.2c-0.4,0-0.9,0-1.3,0c-0.4,0-0.9,0-1.3,0c-0.2,0-0.4,0-0.6,0
		c-0.2,0-0.4,0-0.7,0c-0.5,0-1-0.1-1.5-0.1c-0.5-0.1-1-0.1-1.5-0.1c-1.2,0-2.1,0.4-2.8,1.2c-0.3,0.7-0.9,0.7-1.5,0.8
		c-0.6,0.1-1.2,0.1-1.5,0.7c-0.3,0.5-0.3,0.9-0.2,1.2C179.7,102,180,102.3,180.6,102.6z"/>
	<path id="XMLID_56_" class="st1" d="M715.6,162.7c0.1,0.3,0.2,0.5,0.4,0.8c0,0,0,0,0,0c0.1,0.1,0.2,0.3,0.4,0.4
		c1.7,1.2,3.7,2.6,5.8,3.7c0.5,0.2,1.2,0.4,2,0.4c2.8,0,6.6-1.5,6.8-3.2c0.3-2.3,0.5-4.7-1.3-6.6c-0.2-0.1-0.4-0.3-0.6-0.4
		c-0.3-0.3-0.7-0.5-1.1-0.6c0,0,0,0,0,0c-0.1,0-0.2-0.1-0.3-0.1c-0.3,0-0.6,0.1-0.9,0.3c-1.3,0.8-2.9,1.6-4.8,1.6c-0.2,0-0.8,0-1,0
		c-1.5,0-2.9,0.5-4.3,1.6c-0.8,0.6-1.1,1.2-1.1,1.8C715.5,162.4,715.6,162.5,715.6,162.7C715.6,162.6,715.6,162.6,715.6,162.7z"/>
	<path id="XMLID_52_" class="st1" d="M662.5,140.3c0,0.1,0,0.1,0.4,0.2l0.2,0.1c1.8,1,2.7,1.6,3.3,1.6c0.5,0,0.7-0.5,0.7-1.6
		c0-0.3,0-0.6,0.1-0.9c0.8,2.2,2.8,2.7,4.8,3.1c0.7,0.1,1.3,0.3,1.9,0.5c0.2,0,0.3-0.1,0.5-0.1c0.2,0.1,0.4,0.2,0.6,0.2
		c0.3,0.1,0.6,0.1,0.8,0.1c0.9,0,1.6-0.5,1.9-1.5l0.8-1.2c0.4-0.1,0.7-0.4,1.1-0.6c0.5-0.4,1.1-0.7,1.7-0.7c0.4,0,0.9,0.2,1.3,0.6
		c0.3,0.4,0.7,0.5,1.1,0.7c0.6,0.2,1.2,0.5,1.4,1.4c0,0.1,0.1,0.2,0.2,0.3c0,0.1,0.1,0.2,0.1,0.2c0.1,0.1,0.2,0.2,0.4,0.3
		c0.1,0,0.2,0.1,0.3,0.1c0.1,0,0.2,0.1,0.3,0.1c0.3,0,0.7-0.1,1-0.1c0.3-0.1,0.6-0.1,0.9-0.1c0.7,0,1.2-0.4,1.3-1.1
		c0.1-1-0.6-1.4-1.2-1.9c-0.1-0.1-0.3-0.2-0.4-0.3l-2-1.4l-5.9-10.1c0.1-1-0.4-1.8-0.8-2.5c-0.2-0.3-0.4-0.6-0.5-0.9
		c0-0.1-0.1-0.3-0.2-0.4l0-1.1c1.3-1.5,1.4-3.3,1.5-5.1c0-0.8,0.1-1.6,0.2-2.3c0.2,0,0.4,0,0.7,0c0.1,0,0.1,0,0.2,0
		c0.9,0,1.8,0.2,2.7,0.4c2.2,0.6,4.5,1,6.7,1.3c0.9,0.1,1.8,0.3,2.7,0.5l1.6,1.1c0.5,0.3,1.2,0.3,1.7,0.4c0.8,0.1,1.6,0.1,2.2,0.8
		c0.3,0.3,0.6,0.6,1,0.6c0.2,0,0.4-0.1,0.5-0.3c0.3-0.4,0.1-0.9-0.2-1.3c-0.1-0.2-0.3-0.5-0.3-0.7l-4.3-2.9c0-0.2,0-0.5-0.1-0.8
		c0-0.8-0.1-1.5-0.6-2.2c0.1-0.6,0-1-0.3-1.4c-0.5-0.6-1.4-0.8-1.9-0.8c0,0-0.3,0-0.4,0c-1,0-1.8-0.5-2.6-0.9
		c-0.5-0.3-1-0.6-1.5-0.7c-0.9-0.3-1.6-0.6-1.5-1.6c0.1-0.9,1-1.2,1.8-1.5c7.9-2.9,8.1-3.6,8.3-11.8c0.1-1.9-0.2-3-0.8-3.6
		c-0.4-0.4-0.9-0.6-1.5-0.6c-0.5,0-1.2,0.1-1.9,0.3c-3.5,0.8-7.8,2.2-10.4,6.5c-0.3,0.5-0.5,1-0.4,1.5c0,0.1,0.1,0.2,0.2,0.3
		c0,0,0,0,0,0.1c-0.2,0.1-0.5,0.1-0.7,0.2c-0.3,0.2-0.6,0.4-0.9,0.7c-0.1,0-0.1,0.1-0.2,0.1l0.1-0.1c0.1-0.2,0.2-0.3,0.3-0.5
		c0.1-0.2,0.2-0.4,0.3-0.6c0.3-0.5,0.6-1,0.6-1.6c1.8-3.3,1.6-7.3-0.4-9.8c-2-2.5-1.3-3.6,0.3-5.5c0.7-0.8,1.7-2.1,0.6-3.3
		c-0.4-0.5-1-0.7-1.7-0.7c-0.7,0-1.4,0.3-2.1,0.7c-3,2-5.1,4.2-6.4,6.9c-0.8,0.8-1,1.8-1.3,2.8c-0.2,0.8-0.4,1.6-0.9,2.4l-0.8,5.3
		c-3,3.6-2.9,5,0.1,8.1c1.5,1.5,1.7,3.3,0.8,5.6c-0.5,1.3-0.3,2.5-0.1,3.8l0.1,0.5c0.1,0.3,0.2,0.6,0.2,0.9c0.1,0.6,0.3,1.3,0.8,1.8
		c0.2,0.3,0.5,0.5,0.7,0.8l0.8,3.5l0.6,3.5c-1.3,0.7-1.6,1.8-1.9,3c-0.2,0.6-0.3,1.2-0.7,1.7c-0.1,0.1-0.1,0.2-0.2,0.3
		c-0.2,0-0.3,0-0.5,0c-0.9,0-1.7-0.5-2.5-0.9c-0.8-0.5-1.6-0.9-2.6-0.9c-0.2,0-0.4,0-0.7,0.1c-1.8,0.8-2.7,2-2.8,3.5
		c-0.1,1.4,0.4,2.7,0.8,4.1C662.5,136.6,663.1,138.3,662.5,140.3z M677.1,102.6c0.4-0.2,0.7-0.5,1-0.8c-0.2,0.4-0.3,0.8-0.3,1.3
		c-0.3,0.1-0.5,0.3-0.8,0.5c-0.3,0.3-0.6,0.5-1,0.5c-0.1,0-0.2,0-0.3,0c0,0,0,0,0,0C675.9,103.4,676.5,103,677.1,102.6z
		 M678.8,100.8c-0.1,0.1-0.2,0.3-0.3,0.4c0-0.1,0-0.2,0-0.3C678.6,100.9,678.7,100.8,678.8,100.8z"/>
	<path id="XMLID_51_" class="st1" d="M848,156.3c-0.7,0-1.4,0.1-2,0.2c-1.4-0.2-2.9-0.3-4.3-0.4c-1.6-0.1-3.2-0.2-4.8-0.5
		c-0.3-0.1-0.5-0.1-0.8-0.2c-0.4-0.1-0.7-0.2-1.1-0.3c-1,1.1-1.3,2-1.1,2.6c0.2,0.7,1.1,1.2,2.6,1.5c0.8,0.2,1.7,0.2,2.5,0.2
		c1.6,0.1,3.3,0.1,4.7,1.3c2.5,1.6,5.4,2.3,8.2,2.9l1.2,0.3c0.8,0.2,1.5,0.3,2.1,0.3c1.6,0,3-0.5,3.9-1.6l3.7-0.5c0.2,0,0.4,0,0.6,0
		c0.7,0,1.2-0.1,1.7-0.3c0.5-0.5,0.8-0.8,0.7-1.1c0-0.1-0.1-0.1-0.1-0.2c0,0,0,0,0,0c-0.2-0.2-0.4-0.3-0.7-0.4
		c-0.4-0.1-0.8-0.3-0.8-0.6c-0.6-0.7-1.3-0.8-1.8-0.8c-0.3,0-0.5,0-0.8,0.1c-0.3,0-0.5,0-1,0.1l-1.1-0.7l-1.2-0.8
		c-0.6,0.1-1.2,0.2-1.9,0.2c-1.4,0-2.8-0.3-4.2-0.6C850.9,156.7,849.4,156.3,848,156.3z"/>
	<path id="XMLID_50_" class="st1" d="M632.5,160.3l-3.7-0.8c-1,0-1.9-0.5-2.8-0.9c-0.9-0.5-1.8-0.9-2.9-0.9c-0.5,0-0.9,0.1-1.3,0.3
		c0,0-0.1,0-0.1,0c0-0.2,0-0.4-0.1-0.7c-3.3-0.9-7.3-1.8-11.5-1.8c-0.8,0-1.6,0-2.4,0.1c-1.6,0.1-2.5,0.7-3,1.8c0,1-0.4,2-0.8,2.9
		c-0.5,1.3-1.1,2.7-0.6,4.2c0.1,1.6,1.3,2.1,2.2,2.3c0.1,0.2,0.2,0.4,0.4,0.4c0.1,0,0.1-0.1,0.1-0.1c0,0,0,0,0,0
		c0.1,0,0.1,0,0.2-0.1l0.3,0c1.9,0,3.6-0.7,5.2-1.5c1.4-0.6,2.9-1.3,4.5-1.4l1.7,1.3c0.3,0.3,0.5,0.4,0.7,0.4c0.3,0,0.5-0.1,0.7-0.4
		c0.8-0.7,1.9-1.2,3-1.2c0.3,0,0.7,0,1,0.1c2,0.5,3.9,0.7,5.8,0.7c2,0,3.9-0.3,5.7-0.9c0.1,0,0.2,0,0.4-0.1c-1,3,0.1,5.5,1.4,7.5
		l0.3,0.4c0.4,0.7,0.9,1.3,0.8,2.1l1.4,1.7c0.4,0.2,0.8,0.4,1.2,0.4c0.4,0,0.8-0.2,1-0.7c1-1.2,1.1-2.4,0.2-4
		c-1.5-2.6-1.9-3.9-1.5-4.9c0.4-1.2,1.8-2,4-2.9c0.3-0.1,0.6-0.3,0.9-0.5c0.2-0.2,0.5-0.3,0.7-0.4c0.7-0.4,1.1-0.8,1.1-1.3
		c0-0.5-0.5-0.9-1.1-1.1l-0.6-0.2c-2.3-0.7-4.6-1.4-7-1.4C635.8,158.7,634.1,159.2,632.5,160.3z"/>
	<path id="XMLID_49_" class="st1" d="M267.1,44.5c0.4,0.2,0.7,0.4,0.4,1c-0.9,0.9-1.2,1.6-1,2.2c0.2,0.9,1.5,1.3,2.4,1.6
		c0.3,0.1,0.6,0.1,0.9,0.1c0,0,0,0,0,0c1,0,2-0.4,3-0.9c1.3-0.9,2-1.8,2.3-2.9c0.8-1.5,0.8-3,0-4.4l-3-3.6c-0.6-1.4-1.2-2.1-1.9-2.1
		c-0.8,0-1.6,0.9-2.4,1.7l-0.3,0.3c-1.9,1.3-2.8,2.2-2.9,3.3c-0.1,1,0.5,2.1,2.1,3.6C266.9,44.4,267,44.5,267.1,44.5z"/>
	<path id="XMLID_48_" class="st1" d="M650.2,41.3c0,0,0,0.1,0,0.1c0.1,0.1,0.1,0.3,0.2,0.4c0.3,0.4,0.4,0.9,0.5,1.5
		c0.3,1,0.6,2,1.4,2.3c0,0,0,0,0,0c0.2,0.1,0.4,0.2,0.6,0.2c0.4,0,0.8-0.1,1.4-0.3c0.2-0.3,0.5-0.6,0.7-0.9c0.8-1,1.7-2,1.3-3.6
		c-0.1-1.2,0.4-2.2,1-3.1c0.2-0.4,0.5-0.8,0.6-1.1c0.8-1.8,0.8-3.6,0-5.1c-0.8-1.5-2.3-2.6-4.3-3c-0.5,0.2-1.1,0.6-1.2,1.1
		c-0.1,0.3,0,0.7,0.2,1.1l0.2,4.3c0,0.4,0.1,0.6,0.4,0.8c0.2,0.7,0.2,1.4-0.1,1.9c-0.3,0.4-0.7,0.7-1.3,0.8c-1,0.2-1.6,0.6-1.9,1.3
		c0,0.1,0,0.2,0,0.3c0,0.1,0,0.1,0,0.2C650.1,40.8,650.1,41.1,650.2,41.3z"/>
	<path id="XMLID_47_" class="st1" d="M589.4,151.6c0.1-1-0.7-2-2.2-3.1c-0.7-0.3-1.4-0.6-2.1-0.9c-2.1-0.9-4.3-1.9-6.6-1.9
		c-1.2,0-2.4,0.3-3.5,0.8c-0.2,0.3-0.3,0.5-0.4,0.8c-0.7,0.1-1.3,0.5-1.6,1.2c-0.2,0.6-0.5,1.2-0.8,1.8c-0.7,1.3-1.5,2.6-0.5,4.3
		c1,1.8,2.1,2.6,3.3,2.6c0.6,0,1.1-0.2,1.8-0.5c0.4-0.2,0.7-0.3,1-0.3c0.4,0,0.7,0.2,1.1,0.7c0.7,0.8,1.2,1.2,1.8,1.2
		c0.7,0,1.3-0.7,1.8-2.1l0.6-0.7c0.2,0,0.5,0,0.7,0c1.1,0,2.1-0.3,3-0.8C588.4,153.6,589.3,152.6,589.4,151.6z"/>
	<path id="XMLID_46_" class="st1" d="M640.1,187.4c-0.9,0-1.7,0.9-1.9,1.9c-1.2,2.4-1,4.1,0.8,5.5c3.3,4.9,8.7,7.3,13.5,9.1
		c0.4,0.1,0.7,0.2,1.1,0.2c1.6,0,3.2-1.1,4.8-2.1c0.9-0.6,1.8-1.1,2.6-1.5c2.2,0,4-0.2,5.2-2.2c0.3-1.7,0.7-3.4-0.2-5.1
		c-1.3-0.8-2.4-1.9-3.5-3c-1.5-1.5-3.1-3-5.1-3.7c-0.1-0.1-0.3-0.2-0.4-0.2c-0.1,0-0.2,0-0.3,0c0,0,0,0,0,0c-0.8-1-1.7-1.5-2.7-1.5
		c-0.3,0-0.7,0.1-1.1,0.2c-1.5,0.3-2.9,0.6-4.3,1c-2.5,0.7-5.1,1.3-7.8,1.3C640.6,187.4,640.3,187.4,640.1,187.4z"/>
	<path id="XMLID_45_" class="st1" d="M789.5,236.2c0,0,0-0.1,0-0.1c0.1-0.3,0.1-0.7,0.1-1.1c0-0.1,0-0.2,0-0.3
		c-0.1-0.4-0.2-0.8-0.3-1.2c0,0,0-0.1-0.1-0.1c-0.1-0.2-0.1-0.4-0.3-0.7c-0.8-0.6-1.6-0.9-2.2-0.9c-0.9,0-1.6,0.6-2.1,1.8
		c-0.1,0.3-0.1,0.7-0.1,1.1c0,0.8,0,1.5-1.2,1.8c0,0,0,0,0,0l0,0c0,0,0,0,0,0l-0.1-0.1l-0.1-0.1l0.1,0.1l-0.1,0l0.2,0.2c0,0,0,0,0,0
		l0,0c0,0,0,0,0,0c0,0,0,0,0,0c0,0.2,0,0.4-0.2,0.5c-0.2,0.5-0.3,1-0.5,1.4c-0.2,0.8-0.4,1.6-1,2.3c-0.6,0.3-1.1,0.7-1.7,0.9
		c0,0,0,0,0,0l-0.2-0.5c-0.3-0.8-0.6-1.6-1.2-2.1c0,0-0.1,0-0.1-0.1c-0.2-0.2-0.6-0.3-0.9-0.4c-0.1,0-0.2,0-0.3-0.1
		c-0.1,0-0.2-0.1-0.4-0.1l-0.1,0.1c-0.1,0-0.1,0-0.2,0c0,0,0,0.1,0,0.1l-0.1,0l0,0.3c-0.9,0.3-1.1,1.1-1.2,1.8
		c0,0.2-0.1,0.4-0.2,0.6l1.4,2.3l0,0.6c0.1,1,0.2,1.9,0.9,2.6c0,0,0.1,0.1,0.1,0.1c0.1,0.1,0.2,0.2,0.3,0.3c0,0.2,0,0.5,0.2,0.7
		l0.7,0.2l0.7-0.2l1.1,0c0.1,0.1,0.2,0.2,0.4,0.3c0.2,0.1,0.4,0.1,0.6,0.1c0.2,0,0.4-0.1,0.5-0.2c0.1,0,0.1,0,0.2,0
		c0.2-0.1,0.3-0.2,0.4-0.3c0,0,0.1-0.1,0.1-0.2c0.1-0.1,0.3-0.2,0.4-0.4c0.4-0.9,0.9-1.9,0.7-2.9c0.5-0.6,0.9-1.3,1.4-2
		c1-1.5,2.1-3,3.3-4.4c0.2-0.2,0.3-0.5,0.5-0.7c0,0,0,0,0,0C789.2,237,789.4,236.6,789.5,236.2z"/>
	<path id="XMLID_44_" class="st1" d="M634,54.1c0.1,0.1,0.3,0.2,0.4,0.3c0.1,0.1,0.1,0.1,0.2,0.2c0.2,0.2,0.5,0.3,0.7,0.4
		c0.1,0,0.2,0.1,0.3,0.1c0.1,0,0.2,0.1,0.4,0.1c0.6,0,1.2-0.2,1.9-0.7c1.2-0.9,1.4-2.1,0.5-3.8c-0.3-0.3-0.6-0.7-0.9-1
		c-0.7-0.7-1.3-1.4-1.7-2.3c-0.6-1.4-1.4-2.1-2.3-2.1c-0.7,0-1.4,0.3-2.5,1c-0.4,1-0.8,2.4,0.1,3.7L634,54.1z"/>
	<path id="XMLID_43_" class="st1" d="M555.2,128.7c-0.9,0-1.7,0.4-2.4,0.8l-0.5,0.1c-1.7,1-3.5,2.3-4.6,4.4c-0.2,0.3-0.2,0.6-0.2,1
		l0.3,0.4l0.7,0.7c0,0,0,0,0,0c0,0,1.3-0.4,2-0.6c1.5-0.4,2.9-0.9,4.4-1.4c1.8-0.7,2.9-1.2,3.1-2c0.2-0.8-0.6-1.8-2.1-3.3
		C555.5,128.7,555.4,128.7,555.2,128.7z"/>
	<path id="XMLID_42_" class="st1" d="M416.5,270.4l0.2-0.1c0.8-0.5,1.8-0.6,2.8-0.7c1.4-0.1,2.8-0.3,3.6-1.7
		c0.2-0.4-0.3-1.2-0.6-1.7c-0.8-1.1-1.9-1.6-3.8-1.6c-0.2,0-0.4,0-0.6,0l-0.5,0.1c-1.2,0.1-2.8,0.3-3,2.2c-0.1,0.9,0.5,2.3,1.1,3
		C416.1,270.3,416.3,270.4,416.5,270.4z"/>
	<path id="XMLID_41_" class="st1" d="M684,294.3c-0.1-0.1-0.1-0.3-0.2-0.4c-0.1-0.4-0.2-0.7-0.5-0.8c-0.8-0.2-1.6-0.6-2.4-0.9
		c-1.2-0.6-2.4-1.1-3.8-1.1c-0.3,0-0.5,0-0.8,0.1c-0.8,0.1-1.2,0.4-1.4,0.8c-0.2,0.4-0.1,0.9,0.2,1.5c0.9,1.6,2.5,2.2,4,2.8
		c0.6,0.2,1.1,0.4,1.7,0.7c0,0,0.2,0,0.2,0c0.6,0,1.9-0.8,2.6-1.9c0.1-0.1,0.1-0.2,0.2-0.4C683.8,294.5,683.9,294.4,684,294.3z"/>
	<path id="XMLID_40_" class="st1" d="M821.8,147.9c0.4,0.5,0.8,0.6,1.2,0.6c0.2,0,0.3,0,0.5,0c0.2,0,0.3,0,0.5,0
		c0.2,0,0.4,0,0.6,0.1l0.1,0c0.6,0,1-0.4,1.3-0.8c0.1-0.2,0.3-0.3,0.4-0.4c0.7-0.8,0.9-1.6,0.7-2.2c-0.2-0.8-0.9-1.4-2.2-2.1
		c-0.7-0.3-1.3-0.5-1.9-0.5c-1.3,0-2.2,0.8-2.7,2.5C820,146.3,820.4,147.3,821.8,147.9z"/>
	<path id="XMLID_39_" class="st1" d="M833,139.7l0.3,0.2c0.1,0.1,0.2,0.2,0.3,0.3c0.2,0.3,0.5,0.6,0.9,0.8c0,0,0,0,0,0
		c0.1,0,0.2,0.1,0.4,0.1c0,0,0.1,0,0.1,0c0.1,0.8,0.7,0.9,1.4,1.1c0.2,0.8,0.9,1,1.5,1.2c0.6,0.2,1.2,0.4,1.4,1.1
		c0.2,0.4,0.4,0.9,0.8,1.1c1.1,2,2.9,2.5,4.8,3.1c0.7,0.2,1.3,0.4,1.9,0.7c1.1,0.5,2.1,0.7,3,0.7c1.8,0,3.3-0.9,4.8-2.9
		c-0.1-1.4-1.1-2.2-2.2-3c-0.3-0.1-0.5-0.2-0.7-0.2c-0.3,0-0.6,0.2-0.7,0.6c-0.3,0.3-0.6,0.4-0.8,0.4c-0.5,0-0.7-0.6-0.8-1.1
		c-0.2-1.2-0.9-2.2-1.6-3.2c-0.2-0.3-0.4-0.5-0.6-0.8c-0.2-0.3-0.5-0.4-0.8-0.5c0,0-0.2,0-0.2,0l-0.4-0.6l-0.8-1l-1.4-0.1l-2.2,0
		c-1-0.6-2.2-0.7-3.3-0.9c-1.1-0.1-2.1-0.2-2.9-0.7c-0.7-0.4-1.3-0.6-1.8-0.6c-0.9,0-1.5,0.6-2.1,2
		C831.7,138.5,832.4,139.1,833,139.7z"/>
	<path id="XMLID_38_" class="st1" d="M365,240.5c-1.2-1.2-2.4-1.8-3.6-1.8c-0.7,0-1.5,0.2-2.3,0.7c0.1,0.6,0.5,1,0.8,1.5
		c0.6,0.8,1.2,1.7,0.6,3.2c-0.2,0.4-0.2,0.7,0,0.9c0.4,0.6,1.7,0.7,2.6,0.7l0.2,0c0.6,0,1-0.2,1.3-0.4c0,0,0,0,0.1-0.1
		c0.1-0.1,0.2-0.1,0.2-0.2c0.2-0.3,0.3-0.8,0.1-1.3c-0.2-0.6-0.1-1.2,0-1.8C365,241.5,365.1,241,365,240.5z"/>
	<path id="XMLID_37_" class="st1" d="M695.9,270c-0.3-0.1-0.5-0.3-0.8-0.5c-0.5-0.4-1.1-0.8-1.7-0.8c-0.4,0-0.9,0.2-1.3,0.6
		c-0.9,0.8-1.8,1.9-1.3,3.5c0.4,1.4,1.3,2.2,2.6,2.3c0.1,0,0.3,0,0.3,0c1.1,0,1.4-0.8,1.7-1.6c0.2-0.5,0.3-0.9,0.7-1.3
		c0.4-0.4,0.6-0.8,0.6-1.2C696.5,270.6,696.3,270.3,695.9,270z"/>
	<path id="XMLID_36_" class="st1" d="M219,65.4c0.1,0,0.2,0,0.3,0c0.2,0,0.3-0.1,0.5-0.2c0.1,0,0.1,0,0.2-0.1
		c0.3-0.1,0.6-0.3,0.9-0.5c0,0,0.1,0,0.1-0.1c0.3-0.2,0.5-0.5,0.7-0.7c0-0.1,0.1-0.1,0.1-0.2c0.2-0.3,0.3-0.5,0.3-0.8
		c0-0.1,0-0.2,0.1-0.3c0-0.1,0.1-0.3,0.1-0.4c0-0.2-0.1-0.4-0.1-0.6c0,0,0,0,0,0c-0.3-1-1.3-1.9-3.2-2.6c-1.7,0.8-1.8,2.5-1.8,3.7
		C217.2,63.4,217.4,65.4,219,65.4z"/>
	<path id="XMLID_35_" class="st1" d="M710.7,127.6c0.6,0.5,1.2,1,1.8,1.5c0.2,0.2,0.5,0.3,0.7,0.3c0.2,0,0.5-0.1,0.6-0.3
		c0.6-0.6,0.2-1.1-0.2-1.6c-1.6-2.3-3.7-4.1-5.9-5.8l-1.3,0c-0.1,0-0.1,0-0.2,0c0,0,0,0,0,0l0,0C706.8,124.4,708.8,126,710.7,127.6z
		"/>
	<path id="XMLID_34_" class="st1" d="M700.5,292.4c-0.3,0-0.7-0.1-1-0.1c-1.5,0-2.5,0.5-3.1,1.6c-0.2,0.4-0.3,0.7-0.2,0.9
		c0,0.1,0.1,0.2,0.2,0.2c0,0,0,0,0,0c0.2,0.2,0.5,0.4,0.8,0.5l0.2,0.1c0.7,0.7,1.7,1.1,3,1.2c0,0,0,0,0,0c0,0,0,0,0,0
		c1.7-0.3,2.7-1.2,2.7-2.5C703.1,293.2,701.8,292.6,700.5,292.4z"/>
	<path id="XMLID_33_" class="st1" d="M283.3,159.4c0.1,0,0.3,0,0.4-0.1c1.3-0.3,3.6-0.9,3.6-2.7c0-1.5-1.3-1.5-2.2-1.5
		c-0.4,0-0.7,0-0.9-0.1c-0.3,0-0.5,0-0.8,0c-0.7,0-1.2,0.2-1.5,0.5c-0.3,0.3-0.4,0.8-0.3,1.5C281.8,158.6,282.4,159.4,283.3,159.4z"
		/>
	<path id="XMLID_32_" class="st1" d="M530.1,275.7c0,0,0.1,0.1,0.1,0.1c0.1,0,0.1,0.1,0.2,0.2c0.6,0.2,1.2,0.5,1.7,0.8
		c0.9,0.5,1.8,0.9,2.8,0.9c0.5,0,1.1-0.1,1.6-0.5c0-0.3,0-0.4,0-0.7c0-0.1,0-0.2,0-0.2c0-0.4-0.1-0.7-0.2-0.9
		c-0.1-0.2-0.2-0.4-0.3-0.5c0-0.1-0.1-0.2-0.1-0.2c-0.7-0.8-1.9-0.8-3-0.9c-0.7,0-1.5-0.1-2.1-0.3l-0.2,0.4
		c-0.3,0.6-0.7,1.2-0.6,1.7C530,275.7,530.1,275.7,530.1,275.7z"/>
	<path id="XMLID_31_" class="st1" d="M587.1,234.9c1.3,0.5,2,0.7,2.6,0.7c0.5,0,0.8-0.2,1-0.6c0,0,0-0.1,0.1-0.1
		c0.3-0.6,0.5-1.5,0.5-2.9c-0.7-0.6-1.5-0.9-2.4-0.9c-0.8,0-1.6,0.3-2.3,0.9c-0.9,0.7-0.4,1.5,0.1,2.3
		C586.9,234.5,587,234.7,587.1,234.9z"/>
	<path id="XMLID_27_" class="st1" d="M490.5,177.1c-0.3,0.4-0.7,0.7-1.1,1.1c-1,0.8-2,1.7-1.7,3.4c-0.1,0.7,0.4,1,0.8,1.4
		c0.3,0.2,0.6,0.5,0.7,0.9c0.1,0,0.2,0,0.3,0c0.1,0,0.2,0,0.3,0c0.5,1.1,0.1,2.2-0.3,3.3c-0.4,1.1-0.8,2.2-0.3,3.3
		c0,0.3,0,0.6,0,0.9c0,1-0.1,2,0.6,3.1c0,0.5,0,1,0.6,1.3c0.7,1.5,1.6,2.4,3.1,2.4c0.6,0,1.2-0.1,2-0.4c0.4-0.1,0.8-0.3,1.2-0.4
		c1.4-0.6,2.9-1.1,4.5-1.1c0.4,0,0.8,0,1.1,0.1c0.1,0.2,0.2,0.4,0.3,0.5c0.2,0.4,0.5,0.8,0.4,1c-1.2,3.4,0.3,5.9,2.2,8
		c0.5,0.6,0.6,1.3,0.6,2c0,0.3,0,0.7,0.1,1c0.8,3.6-0.3,7-1.4,10.3c-0.8,2.4-1.6,4.9-1.6,7.4c0,0,0,0,0,0.1c0,0.4,0,0.8,0,1.2
		c0,0.3-0.5,0.8-0.8,1.1c-2.3,2-2.2,4.6-1.9,6.7c0.2,2,1.1,3.3,2.9,3.8c0.3,0.2,0.6,0.4,0.9,0.5c0.8,0.4,1.5,0.8,2.1,1.7
		c0.5,1,1.5,1.6,2.6,1.6c1.3,0,2.6-0.8,3.4-2c1.2,0,2.4-0.3,3.5-0.5c1.3-0.3,2.6-0.5,3.9-0.5c1.6,0,3,0.4,4.3,1.4
		c0.2,0.1,0.4,0.2,0.6,0.2c0.5,0,1-0.4,1.2-0.9c0.3-0.8-0.3-1.1-0.8-1.5l-0.3-0.1c0.2-0.7-0.1-1.1-0.5-1.5c-0.2-0.2-0.3-0.4-0.4-0.5
		c0-1.6-0.4-3.3-0.8-4.8c-0.6-2.4-1.2-4.8-0.3-7.2c0,0,0,0,0,0c0.1-0.4,0.3-0.7,0.5-1.1c1.3-2.5,2.7-5.2,0.7-8.1l0-0.6
		c0-1.1-0.1-2.2-0.6-3.2c0.1-1.2,0.2-2.4,0.2-3.5c0.1-2.4,0.1-5,1.3-7.3c0.3-0.4,0.3-0.8,0.1-1.3c0-0.1,0-0.1,0-0.2c0,0,0,0,0,0
		c0,0,0,0,0,0l-0.2,0.1l0-7.1c0.3-0.2,0.5-0.4,0.5-0.8c0-0.2-0.1-0.4-0.1-0.6c0-0.5,0-1.1-0.7-1.1c0,0,0,0,0,0
		c0.1-0.8-0.3-1.4-0.7-1.9c-0.8-1-1.2-2-1-2.9c0.2-0.9,0.8-1.7,2-2.5c0.6-0.4,1.2-0.9,1.6-1.5c0.1-0.2,0.3-0.4,0.4-0.5
		c0,0,0,0,0.1-0.1c0.5-0.5,1.1-0.7,1.7-0.9c0.5-0.2,1-0.4,1.4-0.7c0.3,0,0.6,0,0.9,0l1.7,0c1.3,0,2.6,0.1,3.8,0.9l0.2,4.7
		c0.4,1.4-0.4,2.4-1.3,3.5c-0.8,0.9-1.6,2-1.6,3.5c-0.8,1.5-1.1,2.8-1,3.9c0,0.1,0,0.2,0,0.3c0.1,0.4,0.2,0.8,0.3,1.1
		c0.1,0.1,0.1,0.2,0.2,0.3c0.1,0.2,0.2,0.4,0.3,0.5c3.6,3.9,7.6,7.2,11.7,9.7c0.2,0.5,0.6,0.5,1,0.6c0.2,0,0.4,0.1,0.6,0.1
		c0.6,0.2,0.9,0.5,1,0.8c0.1,0.4-0.1,0.8-0.5,1.3c-0.8,0.9-0.8,2-0.7,3c-1.6,2-2,4.3-1,6.8c0.1,0.2,0.2,0.4,0.3,0.7
		c2,3.7,5.6,4.3,8.8,4.4c0.6,0.4,1.2,0.5,1.8,0.5c1.3,0,2.4-0.8,3.4-1.7c0.5-1,0.1-1.9-0.4-2.6c-0.2,0-0.3-0.1-0.5-0.3
		c-0.1-0.6-0.2-1.3-0.1-2c0.3-0.2,0.5-0.5,0.6-0.8c0-0.1,0.1-0.2,0.1-0.3c0.3-0.1,0.6-0.1,0.8-0.2c0.4-0.1,0.8-0.1,1.2-0.4l0,0
		c0,0,0,0,0,0c0,0,0,0,0,0l0.3,0.1c0.3,0,0.7,0,1-0.1c0.6-0.2,1.2-0.4,1.9-0.7c0.1,0,0.2-0.1,0.3-0.1c0,0,0,0,0.1,0c0,0,0.1,0,0.1,0
		c0.2,0.1,0.5,0.2,0.7,0.2c0.3,0,0.7-0.1,1-0.3c0.4,0.6,1,0.9,1.5,1.2c0.3,0.2,0.7,0.4,1.1,0.5c0.2,0.1,0.4,0.1,0.6,0.2
		c0.1,0.1,0.3,0.1,0.4,0.2c-0.2,0-0.4,0-0.6,0c-1.7,0-3.1,1.1-4.5,2.2c-0.4,0.3-0.7,0.6-1.1,0.9c-0.2,0.1-0.5,0.2-0.7,0.3
		c-0.2,0.1-0.3,0.3-0.4,0.5l-0.7,0.7l-0.7,0.7c0.9,1.9,1.1,3.9,0.5,6.1c-0.3,0.5-0.7,0.9-1.2,1.3c-0.7,3.7-0.1,4.7,3.4,5.4
		c0.2,0,0.4,0.1,0.6,0.1c0.7,0.1,1.4,0.2,1.8,1l0.2,0.5c0.1,0.4,0.3,0.8,0.4,1.2c0,0.3,0.1,0.5,0.2,0.7c0,0.1,0.1,0.2,0.1,0.3
		c0.1,0.3,0.3,0.6,0.4,0.9c0.1,0.2,0.2,0.3,0.4,0.5c0.2,0.2,0.4,0.3,0.6,0.5c0.2,0.1,0.4,0.2,0.6,0.3c0.3,0.1,0.7,0.2,1.1,0.3
		c0.1,0,0.2,0,0.3,0c0.2,0,0.3,0.1,0.5,0.1l0.3,0c2.5-0.1,3.7-1.3,4-4.1c0.1-0.5,0.2-1.1,0.4-1.6c0.1-0.2,0.2-0.5,0.2-0.7l0.4,0.1
		l0.3-0.2c0.3,0.1,0.6,0.2,0.9,0.2c0.8,0,1.5-0.6,2.1-1.1c1.3-0.4,3.3-0.9,2.8-3c-0.2-1.1-0.8-1.9-1.6-2.4c0,0,0,0,0,0
		c-0.4-0.2-0.9-0.4-1.5-0.4c-0.1,0-0.3,0-0.4,0c-1.6-0.9-1.9-2.1-0.9-3.9c0.1-0.2,0.2-0.4,0.3-0.6c0.3-0.7,0.6-1.2,1.3-1.2
		c0.3,0,0.7,0.1,1.3,0.4c0.2,0.1,0.4,0.1,0.6,0.1c0.1,0,0.3-0.1,0.4-0.1c0,0,0,0,0,0c0.3-0.1,0.6-0.3,0.7-0.6c0.1-0.1,0-0.2,0.1-0.3
		c0-0.1,0-0.1,0-0.2c0.1-0.3,0.1-0.5,0-0.7c0-0.1,0-0.1-0.1-0.2c0-0.1,0-0.2-0.1-0.3c-0.7-0.9-1-2.2-1.3-3.4c-0.6-2.5-1.1-5-5-5.1
		c-0.1,0-0.2,0-0.3-0.1c0,0-0.1,0-0.1-0.1c-0.2-0.2-0.3-0.6-0.3-1c0-0.3-0.1-0.7-0.2-0.9c0.3-0.3,0.5-0.4,0.7-0.4
		c0.2,0,0.4,0.2,0.6,0.5c1.1,0.8,1.9,1.2,2.8,1.2c0.9,0,1.7-0.4,2.4-1.4c0.7-1.5,1-2.7,0.8-3.9c-0.1-1.1-0.5-2.5-1.3-2.5
		c-0.1,0-0.2,0-0.3,0.1c-0.7,0.2-1.4,0.3-2.2,0.3c-1.1,0-2.2,0.1-3.1,0.9c0,0-0.1,0.1-0.1,0.1c-0.2,0.2-0.3,0.3-0.5,0.5l-2.2-0.5
		c-0.2-0.1-0.4-0.2-0.6-0.2c-0.4,0-0.8,0.2-1.1,0.4c-0.3,0.1-0.5,0.3-0.7,0.3c-0.1,0-0.3,0-0.3-0.3c-0.1-0.3-0.2-0.6-0.4-0.9
		c0,0,0-0.1,0-0.1c-0.8-1.7-2.2-3-3.6-4.3c-2.3-2-4.7-4.2-4.1-8c0.5-0.4,1-0.7,1.5-1c0.8-0.5,1.7-1,2.2-1.8c0,0,0,0,0-0.1
		c0.1-0.2,0.2-0.4,0.3-0.7c0,0,0-0.1,0-0.1c0.1-0.3,0.2-0.5,0.2-0.8c0.1-1-0.6-1.3-1.4-1.6l-2.1-1.6c0-0.3,0-0.6-0.1-0.8
		c0,0,0-0.1,0-0.1c-0.2-1.5-1.1-2.6-2-3.7c-0.3-0.4-0.6-0.7-0.9-1.1c-0.3-0.2-0.6-0.4-0.8-0.7c0,0-0.1-0.1-0.1-0.1
		c-0.8-0.8-1.4-1.8-2-2.7c-0.5-0.8-1-1.5-1.6-2.2l-4.2-5.9c-0.2-0.2-0.5-0.4-0.7-0.5c-0.5-0.3-0.9-0.6-1.3-1.2
		c-0.1-0.2-0.3-0.4-0.4-0.7c2-0.5,3-2,4-3.5c0.6-0.9,1.2-1.9,2.1-2.6l0.7-0.2c0.2,0,0.4,0,0.5,0c1.5,0,2.8-0.5,3.9-1.4
		c0.2-0.3,0.5-0.6,0.8-0.8c0,0,0.1-0.1,0.1-0.1c0.9-0.8,1.9-1.4,2.9-2c0.9-0.5,1.8-1.1,2.6-1.7c1.3,0,1.8-0.9,2.2-1.9
		c0-0.2,0-0.4,0-0.6c1.3-1.1,2.6-2.4,3-4.4c0.6-0.5,1.3-1.1,1.5-1.9c0.2,0,0.3,0,0.5-0.1c0.7-0.3,1.3-0.6,2-0.8
		c0.4-0.1,0.8-0.3,1.2-0.4l0.7-0.1l0.6,0.2c0.9,0.3,1.8,0.6,2.6,1.4c0.6,0.7,1.4,1.1,2.3,1.1c0.2,0,0.3-0.1,0.5-0.1
		c0.1,0,0.2,0,0.3-0.1c0.3-0.1,0.6-0.2,0.9-0.3c0.2-0.1,0.3-0.2,0.5-0.3c0.1-0.1,0.2-0.1,0.4-0.2c-0.1-0.8,0.2-1.5,0.5-2.2
		c0.4-0.9,0.7-1.9,0.3-2.9c0.5-2.6-0.4-4-3.1-5.1c-1.1-0.4-2.2-0.6-3.4-0.6c-1.9,0-3.8,0.6-5.6,1.1c-1.3,0.4-2.7,0.8-4,1l-1.8,2
		c-0.2,0-0.3,0.1-0.4,0.2l-2.1,0c-1.1,0-2.3,0-3.4,0c-0.6,0-1.2,0-1.8,0l-0.7,0c-0.4,0-0.9,0-1.2,0.4c-0.2,0.2-0.3,0.6-0.3,1.2
		l0,0.4l0,0.3c-1.8,1.4-3.5,2-5,2c-1.8,0-3.5-0.9-5.2-2.8l-0.7-0.1c-0.3-0.2-0.6-0.2-0.9-0.2c-0.6,0-1,0.4-1.1,1.2l-1.1,0.8
		l-0.8,0.1c-2,0.9-3.1,2.4-3.2,4.6c0,0.2,0,0.5,0.2,0.7c-0.3,0.4-0.7,0.7-1.1,1c-0.9,0.8-1.9,1.6-2,2.9c-0.2,0.2-0.4,0.4-0.5,0.7
		c-0.1,0.2-0.2,0.5-0.2,0.7c-0.5,0.1-1,0.2-1.6,0.2c-0.6,0-1.2-0.1-1.7-0.2c-0.1-0.3-0.3-0.5-0.6-0.7c-0.2-0.1-0.3-0.1-0.5-0.1
		c0,0-0.1,0-0.1,0l-0.5-0.2c-1.8-0.6-3.4-1.1-3.9-3.2c-0.2-0.4-0.4-0.7-0.6-1c-0.4-0.6-0.8-1.1-0.8-1.9c-0.2-0.2-0.2-0.5-0.2-0.7
		c0-0.3-0.1-0.6-0.3-0.8c-0.1-0.1-0.3-0.1-0.4-0.1c-0.1,0-0.1,0-0.2,0l0.1-0.1c0.1-0.6,0-1.1-0.3-1.6c-0.7-0.7-1.6-1-2.4-1.2
		c-1.3-0.4-2.7-0.9-3.2-2.7c-1.9-6.5-3.1-14.1,3-20.6c1.4-1.6,3-1.9,4.3-1.9c0.7,0,1.4,0.1,2.1,0.1c0.6,0.1,1.2,0.1,1.9,0.1
		c0.2,0,0.4,0,0.6-0.1c0.1,0,0.1,0,0.2,0c0,0,0.1-0.1,0.1-0.1c0.5,1.1,1.5,1.3,2.4,1.3c0.2,0,0.4,0,0.7,0c0.2-0.1,0.4-0.2,0.5-0.3
		c0.4,0.4,0.9,0.6,1.3,0.6c0.7,0,1.2-0.5,1.8-0.9c0.4-0.3,0.9-0.7,1.3-0.8c0-0.1,0.1-0.2,0.2-0.5c0.4,0.1,0.8,0.3,1.3,0.4
		c1,0.4,2,0.7,3,0.7c0.2,0,0.4-0.1,0.6-0.1c0,0,0,0,0.1,0c0.6-0.1,1.1-0.3,1.6-0.7l0.8,0.2c0.5,0.1,1,0.1,1.5,0.1
		c0.4,0,0.7,0,1.1-0.1c0.3,0,0.6-0.1,0.9-0.2c0.9,0.5,1.7,0.7,2.4,0.7c0.5,0,0.9-0.1,1.4-0.3c0.1,0.1,0.2,0.1,0.3,0.1
		c0.1,0.1,0.2,0.1,0.3,0.2c0.1,0,0.2,0.1,0.3,0.2c0.4,0.1,0.9,0.2,1.4,0.2c0.7,0,1.5-0.1,2.2-0.2l0.7-0.1c0.4-0.2,0.7-0.5,0.9-0.8
		l6.8-0.5l5.1-0.1c0.1,0.1,0.2,0.3,0.4,0.4c0.5,0.1,1,0.1,1.5,0.1c0.3,0,1.5,0,1.8,0c0.6,0,1.4,0,2.2,0.3c0.7,0.3,1.2,0.9,1.7,1.4
		c0.7,0.8,1.4,1.6,2.6,1.6c0.3,0,0.6,0,0.9-0.1l0.7,0c1.1,0,2.3,0.1,3.4,0.1c1.3,0.1,2.5,0.1,3.8,0.1c2.7,0,4.8-0.3,6.7-1.1
		c0.4-0.1,0.8-0.1,1.2-0.1l0.8,0c0.7,0,1.6,0,2.4-0.5c0.2,0,0.4,0,0.6,0c0.3,0,0.5-0.1,0.7-0.1c0.1,0,0.1,0,0.2,0
		c0.2-0.1,0.4-0.1,0.6-0.2c0.1,0,0.1-0.1,0.2-0.1c0.2-0.1,0.4-0.2,0.5-0.4c3-1,4.5-3.6,5.7-5.8l0.3-0.5c0.7-1.3,1.5-2.7,2.8-3.4
		c4-2.1,5.4-5.9,6.8-9.7l0.4-1.1c1.3-0.3,2.2-0.8,2.5-1.4c0.5-0.9,0-2.1-0.5-3.2c-0.2-0.4-0.4-0.9-0.5-1.3c-0.3-0.2-0.7-0.5-1-0.7
		c-1.1-0.8-2.2-1.6-3.6-1.6c-0.4,0-0.9,0.1-1.3,0.2l-0.8,1.1c-0.5,0.6-1,1.2-1.5,1.8c-1.3,1.7-2.6,3.4-5.2,3.6c-0.4,0-0.9,0.6-1.1,1
		c-0.8,1.6-2.2,2.7-3.5,3.7c-0.5,0.4-1.1,0.8-1.6,1.3c-2.8,2.6-5.5,4.1-8.2,4.7c-0.1,0-0.2,0-0.2,0.1c-0.9,0.2-1.8,0.3-2.7,0.3
		c0,0,0,0,0,0c-0.6,0-1.3-0.1-2-0.1c-0.1,0-0.1,0-0.2,0c-2.1-0.3-4.3-1.1-6.7-2.3c-0.7-0.6-1.4-0.8-2.2-0.8c-0.5,0-1.1,0.1-1.7,0.3
		c-0.4,0.3-0.7,0.6-0.8,0.9l-4.1,1.9l-7.3-1.5c-0.9-0.8-1.8-0.9-2.6-0.9c-0.4,0-0.9,0-1.3,0.1l-0.3,0c-0.3-0.3-0.8-0.4-1.2-0.5
		c-0.6-0.1-1.1-0.2-1.5-0.7l0-0.1l0.1-0.1l-0.1,0.1l0-0.1l-0.1,0.2l-0.5,0l-0.5,0c0-0.1-0.1-0.2-0.1-0.4c-1.4-0.9-2.9-1.5-4.3-1.9
		c-0.7,0-1.4,0.1-2,0.2c-1,0.1-2,0.3-2.9,0.3c-1.6,0-2.9-0.4-4-1.3c-0.3-0.3-0.7-0.6-1-1c0,0,0,0,0,0c0,0,0,0-0.1-0.1l-0.2-0.1
		c0-0.1,0-0.2-0.1-0.4l-1.5,0l-1.4,0c-0.1-0.1-0.2-0.2-0.4-0.2c-0.1,0-0.2,0-0.3,0.1c-1.8-1.3-3.9-1.4-5.8-1.4l-1.6,0
		c-0.5,0-1,0-1.5,0c-1,0.2-1.1,1-1.3,1.7c0,0.2-0.1,0.5-0.2,0.7c0,0-0.3,2.7-0.3,2.7l-0.5,0.8l-1.6,1.3c-0.1,0-0.2,0-0.2,0
		c-0.8,0-1.1,0.6-1.4,1.2c-0.6,1.2-1.3,2.5-2.6,2.5c-0.1,0-0.3,0-0.4-0.1c-1.2-0.3-1.1-1.3-1.1-2.4c0-0.4,0-0.7,0-1.1
		c-0.6-0.5-1.3-0.8-1.9-0.8c-0.6,0-1.2,0.2-1.8,0.6c0,0.1-0.1,0.2-0.3,0.2c0,0-0.1,0-0.1,0c-1.1,0.4-1.1,1.3-1,2.4l0.3,0.6l-0.5,0.4
		c-0.9,0.6-1.8,1.2-2.4,2.1c-0.5,0.1-0.6,0.4-0.8,0.8c-0.1,0.1-0.1,0.2-0.2,0.4c0.2,1.2-0.5,1.8-1.1,2.5c-0.5,0.5-1,1-1.1,1.6
		c-0.3,0.4-0.5,0.8-0.8,1.2c-1.3,1.9-2.7,3.8-1.5,5.9c0.1,0.2,0.3,0.4,0.4,0.6c0.1,0.1,0.2,0.2,0.3,0.3c0.3,0.3,0.5,0.6,0.9,0.9
		c-0.2,0.2-0.5,0.2-0.8,0.2c-0.3,0-0.7-0.1-1-0.2c-0.4-0.1-0.7-0.2-1.1-0.2c-0.7,0-1.2,0.4-1.6,1.2c-0.7,1.4-0.2,2.3,0.4,3.2
		c0.2,0.3,0.4,0.6,0.5,0.9c0.7,4.2,1.1,8.3-2.7,11.5c-0.3,0.3-0.4,0.7-0.5,1.1c-0.1,0.4-0.2,0.8-0.5,1.2l0,1.5l-1.6,2.8
		c-3.7,3.7-4.6,9.3-2.3,14.1l0.1,1.5l0.1,1.8c-3.5,2.1-3.6,5.7-3.7,8.8c-0.2,0.3-0.3,0.6-0.2,0.9c-0.8,2.3-3,3.4-5,4.4
		C490.9,177,490.8,177,490.5,177.1z M572.2,144.4c-0.1,0-0.1,0.1-0.2,0.1c-0.1,0-0.3-0.1-0.5-0.2c0.2,0.1,0.3,0.1,0.5,0.1
		C572.1,144.4,572.1,144.4,572.2,144.4z M584.5,139.5c0.1-0.1,0.2-0.3,0.3-0.4l0.1,0.1c-0.1,0.1-0.1,0.2-0.2,0.2
		C584.6,139.4,584.6,139.4,584.5,139.5z"/>
	<path id="XMLID_26_" class="st1" d="M717.3,149.9c0.5,0,1,0.1,1.5,0.1c1.1,0,1.9-0.2,2.8-0.7l0.3-0.1c0,0,0.1,0,0.1,0c0,0,0,0,0,0
		l0,0l-0.4-0.4c-0.5-1.7-1.6-1.9-2.7-1.9c-0.3,0-0.6,0-0.9,0c-0.3,0-0.6,0-0.9,0c0,0,0,0,0,0c-1,0-1.5,0.5-1.5,1.6
		C715.6,149.6,716.4,149.8,717.3,149.9z"/>
	<path id="XMLID_25_" class="st1" d="M529.1,273.1c0.3,0,0.7-0.1,1.1-0.2l1.4-1.6c0.1-1,0-1.7-0.4-2.1c-0.3-0.4-0.8-0.6-1.6-0.6
		c0,0,0,0,0,0c-0.7,0-1.2,0.3-1.7,0.6c0,0,0,0-0.1,0c-0.1,0.1-0.2,0.1-0.3,0.2c-0.3,0.4-0.5,0.8-0.4,1.4
		C527.2,272.3,527.9,273.1,529.1,273.1z"/>
	<path id="XMLID_24_" class="st1" d="M625.2,69.2c0,0.1,0.1,0.1,0.2,0.2c0,0,0,0,0,0c0.2,0.2,0.6,0.3,1,0.3c0,0,0.2,0,0.2,0
		c1.8-0.1,2.1-1.5,2.2-2.9c0-1.2-0.6-1.8-2.1-1.8c-0.6,0.1-1.1,0.3-1.3,0.5c-0.3,0.4-0.2,0.9-0.1,1.4c0.1,0.5,0.2,1,0,1.3
		C625.1,68.6,625,68.9,625.2,69.2z"/>
	<path id="XMLID_23_" class="st1" d="M720.1,286.9c-0.3-0.6-0.6-1.3-1.4-1.6c-0.8-0.9-1.8-1.2-2.9-1.4c-0.3,0-0.6-0.1-0.8-0.1
		c-0.8,0-1.3,0.2-1.7,0.6c-0.6,0.6-0.5,1.7-0.4,2.7c0,0.4,0.1,0.8,0.1,1.2c0.5,2.4,1.3,3.5,2.5,3.5c0.7,0,1.6-0.4,2.7-1.2l0.3,0
		c0.4,0,0.9-0.1,1-0.8l0.8-0.7c0.6-0.5,0.4-1.1,0.2-1.5C720.2,287.3,720.2,287.1,720.1,286.9z"/>
	<path id="XMLID_22_" class="st1" d="M669.6,278.8c-0.2,0-0.5-0.1-0.7-0.1c-0.3,0-0.6-0.1-0.8-0.1c-0.6,0-1.1,0.3-1.4,0.9
		c0.3,0.5,0,1-0.3,1.5c-0.3,0.4-0.5,0.8-0.4,1.2c0,0.2,0.2,0.5,0.5,0.7c0.4,0.2,0.9,0.4,1.5,0.4c0.5,0,0.9-0.1,1.2-0.3
		c1.3-0.7,1-1.8,0.7-2.8C669.8,279.7,669.7,279.3,669.6,278.8z"/>
	<path id="XMLID_21_" class="st1" d="M398.2,268.8c-0.3,0-0.7,0.1-1.1,0.4c-1,0.6-1.6,1.2-1.6,1.9c-0.1,0.6,0.2,1.2,0.8,1.9
		c0.2,0.1,0.4,0.1,0.6,0.1c0.1,0,0.1,0,0.2,0c0.2,0,0.4,0.1,0.6,0.1c0.7,0,1.3-0.3,1.6-0.8c0.1-0.1,0.2-0.3,0.3-0.5
		c0,0,0-0.1,0.1-0.1c0.1-0.3,0.2-0.6,0.2-0.9c0,0,0-0.1,0-0.1c0,0,0-0.1,0-0.1C399.5,269.8,399.1,268.8,398.2,268.8z"/>
	<path id="XMLID_20_" class="st1" d="M283.4,64.8c0.1,0,0.2,0,0.3,0c1.4-0.2,1.9-1.4,2.4-2.5c-0.4-0.9-0.9-1.8-1.7-1.8
		c-0.1,0-0.2,0-0.3,0.1c-1.1,0.3-2.2,1.3-2.3,2.6c0,0.4,0.1,0.8,0.4,1.1C282.4,64.6,282.9,64.8,283.4,64.8z"/>
	<path id="XMLID_19_" class="st1" d="M521.9,256.1c-0.1,0.4,0.2,1,0.8,1.6c0.2,0.2,0.5,0.4,0.7,0.7c0.4,0.4,0.8,0.9,1.4,0.9
		c0.3,0,0.6-0.1,1-0.4l0.2-3.5c2-3.7,1.9-5-1-12.9c-2.1,0.6-2.5,2.4-2.5,4c-0.2,3.3,0.1,6.1,0.8,8.6
		C522.5,255.4,522,255.7,521.9,256.1z"/>
	<path id="XMLID_18_" class="st1" d="M738.4,204.5c0.6,0,1,0,1.2-0.3c0.4-0.4,0.4-1.4,0.3-3.7c1.1-1.2,1.5-2.3,1.1-3.5
		c-0.4-1-1.3-1.8-2.1-2.6l-0.6-0.5c-0.3-0.3-0.6-0.5-0.9-0.8c-0.8-0.7-1.5-1.3-1.9-2.4c-2.1-5.3-4.7-7.1-10.3-7.1h-0.4
		c-2,0-4-0.1-6-0.8l-2.8-0.8c-0.4-0.6-1-0.7-1.6-0.8c-0.5-0.1-1-0.2-1.3-0.5c0.1-0.2,0-0.5,0-0.8c-0.8-0.3-1.6-0.7-2.3-0.7
		c-0.9,0-1.6,0.4-2.1,1.2l-1.5,1.9c-0.3,0.1-0.7,0.4-1,0.6c-0.4,0.3-0.8,0.6-1.2,0.6c-0.2,0-0.4-0.1-0.6-0.3c-2.3-2-4.8-2.3-7.1-2.3
		c-0.7,0-1.5,0-2.3,0.1c-0.7,0-1.5,0.1-2.2,0.1c-0.5,0-0.9,0-1.4,0c-0.8-0.1-1.7-0.1-2.5-0.1c-3.2,0-6.7,0.6-8.5,5
		c-0.2,0.4-0.6,0.6-1.1,0.8c-0.2,0.1-0.4,0.2-0.6,0.4l-6.6,2.2c-1.7,0.2-2.8,0.5-3.1,1.1c-0.3,0.6,0.1,1.4,0.8,2.7
		c0.5,0,1,0.3,1.5,0.5c0.6,0.3,1.1,0.6,1.6,0.6c0.8,0,1.3-0.7,1.5-2.3c0-0.1,0.7-0.2,1.7-0.2c0.3,0,0.7,0,0.9,0
		c0.9,0.1,0.9,0.8,0.8,1.4c0,0.2,0,0.4,0,0.5c0.1,0.8,0,1.5,0,2.3c-0.1,1.5-0.1,3.1,0.5,4.5c-0.1,0.6-0.1,1.4,0.3,1.9
		c0.2,0.2,0.4,0.3,0.7,0.3c0.2,0,0.5-0.1,0.9-0.2c0.5-0.2,1-0.3,1.5-0.3c0.5,0,1,0.1,1.5,0.3c0.1,0,0.2,0,0.4,0c1.5,0,2.8-0.7,4-1.3
		c0.9-0.5,1.9-1,2.9-1.2c0.3-0.1,0.5-0.2,0.7-0.3l0.4,0.1c0,0,0.8-0.1,1.1-0.1c0.1,0,0.3,0,0.5,0c0.2,0,0.5,0,0.7,0
		c0.2,0,0.5,0,0.7,0c0.7,0,1.5-0.2,1.8-1.3c0.5-1.4-0.1-2.7-1.7-3.6c-0.1-0.1-0.1-0.4-0.1-0.6c0-0.1,0-0.3-0.1-0.3l2.6-1.1l2.5-1.1
		l0.7,0.8c0,0.8,0.1,1.5,1,1.7c0.7,0.1,1.4,0.3,2,0.4c1.7,0.4,3.5,0.8,5.3,1c0.4,0,0.7,0.1,1,0.1c1.5,0,2.7-0.5,3.9-1.7
		c0.8-0.8,1.8-1.2,2.7-1.2c1.2,0,2.5,0.7,3.5,1.9c1.9,2.4,4.3,3.6,7.2,3.6l0.4,0l10.2,6.1C737.7,204.5,738.4,204.5,738.4,204.5z"/>
	<path id="XMLID_17_" class="st1" d="M54.6,98.2c-1.9-0.6-2.8-1.7-3.8-3.5c-0.7-1.2-1.5-2-2.5-2.5c0,0,0,0,0,0
		c-0.6-0.3-1.2-0.5-1.9-0.5c-1.1,0-2.2,0.4-3.5,1.2c-0.7,0.5-1.4,0.9-2.2,0.9c-0.1,0-0.4,0-0.5,0c-0.4,0.7-0.4,1.3-0.2,1.9
		c0.2,0.6,0.8,1.1,1.9,1.6c0.3,0.3,0.5,0.6,0.7,0.9c0,0.1,0.1,0.1,0.1,0.2c0.7,1,1.3,2.1,1.9,3.2c0.6,1.1,1.2,2.3,2,3.4
		c1.4,1.6,2.5,3.5,3.4,5.8c0.6,1.5,1.7,2.2,3.2,2.2c0.4,0,0.9-0.1,1.3-0.2c2-0.5,3-1.7,2.8-3.6l0-0.3c-0.1-1-0.2-2,0.3-2.9
		C58.9,102.4,57.6,99.2,54.6,98.2z"/>
	<path id="XMLID_16_" class="st1" d="M28,71.1l-0.8-0.8c-0.1-0.2-0.3-0.4-0.5-0.6c-0.1-0.1-0.2-0.3-0.3-0.4
		c-0.4-0.5-0.8-0.8-1.3-1.2c0,0,0,0,0,0c-1.2-0.8-2.5-1.4-3.8-1.9l-0.6-0.2c-0.4-0.2-0.8-0.4-1.2-0.7c-1.2-0.6-2.4-1.2-2.7-2.9
		C16,61.5,15.2,61,14.4,61c-1.2,0-2.2,0.9-3.1,1.8c-1,1-1.5,2.1-1.4,3.1c0.1,1,0.7,1.9,1.8,2.8c1.1,1.4,2.7,1.9,4.4,2.4
		c1.6,0.5,3.3,1.1,4.8,2c0,0,0.1,0,0.1,0.1c0.5,0.3,1,0.7,1.5,1.2c0.1,0.1,0.2,0.2,0.3,0.3c0.2,0.2,0.4,0.4,0.6,0.7
		c0.8,1,1.8,1.5,2.7,1.5c0,0,0,0,0,0c0.4,0,0.8-0.1,1.2-0.3c1.3-0.6,1.3-1.8,1.3-3c0-0.3,0-0.6,0-0.9c0-0.5-0.2-1-0.4-1.5L28,71.1z"
		/>
	<path id="XMLID_15_" class="st1" d="M110.1,189.1c0.2-0.1,0.3-0.2,0.4-0.3c1.3-1.4,0.7-2.6,0-3.6l-0.4-0.6c-0.7-1.2-1.4-2.4-2.7-3
		l-1.3-2.3c-0.4-0.3-0.4-0.8-0.4-1.2c0-0.5,0-1-0.5-1.4c-0.3-0.2-0.7-0.4-1-0.7c-0.4-0.3-0.7-0.5-1.1-0.7c-0.2-0.1-0.5-0.3-0.7-0.4
		c-0.7-0.4-1.5-0.9-2.2-0.9c-0.5,0-0.9,0.2-1.4,0.5c-1.7,1.4-1,3.2-0.1,4.8c0.6,2.4,1.8,4.1,4,5.4c1.8,1.1,2.6,3.1,3.4,5
		c0.2,0.6,0.5,1.1,0.8,1.7c0.4,0.9,1,1.3,1.8,1.3c0.3,0,0.6,0,0.9-0.1c0.5-0.2,0.8-0.4,0.9-0.6c0.1-0.4-0.3-0.9-0.8-1.2
		c-0.3-0.3-0.5-0.5-0.5-0.8C109.5,189.5,109.8,189.3,110.1,189.1z"/>
	<path id="XMLID_14_" class="st1" d="M98.3,171.5c-0.2-0.3-0.4-0.6-0.3-1c-0.3-0.4-0.5-0.8-0.7-1.2c-0.5-0.9-1.1-1.9-1.8-2.7
		c-1-1.1-2.2-1.7-3.3-1.7c-0.5,0-0.9,0.1-1.4,0.3c-1.3,0.6-1.1,1.9-0.8,3c0.1,0.3,0.1,0.7,0.2,1c0.1,1,0.8,1.2,1.5,1.4
		c0.4,0.1,0.8,0.2,1.2,0.5c0,0,0.1,0,0.1,0.1c0,0,0,0,0.1,0c0,0,0,0,0.1,0c0.7,0,1.1,0.4,1.6,0.8c0.3,0.3,0.6,0.6,1,0.7
		c0.2,0.1,0.4,0.2,0.6,0.3c0.4,0.2,0.7,0.5,1.1,0.5c0.3,0,0.6-0.1,0.9-0.4C98.9,172.6,98.6,172,98.3,171.5z"/>
	<path id="XMLID_13_" class="st1" d="M145.9,232.5l-0.4,0c-0.1,0.1-0.2,0.1-0.3,0.1c-0.1,0-0.3,0-0.5-0.1c-0.2,0-0.4-0.1-0.6-0.1
		c-0.5,0-0.8,0.2-0.9,0.8c-0.2,1,0.5,1.5,1.1,1.9c0.2,0.1,0.3,0.2,0.4,0.3c0.3,0.3,0.7,0.5,1,0.8c0.6,0.5,1.3,0.9,1.8,1.4
		c0.2,0.1,0.3,0.3,0.4,0.4c0.4,0.4,0.9,0.9,1.4,0.9c0.4,0,0.7-0.2,1.1-0.6c1.2-1.2,1.2-2.7,0-4C149.6,233.2,148,232.5,145.9,232.5z"
		/>
	<path id="XMLID_12_" class="st1" d="M68.9,120.1c0.4,1.4,1.3,2.1,3,2.1h0.5c1.2,0,2.3,0,3.5,0.1l1.8,0c0,0,0,0,0,0
		c0.2-3-1.6-3.2-3.4-3.4c-0.6-0.1-1.2-0.1-1.7-0.3l-2.2,0.1C69.5,118.9,69.1,119.4,68.9,120.1z"/>
	<path id="XMLID_11_" class="st1" d="M44.2,82L44.2,82c1.2-0.3,1.4-1.2,1.6-2.1c0-0.2,0.1-0.4,0.1-0.6c-0.1-2.2-1.2-3.2-3.1-3.2
		l-0.5,0l-0.8,0c-0.7,0-1.4,0.2-1.4,1.4c0,0.4,1,1.8,2.1,2.9C42.5,80.7,43.7,82,44.2,82z"/>
	<path id="XMLID_10_" class="st1" d="M86.2,155.9l-1.5-1.6l-0.5-0.5l0.1-0.8l-1.8-3.5c0.1-0.2,0.1-0.4,0-0.6
		c-0.1-0.1-0.3-0.2-0.5-0.2c0,0,0,0,0,0c-0.6-0.4-0.6-0.9-0.6-1.6c-0.1,0-0.2-0.1-0.3-0.1c-0.1,0-0.2,0-0.3,0c0,0,0,0,0,0
		c0.4-1.9-1-2.8-2.2-3.7c0.2-0.6-0.1-1.1-0.4-1.5c-0.1-0.2-0.3-0.4-0.4-0.6c-0.1,0-0.2,0-0.3,0c-0.7,0-1.2,0.4-1.7,0.8
		c-0.5,0.4-1,0.7-1.7,0.7c0,0,0,0,0,0c-1.7,0-2.7,0.9-3,3l-0.9,1.4c-0.5,0.7-0.4,1.4,0.1,2.3l0.7,0.7c-0.1,1.2,0.7,1.9,1.4,2.5
		c0.2,0.2,0.5,0.4,0.7,0.6l0.5,1.2c-0.1,1.4,0.1,2.9,1.8,3.5l0.1,0.5l0.1,0.5l4.8,2.6c0.1,0.2,0.1,0.4,0.2,0.6
		c0.5,0.5,1,0.7,1.5,0.7c0.6,0,1.1-0.4,1.5-1.1l1.5-1.3c2.1-0.6,1.8-1.8,1.5-3C86.3,156.9,86.2,156.4,86.2,155.9z"/>
	<path id="XMLID_9_" class="st1" d="M70.9,88.5c-0.2-0.2-0.5-0.3-0.7-0.6l-0.5-0.1c-0.5-0.1-0.9-0.2-1.4-0.2c-0.4,0-0.8,0.1-1.1,0.2
		c-0.6,1-0.8,1.6-0.6,2c0,0.1,0.1,0.1,0.2,0.1c0,0,0,0,0,0c0.2,0.2,0.6,0.3,1.1,0.3c0.2,0,0.4,0,0.6,0c0.7-0.1,1.4-0.1,2.1-0.1
		l1-0.1C72,89.2,71.5,88.8,70.9,88.5z"/>
	<path id="XMLID_8_" class="st1" d="M70.2,135.5c0.5-0.5,1.2-1.2,0.7-2.2l0-0.4c0.1-1.4,0.2-2.9-0.6-4.2c0.2-2.4-1.2-4.1-2.3-5.1
		c-0.5-0.5-1.2-0.8-1.9-0.8c-0.6,0-1.2,0.2-1.9,0.5c-0.3,0.2-0.5,0.4-0.5,0.6c-0.1,0.3,0.2,0.6,0.4,0.8c0.2,0.3,0.5,0.6,0.4,0.9
		c0,0,0,0,0,0.1l0,0c0,0,0,0,0,0c0.1,0,0.2,0,0.4,0.1c0.5,0.1,0.9,0.1,1,0.8c-0.1,0.3-0.1,0.7,0,1.1c0.1,0.4,0.2,0.8-0.1,1.2
		c-0.1,0.5-0.3,1-0.4,1.5c-0.4,1.1-0.7,2.3-0.3,3.5c0,0.7,0.1,1.1,0.3,1.5c0,0,0,0.1,0.1,0.1c0.1,0.1,0.1,0.2,0.2,0.3
		c0.3,0.3,0.6,0.4,1.1,0.4c0.3,0,0.7,0,1-0.1c0.3,0,0.7-0.1,1-0.1c0.3,0,0.6,0,0.8,0.1l0.7-0.1C70.4,135.9,70.4,135.6,70.2,135.5z"
		/>
	<path id="XMLID_7_" class="st1" d="M631.2,292.4c-1.6,0-2.6,1-3,2.7c-0.1,0.5,0,1,0.1,1.3c0,0,0,0,0,0c0,0.1,0.1,0.2,0.1,0.3
		c0.2,0.2,0.4,0.3,0.7,0.3c0,0,0.1,0,0.1,0c1.6-0.2,2.9-1.2,3.3-2.8c0.1-0.7-0.1-1.1-0.4-1.5C632,292.5,631.7,292.4,631.2,292.4
		C631.2,292.4,631.2,292.4,631.2,292.4z"/>
	<path id="XMLID_6_" class="st1" d="M555,227.6c-0.2,0-0.3-0.1-0.5-0.1c-0.7,0-1.1,0.5-1.6,0.9c-0.3,0.3-0.5,0.5-0.9,0.7l-0.2,1.3
		c-0.8,1.3-0.8,2.6,0.1,3.8l2,3c0.5,1,1.3,1.6,2.2,2c0,0,0,0,0,0c0,0,0,0,0,0c0,0,0,0,0,0c0.1-0.2,0.3-0.3,0.5-0.5
		c0.3-0.2,0.6-0.4,0.5-0.9c0-1,0-2,0.6-3c0.2-1.3,0.3-2.7-0.5-3.9C557.2,229.6,556.9,228,555,227.6z"/>
	<path id="XMLID_5_" class="st1" d="M446.2,303.8c0.8-0.7,0.8-1.6,0.7-2.7c0.2-0.1,0.4-0.3,0.6-0.5c0.7-1.2,1-2.2,0.7-3
		c-0.3-1-1.2-1.8-2.8-2.6c-1.9-0.9-3.6-1.4-5.2-1.4c-1.2,0-2.3,0.2-3.4,0.7c-1.7,0.4-2.8,1.3-3.2,2.9l-0.7,1l-0.2,0.4c0,0,0,0,0,0
		l0,0l0,0l0.2,0.1c-0.4,0.6-0.3,1.3-0.2,1.8l0,0.4c-0.1,0.6-0.1,1.2-0.2,1.8c-0.6,1.8-2.4,2.6-4.1,3.2c0.1,0.9,0.3,1.9,1.5,2.3
		c1.1,1.2,2.6,1.3,4,1.3l1,0c2.3,0,4.6,0,6.9-0.1l2.6-0.1c0.2,0,0.4,0,0.6,0c0,0,0,0,0,0l0,0C444.5,307.4,444.3,305.4,446.2,303.8z"
		/>
	<path id="XMLID_4_" class="st1" d="M529.9,328.5l-2-1.5l-0.4-0.4c-0.7-0.7-1.4-1.5-2.5-1.8c-0.9-1.2-2.2-1.7-3.5-2.2l-0.8-0.3
		l-0.8-0.9c-2-2.4-4.2-5.1-6.6-5.1c-0.2,0-0.5,0-0.7,0.1c-2.4,0.6-4.9,0.6-7.3,0.7c-3.5,0.1-7.1,0.2-10.4,1.8
		c-1.9,1.2-2.8,2.2-2.9,3.2c-0.1,1.2,0.7,2.5,2.7,4.5c1.3,1.2,2.8,1.3,3.9,1.3c0.6,0,1.1,0,1.7-0.1c0.6,0,1.1-0.1,1.7-0.1
		c0.5,0,0.9,0,1.4,0.1c0.3,0,0.5,0.1,0.8,0.1l0.9,0c1,0,2,0.1,2.4,1.7c1.5,1.9,3.6,2.8,5.9,3.8c0.1,0.6,0.4,1.1,1,1.3
		c0.3,2.2,2,2.8,3.7,3.4c0.4,0.2,0.8,0.3,1.3,0.5l0.2,0l0.2,0.2c0.5,0.3,0.8,0.4,1.2,0.4c0.3,0,0.6-0.1,0.9-0.4
		c0.3,0.3,0.7,0.5,1.1,0.5c0,0,0,0,0,0c0,0,2.5-0.8,2.5-0.8c0.1-0.1,0.2-0.2,0.4-0.3c0.2-0.2,0.5-0.4,0.8-0.5
		c3.6-1.1,5.4-2.2,5.8-3.6c0-0.1,0-0.3,0-0.4c0-0.1,0-0.1,0-0.2C532.6,332.4,531.8,330.9,529.9,328.5z"/>
	<path id="XMLID_3_" class="st1" d="M554.3,339.6c-0.2,0-0.4,0-0.7,0.1c-0.1,0.1-0.3,0.2-0.4,0.4c-0.3,0.3-0.6,0.5-0.9,0.9
		c-0.3,0.5-1,0.8-1.6,1.1c-0.7,0.3-1.4,0.7-1.6,1.3c-0.1,0.4-0.1,0.8,0.2,1.3c0.4,0.7,1.1,1.1,2.1,1.1c0.7,0,1.5-0.2,2.2-0.3
		c0.3-0.1,0.6-0.1,0.9-0.2c0.1,0,0.2,0,0.4-0.1l0.8-0.5c1-0.4,2.1-0.8,2-2.3C556.9,340.5,555.8,339.6,554.3,339.6z"/>
</g>
</svg>
