<?xml version="1.0" encoding="utf-8"?>
<!-- Generator: Adobe Illustrator 19.0.0, SVG Export Plug-In . SVG Version: 6.00 Build 0)  -->
<svg version="1.1" id="Layer_1" xmlns="http://www.w3.org/2000/svg" xmlns:xlink="http://www.w3.org/1999/xlink" x="0px" y="0px"
	 viewBox="0 0 255 111.5" style="enable-background:new 0 0 255 111.5;" xml:space="preserve">
<style type="text/css">
	.st0{clip-path:url(#XMLID_23_);}
	.st1{fill:url(#XMLID_24_);}
	.st2{clip-path:url(#XMLID_25_);fill:url(#XMLID_26_);}
	.st3{clip-path:url(#XMLID_25_);fill:url(#XMLID_27_);}
	.st4{clip-path:url(#XMLID_25_);fill:none;stroke:url(#XMLID_28_);stroke-miterlimit:10;}
	.st5{clip-path:url(#XMLID_25_);fill:none;stroke:url(#XMLID_29_);stroke-miterlimit:10;}
	.st6{clip-path:url(#XMLID_25_);fill:none;stroke:url(#XMLID_30_);stroke-miterlimit:10;}
	.st7{clip-path:url(#XMLID_34_);}
	.st8{fill:url(#XMLID_35_);}
	.st9{clip-path:url(#XMLID_36_);fill:url(#XMLID_37_);}
	.st10{clip-path:url(#XMLID_36_);fill:url(#XMLID_38_);}
	.st11{clip-path:url(#XMLID_36_);fill:url(#XMLID_39_);}
	.st12{clip-path:url(#XMLID_36_);fill:none;stroke:url(#XMLID_40_);stroke-miterlimit:10;}
	.st13{clip-path:url(#XMLID_36_);fill:none;stroke:url(#XMLID_41_);stroke-miterlimit:10;}
	.st14{clip-path:url(#XMLID_36_);fill:none;stroke:url(#XMLID_42_);stroke-miterlimit:10;}
</style>
<g id="XMLID_19_">
	<defs>
		<path id="XMLID_1_" d="M255.1,2v98.7c0,6.2-4.4,10.8-10.1,10.8H10.4c-5.5,0-10.1-4.5-10.4-10.3l0-22.6l0-39.7
			c0,0,42.1-26.1,103-12.3C163.9,40.3,255.1,2,255.1,2z"/>
	</defs>
	<clipPath id="XMLID_23_">
		<use xlink:href="#XMLID_1_"  style="overflow:visible;"/>
	</clipPath>
	<g id="XMLID_18_" class="st0">
		
			<radialGradient id="XMLID_24_" cx="-3.6072" cy="180.4096" r="360.3014" gradientTransform="matrix(1 0 0 0.9821 0 2)" gradientUnits="userSpaceOnUse">
			<stop  offset="0" style="stop-color:#8E81D0"/>
			<stop  offset="0.3655" style="stop-color:#7F5EC2"/>
			<stop  offset="1" style="stop-color:#601AA5"/>
		</radialGradient>
		<rect id="XMLID_3_" x="-10.2" y="-93.1" class="st1" width="275.3" height="270.4"/>
		<g id="XMLID_203_">
			<defs>
				<rect id="XMLID_214_" x="-10.2" y="-93.1" width="275.3" height="270.4"/>
			</defs>
			<clipPath id="XMLID_25_">
				<use xlink:href="#XMLID_214_"  style="overflow:visible;"/>
			</clipPath>
			
				<linearGradient id="XMLID_26_" gradientUnits="userSpaceOnUse" x1="-238.105" y1="-260.1966" x2="91.3575" y2="-260.1966" gradientTransform="matrix(0.9894 0.1454 -0.1454 0.9894 236.877 237.643)">
				<stop  offset="0" style="stop-color:#8E81D0"/>
				<stop  offset="0.3655" style="stop-color:#7F5EC2"/>
				<stop  offset="1" style="stop-color:#601AA5"/>
			</linearGradient>
			<path id="XMLID_216_" class="st2" d="M136.1-189.1c0,0-38.5,10-24.8,44.8c13.7,34.7-3.2,33,40.9,69.9
				c58.7,49.1-11.9,96.7,51.2,132.2c39,21.9,96.2-60.4,92.3,18.8c-2.2,46.2,32.9,79.9,60,51.3c27.1-28.6,41.8-279.2,41.8-279.2
				L136.1-189.1z"/>
			
				<linearGradient id="XMLID_27_" gradientUnits="userSpaceOnUse" x1="-1663.8501" y1="442.2794" x2="-1273.7382" y2="442.2794" gradientTransform="matrix(-0.9663 0.2575 -0.2575 -0.9663 -1133.5461 987.8749)">
				<stop  offset="0" style="stop-color:#8E81D0"/>
				<stop  offset="0.3655" style="stop-color:#7F5EC2"/>
				<stop  offset="1" style="stop-color:#601AA5"/>
			</linearGradient>
			<path id="XMLID_215_" class="st3" d="M287.9,296.5c0,0,31.3-24.2,4.7-50.7c-26.6-26.6,14.8-53.2-40.7-70
				c-73.6-22.3-40.8-101.5-113.1-109.6c-44.7-5-76.3,122.5-104.6,48.3C17.7,71.1-43.5,84.3-45,113.2c-1.7,33.2-76.5,28.8-79.2,52
				C-136.7,270.9,287.9,296.5,287.9,296.5z"/>
			<linearGradient id="XMLID_28_" gradientUnits="userSpaceOnUse" x1="61.8633" y1="83.007" x2="5.8843" y2="-204.4574">
				<stop  offset="0" style="stop-color:#8E81D0"/>
				<stop  offset="0.3655" style="stop-color:#7F5EC2"/>
				<stop  offset="1" style="stop-color:#601AA5"/>
			</linearGradient>
			<path id="XMLID_212_" class="st4" d="M-97.5,90.2c0,0,22.4,32.3,51.2,8.1C-17.5,74-72-11.5-14-11.5C44-11.6,96.6,11.2,92.6-32.8
				c-3.9-44-23.4-77.2,34.2-77.2c86.5,0,43.6-92.9,7.2-108.5c-36.5-15.6-282,53.9-282,53.9L-97.5,90.2z"/>
			<linearGradient id="XMLID_29_" gradientUnits="userSpaceOnUse" x1="158.9525" y1="-30.5961" x2="304.4841" y2="-30.5961">
				<stop  offset="0" style="stop-color:#8E81D0"/>
				<stop  offset="0.3655" style="stop-color:#7F5EC2"/>
				<stop  offset="1" style="stop-color:#601AA5"/>
			</linearGradient>
			<path id="XMLID_68_" class="st5" d="M177.5-112.1c0,0-33.9,45.3-8.7,65.3s40.9,6.2,29.3,42.5c-11.5,36.3-6.3,58.9,30.4,54.8
				c36.7-4.1,69.1-11.3,73.3-4.1c4.2,7.2,1-149.2,1-149.2L177.5-112.1z"/>
			<linearGradient id="XMLID_30_" gradientUnits="userSpaceOnUse" x1="-50.4155" y1="147.571" x2="121.4275" y2="147.571">
				<stop  offset="0" style="stop-color:#8E81D0"/>
				<stop  offset="0.3655" style="stop-color:#7F5EC2"/>
				<stop  offset="1" style="stop-color:#601AA5"/>
			</linearGradient>
			<path id="XMLID_205_" class="st6" d="M16.8,96.8c-24.1,53.5,66-19.5,90.1,26.8c24.1,46.3,16.3,56.6-17.5,86.4
				c-33.8,29.8-127.1,23.7-127.1,23.7s5.2-10.2,1-43.7S-59.2,78.5-43.9,71C-28.6,63.6,40.9,43.3,16.8,96.8z"/>
		</g>
	</g>
</g>
<g id="XMLID_21_">
	<defs>
		<polygon id="XMLID_20_" points="-340,23 -85,7 -85,118.5 -340,118.5 		"/>
	</defs>
	<clipPath id="XMLID_34_">
		<use xlink:href="#XMLID_20_"  style="overflow:visible;"/>
	</clipPath>
	<g id="XMLID_5_" class="st7">
		<g id="XMLID_87_">
			
				<radialGradient id="XMLID_35_" cx="-207.1162" cy="134.3578" r="157.0101" gradientTransform="matrix(2.2113 0 0 1.3598 119.1587 -40.1128)" gradientUnits="userSpaceOnUse">
				<stop  offset="0" style="stop-color:#FFC200"/>
				<stop  offset="0.283" style="stop-color:#FF9F00"/>
				<stop  offset="0.9068" style="stop-color:#FE4800"/>
				<stop  offset="1" style="stop-color:#FE3A00"/>
			</radialGradient>
			<rect id="XMLID_8_" x="-345.2" y="-21.7" class="st8" width="265.3" height="163.1"/>
		</g>
		<g id="XMLID_49_">
			<defs>
				<rect id="XMLID_33_" x="-345.2" y="-21.7" width="265.3" height="163.1"/>
			</defs>
			<clipPath id="XMLID_36_">
				<use xlink:href="#XMLID_33_"  style="overflow:visible;"/>
			</clipPath>
			
				<radialGradient id="XMLID_37_" cx="-333.7754" cy="27.895" r="169.692" gradientTransform="matrix(0.2129 -1.3535 2.2011 0.1309 -107.6143 -325.5219)" gradientUnits="userSpaceOnUse">
				<stop  offset="0" style="stop-color:#FE3A00"/>
				<stop  offset="0.1508" style="stop-color:#FE5700"/>
				<stop  offset="0.4148" style="stop-color:#FF8500"/>
				<stop  offset="0.6498" style="stop-color:#FFA600"/>
				<stop  offset="0.8447" style="stop-color:#FFBB00"/>
				<stop  offset="0.9754" style="stop-color:#FFC200"/>
			</radialGradient>
			<path id="XMLID_64_" class="st9" d="M-415.8,102.5c0,0,11.7,22.5,45.1,13.3c33.4-9.2,6.9-67.8,60.5-58.1
				c53.6,9.7,95.8,31.8,104.5,5.7c8.7-26.1-36-80.2,42.7-63.4c78.7,16.9,76.7-21.9,47.4-37.1C-145-52.1-391.3-53.4-391.3-53.4
				L-415.8,102.5z"/>
			
				<radialGradient id="XMLID_38_" cx="-183.0172" cy="137.1291" r="169.6968" gradientTransform="matrix(2.2113 0 0 1.3598 119.1587 -40.1128)" gradientUnits="userSpaceOnUse">
				<stop  offset="0" style="stop-color:#FFC200"/>
				<stop  offset="0.283" style="stop-color:#FF9F00"/>
				<stop  offset="0.9068" style="stop-color:#FE4800"/>
				<stop  offset="1" style="stop-color:#FE3A00"/>
			</radialGradient>
			<path id="XMLID_32_" class="st10" d="M-270-39c0,0-35.3,9.3-17.2,28.9c18.1,19.6,110.4-2.3,99.8,31.4
				C-198,55-229.6,83-186.6,85.8c43.1,2.8,126.4-29.8,106.7,20s42.8,44.8,64.6,25.4c21.7-19.4,0-170.3,0-170.3H-270z"/>
			
				<radialGradient id="XMLID_39_" cx="-258.3768" cy="88.327" r="169.6899" gradientTransform="matrix(-2.1879 -0.1977 0.3215 -1.3453 -756.5867 112.0026)" gradientUnits="userSpaceOnUse">
				<stop  offset="0" style="stop-color:#FFC200"/>
				<stop  offset="0.283" style="stop-color:#FF9F00"/>
				<stop  offset="0.9068" style="stop-color:#FE4800"/>
				<stop  offset="1" style="stop-color:#FE3A00"/>
			</radialGradient>
			<path id="XMLID_60_" class="st11" d="M-220.8,220.8c0,0,37.1-6.1,23.9-27c-13.2-21,3.1-19.9-39.4-42.2
				c-56.5-29.6,1-62.7-59.8-84.1c-37.6-13.2-82.2,40.8-78.5-7c2.2-27.9-31.7-48.2-57.8-30.9C-458.6,46.8-472.8,198-472.8,198
				L-220.8,220.8z"/>
			
				<radialGradient id="XMLID_40_" cx="-113.2129" cy="46.1488" r="56.4929" gradientTransform="matrix(2.2113 0 0 1.3598 119.1587 -40.1128)" gradientUnits="userSpaceOnUse">
				<stop  offset="0" style="stop-color:#FFC200"/>
				<stop  offset="0.283" style="stop-color:#FF9F00"/>
				<stop  offset="0.9068" style="stop-color:#FE4800"/>
				<stop  offset="1" style="stop-color:#FE3A00"/>
			</radialGradient>
			<path id="XMLID_130_" class="st12" d="M-263.2-45.8c0,0-16.2,39.1,25.2,45.3c41.4,6.2,52.5-14.8,58.6,6.9
				c6.1,21.7-20.2,18.7,22.2,41.9s13.6,38.1,59.3,42.4c45.7,4.3,85.4-28.6,99.4-38.5C15.4,42.3-35-40.9-35-40.9L-263.2-45.8z"/>
			
				<radialGradient id="XMLID_41_" cx="-109.3819" cy="36.7872" r="56.4929" gradientTransform="matrix(2.2113 0 0 1.3598 119.1587 -40.1128)" gradientUnits="userSpaceOnUse">
				<stop  offset="0" style="stop-color:#FFC200"/>
				<stop  offset="0.283" style="stop-color:#FF9F00"/>
				<stop  offset="0.9068" style="stop-color:#FE4800"/>
				<stop  offset="1" style="stop-color:#FE3A00"/>
			</radialGradient>
			<path id="XMLID_173_" class="st13" d="M-254.7-58.6c0,0-16.2,39.1,25.2,45.3s52.5-14.8,58.6,6.9s-20.2,18.7,22.2,41.9
				c42.4,23.2,13.6,38.1,59.3,42.4C-43.7,82.4-4,49.5,10,39.5c14-9.9-36.5-93.1-36.5-93.1L-254.7-58.6z"/>
			
				<radialGradient id="XMLID_42_" cx="-200.848" cy="124.7678" r="38.5033" gradientTransform="matrix(2.2113 0 0 1.3598 119.1587 -40.1128)" gradientUnits="userSpaceOnUse">
				<stop  offset="0" style="stop-color:#FFC200"/>
				<stop  offset="0.283" style="stop-color:#FF9F00"/>
				<stop  offset="0.9068" style="stop-color:#FE4800"/>
				<stop  offset="1" style="stop-color:#FE3A00"/>
			</radialGradient>
			<path id="XMLID_129_" class="st14" d="M-414.6,94.7c51.5,0,64.6,11.8,74.2,0.6c9.6-11.2,41.9-19.9,46.9-7.4
				c5,12.4,11.4,21.4,9.8,28.7c-1.7,7.3,18.1,19.3,20.8,22.3s46.1-12.6,18.9,9.8s-79.8,29.2-89.9,28.6
				c-10.1-0.6-49.5-12.4-49.5-12.4L-414.6,94.7z"/>
		</g>
	</g>
</g>
</svg>
