<?xml version="1.0" encoding="utf-8"?>
<!-- Generator: Adobe Illustrator 19.0.0, SVG Export Plug-In . SVG Version: 6.00 Build 0)  -->
<svg version="1.1" id="Layer_1" xmlns="http://www.w3.org/2000/svg" xmlns:xlink="http://www.w3.org/1999/xlink" x="0px" y="0px"
	 viewBox="-237 239 24 24" style="enable-background:new -237 239 24 24;" xml:space="preserve">
<style type="text/css">
	.st0{fill:#FFFFFF;fill-opacity:0;}
	.st1{fill:#FFFFFF;}
</style>
<g>
	<g>
		<polyline class="st0" points="-237,239 -213,239 -213,263 -237,263 		"/>
		<path class="st1" d="M-228.9,259c6.1,0.2,11.2-4.6,11.4-10.7c0-0.1,0-0.2,0-0.3c0.7-0.8,1.2-1.8,1.5-2.8c0.1-0.2-0.1-0.5-0.3-0.5
			c-0.1,0-0.2,0-0.3,0c-0.7,0.3-1.6,0.2-2.2-0.4c-1.4-1.6-3.9-1.7-5.5-0.2c0,0-0.1,0.1-0.1,0.1c-1,1-1.5,2.5-1.1,3.9
			c-3.4,0.2-5.7-1.4-7.5-3.6c-0.2-0.2-0.4-0.2-0.6,0c-0.1,0.1-0.1,0.2-0.1,0.3c-0.7,4,1.1,8,4.6,10.1c-1.1,1.3-2.7,2.1-4.5,2.3
			c-0.2,0-0.4,0.3-0.4,0.5c0,0.1,0.1,0.3,0.2,0.3C-232.3,258.6-230.6,259-228.9,259"/>
	</g>
</g>
</svg>
