<?xml version="1.0" encoding="utf-8"?>
<!-- Generator: Adobe Illustrator 19.0.0, SVG Export Plug-In . SVG Version: 6.00 Build 0)  -->
<svg version="1.1" id="Layer_1" xmlns="http://www.w3.org/2000/svg" xmlns:xlink="http://www.w3.org/1999/xlink" x="0px" y="0px"
	 viewBox="-627 389 24 24" style="enable-background:new -627 389 24 24;" xml:space="preserve">
<style type="text/css">
	.st0{fill:#165AE6;fill-opacity:0;}
	.st1{fill:#165AE6;}
</style>
<g>
	<g>
		<rect x="-627" y="389" class="st0" width="24" height="24"/>
		<path class="st1" d="M-612.7,409h-0.2c-0.9-0.1-1.6-0.7-1.8-1.6l-2.7-12.4l-2.8,6.4c-0.2,0.4-0.5,0.6-0.9,0.6h-3c-0.6,0-1-0.4-1-1
			s0.4-1,1-1h2.3l2.5-5.8c0.4-1,1.6-1.5,2.6-1c0.6,0.3,1,0.8,1.2,1.4l2.7,12.4l2.8-6.4c0.2-0.4,0.5-0.6,0.9-0.6h3c0.6,0,1,0.4,1,1
			s-0.4,1-1,1h-2.3l-2.5,5.8C-611.2,408.5-611.9,409-612.7,409z"/>
	</g>
</g>
</svg>
