<?xml version="1.0" encoding="utf-8"?>
<!-- Generator: Adobe Illustrator 19.0.0, SVG Export Plug-In . SVG Version: 6.00 Build 0)  -->
<svg version="1.1" id="Layer_1" xmlns="http://www.w3.org/2000/svg" xmlns:xlink="http://www.w3.org/1999/xlink" x="0px" y="0px"
	 viewBox="-627 389 24 24" style="enable-background:new -627 389 24 24;" xml:space="preserve">
<style type="text/css">
	.st0{fill:#165AE6;fill-opacity:0;}
	.st1{fill:#165AE6;}
</style>
<g>
	<g>
		<rect x="-627" y="389" class="st0" width="24" height="24"/>
		<polygon class="st1" points="-616.2,402.2 -614.5,401.5 -613.8,399.8 -615.5,400.5 		"/>
		<path class="st1" d="M-615,391c-5.5,0-10,4.5-10,10s4.5,10,10,10s10-4.5,10-10S-609.5,391-615,391z M-611.1,398.4l-1.8,4.3
			c-0.1,0.3-0.3,0.4-0.5,0.6l-4.2,1.7c-0.1,0.1-0.3,0.1-0.4,0.1c-0.3,0-0.5-0.1-0.7-0.3h0c-0.2-0.3-0.3-0.7-0.2-1l1.8-4.3
			c0.1-0.3,0.3-0.4,0.5-0.5l4.2-1.7c0.4-0.2,0.8-0.1,1.1,0.3C-611.1,397.7-611,398.1-611.1,398.4z"/>
	</g>
</g>
</svg>
