<?xml version="1.0" encoding="utf-8"?>
<!-- Generator: Adobe Illustrator 19.0.0, SVG Export Plug-In . SVG Version: 6.00 Build 0)  -->
<svg version="1.1" id="Layer_1" xmlns="http://www.w3.org/2000/svg" xmlns:xlink="http://www.w3.org/1999/xlink" x="0px" y="0px"
	 viewBox="-627 389 24 24" style="enable-background:new -627 389 24 24;" xml:space="preserve">
<style type="text/css">
	.st0{fill:#165AE6;fill-opacity:0;}
	.st1{fill:#165AE6;}
</style>
<g>
	<g>
		<rect x="-627" y="389" class="st0" width="24" height="24"/>
		<rect x="-627" y="389" class="st0" width="24" height="24"/>
		<path class="st1" d="M-615,391c-5.5,0-10,4.5-10,10s4.5,10,10,10s10-4.5,10-10S-609.5,391-615,391z M-615,393
			c0.6,0,1.2,0.1,1.8,0.2c-0.2,0.4-0.4,0.7-0.8,1c-0.2,0.2-0.5,0.3-0.7,0.5c-0.8,0.4-1.4,1-1.8,1.7c-0.5,1-0.7,2.2-0.6,3.3
			c0,1.4,0,2.2-1,2.9c-1.4,1.1-3.5,0.5-4.8-0.1c-0.1-0.5-0.1-1-0.1-1.4C-623,396.6-619.4,393-615,393z M-610.1,407.3
			c-0.2-0.4-0.4-0.8-0.6-1.1c-0.1-0.2-0.2-0.3-0.3-0.5c-0.4-0.7-0.3-1,0.4-2l0.1-0.2c0.4-0.7,0.6-1.6,0.6-2.4c0-0.3,0-0.7,0.1-1
			c0.2-0.7,1.7-0.9,2.7-1C-606.4,402.2-607.6,405.4-610.1,407.3L-610.1,407.3z"/>
	</g>
</g>
</svg>
