<?xml version="1.0" encoding="utf-8"?>
<!-- Generator: Adobe Illustrator 19.0.0, SVG Export Plug-In . SVG Version: 6.00 Build 0)  -->
<svg version="1.1" id="Layer_1" xmlns="http://www.w3.org/2000/svg" xmlns:xlink="http://www.w3.org/1999/xlink" x="0px" y="0px"
	 viewBox="-627 389 24 24" style="enable-background:new -627 389 24 24;" xml:space="preserve">
<style type="text/css">
	.st0{fill:#165AE6;fill-opacity:0;}
	.st1{fill:#165AE6;}
</style>
<g>
	<g>
		<rect x="-627" y="389" class="st0" width="24" height="24"/>
		<path class="st1" d="M-618,400c2.2,0,4-1.8,4-4s-1.8-4-4-4s-4,1.8-4,4S-620.2,400-618,400z"/>
		<path class="st1" d="M-610,402c1.7,0,3-1.3,3-3s-1.3-3-3-3s-3,1.3-3,3S-611.7,402-610,402z"/>
		<path class="st1" d="M-606,409c0.6,0,1-0.4,1-1c0-2.8-2.2-5-5-5c-1.1,0-2.2,0.4-3.1,1c-2.7-2.7-7.2-2.7-9.9,0
			c-1.3,1.3-2,3.1-2,4.9c0,0.6,0.4,1,1,1h12c0.6,0,1-0.4,1-1"/>
	</g>
</g>
</svg>
